<svg height="512" viewBox="0 0 512 512" width="512" xmlns="http://www.w3.org/2000/svg"><g id="filled_outline" data-name="filled outline"><g fill="#f48b68"><path d="m207.3 107.013 23.246 34.52a409.957 409.957 0 0 0 54.577 65.247l93.016 90.247a543.984 543.984 0 0 1 80.328 110.585l29.533 53.768-24.728 20.31-27.6-8.391-2.869-28.7-.086-.162a544.01 544.01 0 0 0 -95.992-129.265l-82.039-74.01a410 410 0 0 1 -65.445-75.415l-19.036-28.267z"/><path d="m319.64 255.71a32.046 32.046 0 0 1 -6.79.69c-22.83 0-53.77-21.3-78.06-54.54-22.2-30.39-33.56-63.12-29.64-85.41a7.975 7.975 0 0 1 4.55-5.88l10.69 15.88v.05c.3 17.77 10.63 43.07 27.32 65.92 11.49 15.73 25.12 29.18 38.37 37.86 11.87 7.79 22.88 11.36 30.21 9.79a7.856 7.856 0 0 1 3.09-.05l6.42 6.23a8 8 0 0 1 -6.16 9.46z"/><path d="m319.64 255.71a32.046 32.046 0 0 1 -6.79.69c-22.83 0-53.77-21.3-78.06-54.54-22.2-30.39-33.56-63.12-29.64-85.41a7.975 7.975 0 0 1 4.55-5.88l10.69 15.88v.05c.3 17.77 10.63 43.07 27.32 65.92 11.49 15.73 25.12 29.18 38.37 37.86 11.87 7.79 22.88 11.36 30.21 9.79a7.856 7.856 0 0 1 3.09-.05l6.42 6.23a8 8 0 0 1 -6.16 9.46z"/><path d="m338.3 284.96c-15.38-5.97-28.32-6.47-36.69-1.47l-12.01-10.84a7.718 7.718 0 0 1 1.56-1.45c15.59-10.96 38.85-9.02 64.35 3.88l.01.01 22.62 21.94q12.5 13.305 24.07 27.41a7.744 7.744 0 0 1 -3.36.76 7.935 7.935 0 0 1 -5.61-2.31c-17.92-17.67-37.43-31.14-54.94-37.93z"/><path d="m425.82 431.93q-4.965-8.79-10.28-17.37c1.45-13.6-6.66-36.91-25.96-60.41-18.09-22.02-37.28-33.61-50.4-36.52-.82-.83-1.63-1.64-2.45-2.46l-11.74-10.59a8 8 0 0 1 6.36-3.66c20.62-.95 48.31 15.95 70.59 43.07 27.03 32.9 36.95 69.66 23.88 87.94z"/><path d="m454.87 474.78a36.735 36.735 0 0 1 -4.31 3.05l-13.5-4.11a8.008 8.008 0 0 1 4.1-8.96 20.455 20.455 0 0 0 3.56-2.34c13.9-11.42 11.64-42.38-5.64-77.05a7.992 7.992 0 0 1 1.03-8.71q9.69 15.15 18.36 30.95l10.69 19.46c2.48 20.95-2.27 37.84-14.29 47.71z"/></g><path d="m111.585 242.566-6.13-4.8a279.451 279.451 0 0 1 -80.188-100.296l38.056-10.507a185.232 185.232 0 0 0 68.27-35.412l6.715-5.516 23.269-19.111a75.788 75.788 0 0 0 21.111-27.691l18.546-15.233a203.973 203.973 0 0 1 50.776 61.821l-18.547 15.233a75.786 75.786 0 0 0 -31.263 15.326l-23.269 19.112a185.234 185.234 0 0 0 -54.724 75.108z" fill="#c1e3f7"/><path d="m123.6 212.14-12.02 30.43-6.12-4.81a279.328 279.328 0 0 1 -80.19-100.29l30.69-8.48a279.393 279.393 0 0 0 67.64 83.15z" fill="#c1e3f7"/><path d="m123.6 212.14-12.02 30.43-6.12-4.81a279.328 279.328 0 0 1 -80.19-100.29l30.69-8.48a279.393 279.393 0 0 0 67.64 83.15z" fill="#accadc"/><path d="m319.64 255.71a32.046 32.046 0 0 1 -6.79.69c-22.83 0-53.77-21.3-78.06-54.54-22.2-30.39-33.56-63.12-29.64-85.41a7.975 7.975 0 0 1 4.55-5.88l10.69 15.88v.05c.3 17.77 10.63 43.07 27.32 65.92 11.49 15.73 25.12 29.18 38.37 37.86 11.87 7.79 22.88 11.36 30.21 9.79a7.856 7.856 0 0 1 3.09-.05l6.42 6.23a8 8 0 0 1 -6.16 9.46z" fill="#c36f53"/><path d="m425.82 431.93q-4.965-8.79-10.28-17.37c1.45-13.6-6.66-36.91-25.96-60.41-18.09-22.02-37.28-33.61-50.4-36.52-.82-.83-1.63-1.64-2.45-2.46l-11.74-10.59a8 8 0 0 1 6.36-3.66c20.62-.95 48.31 15.95 70.59 43.07 27.03 32.9 36.95 69.66 23.88 87.94z" fill="#c36f53"/><path d="m454.87 474.78a36.735 36.735 0 0 1 -4.31 3.05l-13.5-4.11a8.008 8.008 0 0 1 4.1-8.96 20.455 20.455 0 0 0 3.56-2.34c13.9-11.42 11.64-42.38-5.64-77.05a7.992 7.992 0 0 1 1.03-8.71q9.69 15.15 18.36 30.95l10.69 19.46c2.48 20.95-2.27 37.84-14.29 47.71z" fill="#c36f53"/><path d="m402.21 324.44a7.744 7.744 0 0 1 -3.36.76 7.935 7.935 0 0 1 -5.61-2.31c-17.92-17.67-37.43-31.14-54.94-37.93-15.38-5.97-28.32-6.47-36.69-1.47l-12.01-10.84a7.718 7.718 0 0 1 1.56-1.45c15.59-10.96 38.85-9.02 64.35 3.88l.01.01 22.62 21.94q12.495 13.305 24.07 27.41z" fill="#c36f53"/><path d="m100.521 244.062 6.13 4.8a8 8 0 0 0 12.374-3.36l12.623-31.963a177.727 177.727 0 0 1 39.562-60.252l11.4 16.925a418.334 418.334 0 0 0 66.72 76.888l81.891 73.876a535.607 535.607 0 0 1 93.783 126l2.711 27.12a8 8 0 0 0 5.633 6.859l27.6 8.391a8 8 0 0 0 7.4-1.471l24.728-20.311a8 8 0 0 0 1.935-10.034l-29.533-53.767q-2.226-4.055-4.523-8.067c-.055-.1-.107-.192-.165-.284a552.385 552.385 0 0 0 -76.82-103.86q-.127-.135-.261-.264l-93.016-90.247a402.838 402.838 0 0 1 -53.511-63.975l-15.765-23.41a67.845 67.845 0 0 1 13.822-4.8 8 8 0 0 0 3.3-1.618l18.548-15.238a8 8 0 0 0 1.98-9.948 210.9 210.9 0 0 0 -52.767-64.243 8 8 0 0 0 -10.144.009l-18.546 15.232a7.993 7.993 0 0 0 -2.229 2.924 68.131 68.131 0 0 1 -18.881 24.768l-29.984 24.627a176.155 176.155 0 0 1 -65.322 33.882l-38.056 10.508a8 8 0 0 0 -5.1 11.138 288.925 288.925 0 0 0 82.483 103.165zm257.587 81.8c9.91 6.09 20.879 15.395 31.47 28.29 12.172 14.821 19.778 29.459 23.438 41.639a551.213 551.213 0 0 0 -54.908-69.934zm111.435 118.532 8.249 15.018-16.292 13.379-3.38-1.028c6.528-6.835 10.349-16.146 11.423-27.369zm-22.769-41.261c10.159 27.741 9.407 49.875-2.04 59.275a20.575 20.575 0 0 1 -1.967 1.412l-2-20.018a8 8 0 0 0 -.914-2.993l-.076-.14q-4.719-8.842-9.751-17.492c5.934-19.93-4.9-50.958-28.084-79.184-21.674-26.391-48.484-43.1-68.9-43.1-.067 0-.133 0-.2 0l-22.658-20.44c17.183-2.836 43.393 8.247 69.649 30.252a536.378 536.378 0 0 1 66.941 92.428zm-222.863-257.133a418.743 418.743 0 0 0 55.643 66.52l28.262 27.421c-6.308-1.171-13.827-4.473-21.736-9.659-13.25-8.689-26.878-22.138-38.372-37.867-11.322-15.5-19.714-32.126-24.036-46.77zm10.879 55.854c24.289 33.246 55.23 54.546 78.059 54.546a32.406 32.406 0 0 0 6.792-.691 7.972 7.972 0 0 0 3.029-1.358l13.2 12.811c-15.078-4.412-28.613-4.213-39.38.935l-36.447-32.88a402.294 402.294 0 0 1 -64.167-73.944l-12.719-18.886c.284-.236.559-.482.845-.717l20.398-16.744c-.276 21.657 10.856 50.197 30.39 76.93zm-98.12-104.121 29.984-24.627a84.247 84.247 0 0 0 22.532-28.858l11.973-9.834a194.65 194.65 0 0 1 40.62 49.457l-11.973 9.834a84.25 84.25 0 0 0 -32.685 16.495l-23.269 19.11a193.708 193.708 0 0 0 -53.331 69.562 270.113 270.113 0 0 1 -52.621-64.907 191.964 191.964 0 0 0 68.77-36.232zm-84.686 40.66a286.21 286.21 0 0 0 62.079 76.118l-5.976 15.132a273.083 273.083 0 0 1 -71.346-87.043z"/></g></svg>