<svg height="512" viewBox="0 0 512 512" width="512" xmlns="http://www.w3.org/2000/svg"><g id="filled_outline" data-name="filled outline"><path d="m408 448a72 72 0 0 0 72-72v-248h-168l.056 22.1.123.248a225.987 225.987 0 0 1 23.86 101.141l-.039 124.511a72 72 0 0 0 72 72z" fill="#007af6"/><path d="m90 400h-58v-272h168v24l-2.463 4.926a204.007 204.007 0 0 0 -21.537 91.232v65.842a86 86 0 0 1 -86 86z" fill="#007af6"/><path d="m24 80h176v48h-176z" fill="#0083f7" transform="matrix(-1 0 0 -1 224 208)"/><path d="m136 80h32v48h-32z" fill="#009cf7" transform="matrix(-1 0 0 -1 304 208)"/><path d="m56 80h32v48h-32z" fill="#009cf7" transform="matrix(-1 0 0 -1 144 208)"/><path d="m32 272h144a0 0 0 0 1 0 0v42a86 86 0 0 1 -86 86h-58a0 0 0 0 1 0 0v-128a0 0 0 0 1 0 0z" fill="#007af6"/><path d="m32 240h144v32h-144z" fill="#0a71cd"/><path d="m56 296h16v16h-16z" fill="#0a71cd"/><path d="m56 328h16v16h-16z" fill="#0a71cd"/><path d="m56 360h16v16h-16z" fill="#0a71cd"/><path d="m144 196.662a40 40 0 0 0 -24-36.662v20.662a16 16 0 1 1 -32 0v-20.662a40 40 0 0 0 -8 68.663v43.337h48v-43.337a39.939 39.939 0 0 0 16-32.001z" fill="#c1e3f7"/><path d="m32 128h168v12h-168z" fill="#0a71cd"/><rect fill="#afcee0" height="88" rx="6" width="112" x="200" y="64"/><path d="m312 80h176v48h-176z" fill="#0083f7"/><path d="m344 80h32v48h-32z" fill="#009cf7"/><path d="m424 80h32v48h-32z" fill="#009cf7"/><path d="m232 64 8 24h32l8-24z" fill="#a2becf"/><path d="m232 152 8-24h32l8 24z" fill="#a2becf"/><path d="m408 272a72 72 0 0 1 72 72v104a0 0 0 0 1 0 0h-144a0 0 0 0 1 0 0v-104a72 72 0 0 1 72-72z" fill="#007af6" transform="matrix(-1 0 0 -1 816 720)"/><path d="m456 392v37.66a71.713 71.713 0 0 1 -16 10.85v-48.51z" fill="#007af6"/><path d="m408 224h72v48h-72z" fill="#009cf7"/><path d="m456 224h-32v-48l16-16 16 16z" fill="#c1e3f7"/><path d="m392 184-8 32h-24l-8-32v-24h40z" fill="#afcee0"/><path d="m352 160h40v24h-40z" fill="#c1e3f7"/><g fill="#0a71cd"><path d="m440 296h16v16h-16z"/><path d="m440 328h16v16h-16z"/><path d="m440 360h16v16h-16z"/><path d="m456 392v37.66a71.713 71.713 0 0 1 -16 10.85v-48.51z"/><path d="m336.039 251.486h71.961v20.514h-71.961z"/></g><path d="m360 216h24v56h-24z" fill="#a2becf"/><path d="m46.205 80h9.795v48h-9.795z" fill="#0a71cd"/><path d="m126.102 80h9.795v48h-9.795z" fill="#0a71cd"/><path d="m190.154 80h9.795v48h-9.795z" fill="#0a71cd"/><path d="m336.102 80h9.795v48h-9.795z" fill="#0a71cd"/><path d="m414.205 80h9.795v48h-9.795z" fill="#0a71cd"/><path d="m488 72h-168v-2a14.015 14.015 0 0 0 -14-14h-100a14.015 14.015 0 0 0 -14 14v2h-168a8 8 0 0 0 -8 8v48a8 8 0 0 0 8 8v264a8 8 0 0 0 8 8h58q1.215 0 2.422-.031a94.172 94.172 0 0 0 89.665-75.049q.47-2.292.828-4.624t.6-4.7a94.812 94.812 0 0 0 .485-9.596v-65.842a196.993 196.993 0 0 1 20.692-87.653l.278-.557c.342.025 102.29-.006 102.905-.089a219.2 219.2 0 0 1 20.164 91.623l-.039 124.518a80 80 0 0 0 160 0v-240a8 8 0 0 0 8-8v-48a8 8 0 0 0 -8-8zm-344 16h16v32h-16zm-48 0h32v32h-32zm-32 0h16v32h-16zm-32 0h16v32h-16zm8 160h32v16h-32zm128 66a78.088 78.088 0 0 1 -78 78h-50v-112h128zm-64-109.338a24.027 24.027 0 0 0 24-24v-5.162a32 32 0 0 1 -4.805 46.767 8 8 0 0 0 -3.195 6.4v3.333h-32v-3.338a8 8 0 0 0 -3.195-6.4 32 32 0 0 1 -4.805-46.762v5.163a24.027 24.027 0 0 0 24 23.999zm16 43.338v16h-32v-16zm48 .158v15.842h-32v-16h32zm24-98.047-1.619 3.238a213.217 213.217 0 0 0 -21.735 78.651h-32.174a47.991 47.991 0 0 0 -13.272-79.33 8 8 0 0 0 -11.2 7.33v20.662a8 8 0 1 1 -16 0v-20.662a8 8 0 0 0 -11.2-7.33 47.991 47.991 0 0 0 -13.272 79.33h-31.528v-96h152zm0-30.111h-16v-32h16zm76.9-48-2.666 8h-20.468l-2.666-8zm-25.8 72 2.666-8h20.468l2.666 8zm60.9 0h-18.234l-6.177-18.53a8 8 0 0 0 -7.589-5.47h-32a8 8 0 0 0 -7.589 5.47l-6.177 18.53h-18.234v-72h18.234l6.177 18.53a8 8 0 0 0 7.589 5.47h32a8 8 0 0 0 7.589-5.47l6.177-18.53h18.234zm128-56h16v32h-16zm-48 0h32v32h-32zm-32 0h16v32h-16zm-32 0h16v32h-16zm152 288a63.718 63.718 0 0 1 -16 42.264v-26.264h-16v39.39a63.954 63.954 0 0 1 -96-55.39l.03-96h127.97zm-105.754-168-4-16h19.508l-4 16zm9.754 16v40h-8v-40zm-16-48v-8h24v8zm112 88h-56v-32h56zm-40-48v-36.687l8-8 8 8v36.687zm40 0h-8v-40a8 8 0 0 0 -2.343-5.657l-16-16a8 8 0 0 0 -11.314 0l-16 16a8 8 0 0 0 -2.343 5.657v40h-8a8 8 0 0 0 -8 8v40h-8v-47.015l7.761-31.045c.01-.037.013-.076.021-.114.052-.221.093-.446.126-.673.011-.08.027-.159.036-.239a8.1 8.1 0 0 0 .056-.914v-24a8 8 0 0 0 -8-8h-40a8 8 0 0 0 -8 8v24a8.1 8.1 0 0 0 .056.914c.009.08.025.159.036.239.033.227.074.452.126.673.008.038.011.077.021.114l7.761 31.045v47.015h-7.965v-12.512a235.215 235.215 0 0 0 -23.988-103.276l-.027-12.212h151.98zm8-96h-16v-32h16z"/><path d="m440 296h16v16h-16z"/><path d="m440 328h16v16h-16z"/><path d="m440 360h16v16h-16z"/><path d="m56 296h16v16h-16z"/><path d="m56 328h16v16h-16z"/><path d="m56 360h16v16h-16z"/></g></svg>