<svg height="512" viewBox="0 0 512 512" width="512" xmlns="http://www.w3.org/2000/svg"><g id="filled_outline" data-name="filled outline"><path d="m134.696 211.507h176v32h-176z" fill="#c3c3c3" transform="matrix(.707 -.707 .707 .707 -95.646 224.105)"/><path d="m154.814 272.762 113.137-113.137-101.823-101.823-22.628 22.627 45.255 45.255-62.225-28.284-73.539 73.539z" fill="#eaeae8"/><path d="m426.343 431.154-5.27.479a89 89 0 0 1 -85.329-44.477 150.009 150.009 0 0 0 -44.855-48.908l-1.442-1a107.331 107.331 0 0 0 -95.035-13.576l-22.627-22.628 124.45-124.444 22.628 22.627a107.334 107.334 0 0 0 13.576 95.035l1 1.441a149.987 149.987 0 0 0 48.908 44.855 89 89 0 0 1 44.477 85.33z" fill="#c36f53"/><path d="m427.19 417.79q0 4.02-.37 8.09l-.19 2.06a47.578 47.578 0 0 1 -28.57-13.76 48.423 48.423 0 0 1 -6.11-7.46 8 8 0 0 1 13.35-8.83 31.961 31.961 0 0 0 21.69 13.94c.13 1.98.2 3.96.2 5.96z" fill="#c36f53"/><path d="m280 309.077a7.989 7.989 0 0 1 -2.936-.561 99.552 99.552 0 0 0 -15.478-4.7 8 8 0 1 1 3.385-15.638 115.622 115.622 0 0 1 17.969 5.453 8 8 0 0 1 -2.94 15.446z" fill="#f48b68"/><path d="m335.433 352a7.984 7.984 0 0 1 -6.283-3.041 141.875 141.875 0 0 0 -30.6-28.729l-1.441-1a8 8 0 1 1 9.106-13.156l1.441 1a157.87 157.87 0 0 1 34.049 31.967 8 8 0 0 1 -6.272 12.959z" fill="#f48b68"/><circle cx="394.523" cy="399.334" fill="#975640" r="13"/><path d="m154.814 167.625a7.978 7.978 0 0 1 -5.657-2.343l-45.257-45.255a8 8 0 0 1 11.315-11.314l45.255 45.255a8 8 0 0 1 -5.658 13.657z" fill="#c3c3c3"/><path d="m132.187 190.252a7.978 7.978 0 0 1 -5.658-2.343l-45.255-45.255a8 8 0 0 1 11.315-11.313l45.255 45.259a8 8 0 0 1 -5.657 13.656z" fill="#c3c3c3"/><path d="m136 233.8a24 24 0 0 0 -24-24h-16v-12a28 28 0 0 0 -28-28 28 28 0 0 0 -28 28v67.554a16.3 16.3 0 0 0 14.711 16.396 15.911 15.911 0 0 0 9.289-2.106v34.156a32 32 0 0 0 32 32 31.845 31.845 0 0 0 16-4.292v19.751c0 13.455 11.011 24.791 24.464 24.536a24 24 0 0 0 23.536-23.995v-104a24 24 0 0 0 -24-24z" fill="#0083f7"/><g fill="#0094f6"><path d="m64 289.8a8 8 0 0 1 -8-8v-48a8 8 0 0 1 16 0v48a8 8 0 0 1 -8 8z"/><path d="m112 349.51a8 8 0 0 1 -8-8v-35.71a8 8 0 0 1 16 0v35.71a8 8 0 0 1 -8 8z"/><path d="m112 289.8a8 8 0 0 1 -8-8v-16a8 8 0 0 1 16 0v16a8 8 0 0 1 -8 8z"/></g><path d="m480 380.24a48 48 0 0 1 -81.94 33.94 48.423 48.423 0 0 1 -6.11-7.46 8 8 0 0 1 13.35-8.83 31.961 31.961 0 0 0 21.69 13.94 32 32 0 1 0 -17.62-54.22c-.07.07-.13.14-.2.2l-2.9 2.7a88.392 88.392 0 0 0 -11.36-11.28l3.26-3.03a48 48 0 0 1 81.83 34.04z" fill="#0045c7"/><path d="m427.067 439.121a8 8 0 0 0 7.243-7.242l.337-3.714a48 48 0 1 0 -33.834-84.4 96.423 96.423 0 0 0 -14.5-10.16 142.869 142.869 0 0 1 -46.3-42.463l-1-1.441a99.8 99.8 0 0 1 -12.564-87.951 8 8 0 0 0 -1.932-8.187l-45.255-45.254a8 8 0 0 0 -11.315 0l-96.162-96.164a8 8 0 0 0 -11.314 0l-22.628 22.627a8 8 0 0 0 0 11.314l14.057 14.058-22.06-10.027a8 8 0 0 0 -8.968 1.626l-73.538 73.539a7.963 7.963 0 0 0 -2.3 4.816 35.943 35.943 0 0 0 -13.034 27.702v67.554c0 12.68 9.7 23.384 22.076 24.369q.965.077 1.924.076v24a39.992 39.992 0 0 0 48 39.19v8.269a32.973 32.973 0 0 0 9.849 23.383 31.473 31.473 0 0 0 22.164 9.158c.2 0 .4 0 .6-.006a32.159 32.159 0 0 0 31.387-31.993v-53.225l20.755 20.756a8 8 0 0 0 8.187 1.932 99.81 99.81 0 0 1 87.952 12.564l1.441 1a142.85 142.85 0 0 1 42.462 46.3 97.268 97.268 0 0 0 84.266 48.873q4.349 0 8.735-.4zm27.56-81.506a31.981 31.981 0 0 1 -19.627 54.47 97.4 97.4 0 0 0 -22.844-56.942 32.041 32.041 0 0 1 42.471 2.472zm-302.627 4.185a16.077 16.077 0 0 1 -15.688 16 15.513 15.513 0 0 1 -11.257-4.575 16.88 16.88 0 0 1 -5.055-11.964v-55.461a8 8 0 0 0 -16 0v30.617a23.975 23.975 0 0 1 -32-22.617v-80a8 8 0 0 0 -16 0v39.977c-.218 0-.433.014-.654 0a8.283 8.283 0 0 1 -7.346-8.421v-67.556a20 20 0 0 1 40 0v12a8 8 0 0 0 8 8h16a16.018 16.018 0 0 1 16 16 8 8 0 0 0 8 8 16.018 16.018 0 0 1 16 16zm14.874-112.414a32.117 32.117 0 0 0 -23.687-22.773 32.059 32.059 0 0 0 -31.187-24.813h-8v-4a36.049 36.049 0 0 0 -30.923-35.635l13.855-13.855 39.6 39.6a8 8 0 0 0 11.312-11.31l-39.598-39.6 11.313-11.314 39.6 39.6a8 8 0 0 0 11.315-11.314l-39.6-39.6 7.394-7.393 57.177 25.989a8 8 0 0 0 8.968-12.939l-39.6-39.6 11.315-11.314 90.51 90.51zm1.126 36.562v-15.058l105.608-105.608 11.314 11.318-113.137 113.133zm241.372 116.921c-.678-.678-1.319-1.389-1.933-2.121a13 13 0 1 0 -11.239 11.464c.6.673 1.217 1.333 1.856 1.971a47.964 47.964 0 0 0 14.138 9.8 81.226 81.226 0 0 1 -69.508-40.794 158.94 158.94 0 0 0 -47.247-51.516l-1.441-1a115.891 115.891 0 0 0 -97.341-16.064l-13.557-13.562 113.135-113.138 13.565 13.562a115.938 115.938 0 0 0 16.065 97.341l1 1.441a158.967 158.967 0 0 0 51.512 47.247 81.234 81.234 0 0 1 40.359 61.86 31.84 31.84 0 0 1 -9.364-6.491z"/><path d="m282.938 293.634a115.622 115.622 0 0 0 -17.969-5.453 8 8 0 1 0 -3.385 15.638 99.552 99.552 0 0 1 15.478 4.7 8 8 0 0 0 5.876-14.882z"/><path d="m307.656 307.074-1.441-1a8 8 0 1 0 -9.106 13.156l1.441 1a141.875 141.875 0 0 1 30.6 28.729 8 8 0 0 0 12.555-9.918 157.87 157.87 0 0 0 -34.049-31.967z"/><path d="m112 257.8a8 8 0 0 0 -8 8v16a8 8 0 0 0 16 0v-16a8 8 0 0 0 -8-8z"/></g></svg>