<svg height="512" viewBox="0 0 512 512" width="512" xmlns="http://www.w3.org/2000/svg"><g id="filled_outline" data-name="filled outline"><path d="m456 184a8 8 0 0 1 0-16 24.028 24.028 0 0 0 24-24v-8a24.028 24.028 0 0 0 -24-24h-48a8 8 0 0 1 0-16h48a40.045 40.045 0 0 1 40 40v8a40.045 40.045 0 0 1 -40 40z" fill="#c1e3f7"/><path d="m336 232-22.9 45.794a162.006 162.006 0 0 0 -17.1 72.449v65.757a32 32 0 0 0 32-32v-16.825a162 162 0 0 1 25.327-86.975l30.673-48.2z" fill="#0a71cd"/><path d="m328 152h128v48h-12a20 20 0 0 0 -20 20v44h-40l-16-32h-40z" fill="#007af6"/><path d="m424 416a32 32 0 0 1 -32-32v-19.351a77.956 77.956 0 0 0 -4-24.649 77.956 77.956 0 0 1 -4-24.649v-51.351h40z" fill="#0a71cd"/><path d="m56 128h272v48h-272z" fill="#a2becf"/><path d="m56 192-32-8v-16l32-8z" fill="#007af6"/><path d="m56 128h32v48h-32z" fill="#c1e3f7"/><path d="m328 152-32 24v-48h32z" fill="#c1e3f7"/><circle cx="392" cy="200" fill="#0a71cd" r="8"/><path d="m328 224h-24l-16-16h-192l-16 16h-24v-48h232l16-24h24z" fill="#0a71cd"/><path d="m456 96h-48a8 8 0 0 0 0 16h48a24.028 24.028 0 0 1 24 24v8a24.039 24.039 0 0 1 -16 22.624v-14.624a8 8 0 0 0 -8-8h-120v-16a8 8 0 0 0 -8-8h-272a8 8 0 0 0 -8 8v25.754l-25.94 6.485a8 8 0 0 0 -6.06 7.761v16a8 8 0 0 0 6.06 7.761l25.94 6.485v25.754a8 8 0 0 0 8 8h24a8 8 0 0 0 5.657-2.343l13.656-13.657h185.374l13.656 13.657a8 8 0 0 0 5.657 2.343h16a7.988 7.988 0 0 0 3.689 6.732l-17.742 35.485a170.867 170.867 0 0 0 -17.947 76.026v65.757a8 8 0 0 0 8 8 40.045 40.045 0 0 0 40-40v-16.825a153.754 153.754 0 0 1 24.076-82.68l14.124-22.195 1.8 3.594v49.462a85.813 85.813 0 0 0 4.41 27.179 69.811 69.811 0 0 1 3.59 22.114v19.351a40.045 40.045 0 0 0 40 40 8 8 0 0 0 8-8v-196a12.013 12.013 0 0 1 12-12h12a8 8 0 0 0 8-8v-16.8a40.068 40.068 0 0 0 32-39.2v-8a40.045 40.045 0 0 0 -40-40zm-136 48h-16v-8h16zm-32 17.578-4.281 6.422h-187.719v-32h192zm-224-25.578h16v32h-16zm-32 41.754v-3.508l16-4v11.508zm275.313 38.246-13.656-13.657a8 8 0 0 0 -5.657-2.343h-192a8 8 0 0 0 -5.657 2.343l-13.656 13.657h-12.687v-32h224a8 8 0 0 0 6.656-3.562l13.625-20.438h11.719v56zm39.265 59.9a169.725 169.725 0 0 0 -26.578 91.275v16.825a24.042 24.042 0 0 1 -16 22.629v-56.386a154.79 154.79 0 0 1 16.258-68.871l20.686-41.372h22.112l2.8 5.607zm69.422 130.729a24.042 24.042 0 0 1 -16-22.629v-19.351a85.813 85.813 0 0 0 -4.41-27.179 69.811 69.811 0 0 1 -3.59-22.119v-43.351h24zm32-214.629h-4a28.032 28.032 0 0 0 -28 28v36h-27.056l-13.789-27.578a8 8 0 0 0 -7.155-4.422h-32v-64h112z"/><circle cx="392" cy="200" r="8"/></g></svg>