<svg height="512" viewBox="0 0 512 512" width="512" xmlns="http://www.w3.org/2000/svg"><g id="filled_outline" data-name="filled outline"><path d="m296 328h48v64h-48z" fill="#0a71cd"/><path d="m304 392h32v48h-32z" fill="#c1e3f7"/><path d="m296 440h48v48h-48z" fill="#c1e3f7"/><path d="m344 448h32v32h-32z" fill="#afcee0"/><path d="m384 440h24v48h-24a8 8 0 0 1 -8-8v-32a8 8 0 0 1 8-8z" fill="#c1e3f7"/><path d="m264 448h32v32h-32z" fill="#afcee0" transform="matrix(-1 0 0 -1 560 928)"/><path d="m256 440h-24v48h24a8 8 0 0 0 8-8v-32a8 8 0 0 0 -8-8z" fill="#c1e3f7"/><path d="m304 280h32v48h-32z" fill="#c1e3f7"/><path d="m336 288v16.95l-28.42 14.21a8.021 8.021 0 0 1 -3.57.84h-.01v-16.95l28.42-14.21a8.032 8.032 0 0 1 3.58-.84z" fill="#0081b2"/><path d="m336 288v16.95l-28.42 14.21a8.021 8.021 0 0 1 -3.57.84h-.01v-16.95l28.42-14.21a8.032 8.032 0 0 1 3.58-.84z" fill="#afcee0"/><path d="m288 224h64v32h-64z" fill="#c1e3f7"/><path d="m304 280-16-24h64l-16 24z" fill="#afcee0"/><path d="m344 112v-27.483a44 44 0 0 0 -35.891-43.247l-92.109-17.27h-10.393a101.607 101.607 0 0 0 -98.027 74.872 101.62 101.62 0 0 0 -3.58 26.735v188.786a101.62 101.62 0 0 0 3.58 26.735 101.607 101.607 0 0 0 98.027 74.872 70.823 70.823 0 0 0 20.348-2.986l70.045-21.014v-64h-96v-216z" fill="#0c82ed"/><path d="m296 368h-112a24.028 24.028 0 0 1 -24-24v-248a24.028 24.028 0 0 1 24-24h96a24.028 24.028 0 0 1 24 24v16a8 8 0 0 1 -16 0v-16a8.009 8.009 0 0 0 -8-8h-96a8.009 8.009 0 0 0 -8 8v248a8.009 8.009 0 0 0 8 8h112a8 8 0 0 1 0 16z" fill="#0a71cd"/><path d="m272 144h96v24h-96z" fill="#c1e3f7"/><path d="m321.62 144-16 24h-17.62a7.985 7.985 0 0 1 1.34-4.44l13.04-19.56z" fill="#00abed"/><path d="m353.62 144-16 24h-17.62a7.985 7.985 0 0 1 1.34-4.44l13.04-19.56z" fill="#00abed"/><path d="m323 141.93-17.38 26.07h-17.62a7.985 7.985 0 0 1 1.34-4.44l13.04-19.56 7.3-10.95a8 8 0 0 1 13.32 8.88z" fill="#afcee0"/><path d="m355 141.93-17.38 26.07h-17.62a7.985 7.985 0 0 1 1.34-4.44l13.04-19.56 7.3-10.95a8 8 0 0 1 13.32 8.88z" fill="#afcee0"/><path d="m272 112h96v32h-96z" fill="#0a71cd"/><path d="m336 400v16.95l-28.42 14.21a8.021 8.021 0 0 1 -3.57.84h-.01v-16.95l28.42-14.21a8.032 8.032 0 0 1 3.58-.84z" fill="#afcee0"/><path d="m408 432h-24a16 16 0 0 0 -13.835 8h-18.165a8 8 0 0 0 -8-8v-32a8 8 0 0 0 8-8v-64a8 8 0 0 0 -8-8v-37.578l14.625-21.938.018-.026.013-.02.008-.014a7.963 7.963 0 0 0 1.336-4.424v-32a8 8 0 0 0 -8-8h-64a8 8 0 0 0 -8 8v32a7.963 7.963 0 0 0 1.336 4.424l.008.014.013.02.018.026 14.625 21.938v37.578h-88v-200h56v48a8 8 0 0 0 8 8h96a8 8 0 0 0 8-8v-56a8 8 0 0 0 -8-8h-16v-19.483a52.029 52.029 0 0 0 -42.417-51.11l-92.108-17.27a8.033 8.033 0 0 0 -1.475-.137h-10.393a109.607 109.607 0 0 0 -109.607 109.607v188.786a109.606 109.606 0 0 0 109.607 109.607 78.746 78.746 0 0 0 22.647-3.324l67.746-20.323v31.647a8 8 0 0 0 -8 8h-18.165a16 16 0 0 0 -13.835-8h-24a8 8 0 0 0 -8 8v48a8 8 0 0 0 8 8h24a16 16 0 0 0 13.835-8h18.165a8 8 0 0 0 8 8h48a8 8 0 0 0 8-8h18.165a16 16 0 0 0 13.835 8h24a8 8 0 0 0 8-8v-48a8 8 0 0 0 -8-8zm-76.281-160h-23.438l-5.333-8h34.1zm-19.719 16h16v3.056l-16 8zm24 48v48h-32v-48zm-24 92.944 16-8v11.056h-16zm16-25.888-16 8v-11.056h16zm-16-83.056v-3.056l16-8v11.056zm-16-88h48v16h-48zm-96-128a8 8 0 0 0 -8 8v216a8 8 0 0 0 8 8h88v16h-104a8.009 8.009 0 0 1 -8-8v-248a8.009 8.009 0 0 1 8-8h96a8.009 8.009 0 0 1 8 8v8zm110.948 56 5.333-8h12.771l-5.333 8zm-30.948-8h17.052l-5.333 8h-11.719zm80 8h-17.052l5.333-8h11.719zm0-24h-80v-16h80zm-136.344 269.351a62.793 62.793 0 0 1 -18.049 2.649 93.605 93.605 0 0 1 -93.607-93.607v-188.786a93.606 93.606 0 0 1 93.607-93.607h9.649l91.378 17.134a36.019 36.019 0 0 1 29.366 35.383v19.483h-32v-8a24.028 24.028 0 0 0 -24-24h-96a24.028 24.028 0 0 0 -24 24v248a24.028 24.028 0 0 0 24 24h104v18.048zm16.344 74.649v-32h16v32zm32-8v-16h16v16zm32 8v-32h32v32zm48-24h16v16h-16zm48 24h-16v-32h16z"/></g></svg>