<svg height="512" viewBox="0 0 512 512" width="512" xmlns="http://www.w3.org/2000/svg"><g id="filled_outline" data-name="filled outline"><path d="m256 24h16l32 48v56l-32 8v-56l-16-8z" fill="#c5c5c3"/><path d="m280 152 16 8a182.119 182.119 0 0 0 16.762 76.318l10.03 21.732a230.415 230.415 0 0 1 21.208 96.558 230.438 230.438 0 0 1 -11.824 72.865l-17.276 51.827a12.723 12.723 0 0 1 -12.07 8.7 12.722 12.722 0 0 1 -12.575-14.657l11.066-71.927a230.508 230.508 0 0 0 2.679-35.037v-19.6a230.424 230.424 0 0 0 -15.358-82.715l-7.411-19.264a258.514 258.514 0 0 1 -17.231-92.8z" fill="#0a71cd"/><path d="m310.83 232h-34.14q-3.855-11.85-6.55-24h32.31a180.489 180.489 0 0 0 8.38 24z" fill="#0a71cd"/><path d="m232 152-16 8a182.119 182.119 0 0 1 -16.762 76.318l-10.03 21.732a230.415 230.415 0 0 0 -21.208 96.558 230.438 230.438 0 0 0 11.824 72.865l17.276 51.827a12.723 12.723 0 0 0 12.07 8.7 12.722 12.722 0 0 0 12.575-14.657l-11.066-71.927a230.508 230.508 0 0 1 -2.679-35.037v-19.6a230.424 230.424 0 0 1 15.358-82.715l7.411-19.267a258.514 258.514 0 0 0 17.231-92.797z" fill="#0c82ed"/><path d="m241.86 208q-2.685 12.135-6.55 24h-34.14a180.489 180.489 0 0 0 8.38-24z" fill="#0c82ed"/><path d="m241.86 208q-2.685 12.135-6.55 24h-34.14a180.489 180.489 0 0 0 8.38-24z" fill="#009cf7"/><path d="m256 104a31.835 31.835 0 0 0 -16 4.292v-28.292l16-8v-48h-16l-32 48v56l16 8a32 32 0 1 0 32-32z" fill="#eaeae8"/><path d="m310.83 232h-34.14q-3.855-11.85-6.55-24h32.31a180.489 180.489 0 0 0 8.38 24z" fill="#007af6"/><path d="m304 96-48-24v-48h16l32 48z" fill="#b2b2b2"/><path d="m256 72v-48h-16l-32 48v24z" fill="#c5c5c3"/><path d="m293.413 400.2-11.065 71.926a20.723 20.723 0 0 0 40.141 9.7l17.277-51.826a237.975 237.975 0 0 0 12.234-75.392 240.048 240.048 0 0 0 -21.944-99.908l-10.03-21.731a175.318 175.318 0 0 1 -16.026-72.969 8 8 0 0 0 -4.422-7.155l-6.042-3.022a39.749 39.749 0 0 0 2.4-11.56l10.008-2.5a8 8 0 0 0 6.056-7.763v-56a8 8 0 0 0 -1.344-4.438l-32-48a8 8 0 0 0 -6.656-3.562h-32a8 8 0 0 0 -6.656 3.562l-32 48a8 8 0 0 0 -1.344 4.438v56a8 8 0 0 0 4.422 7.155l11.9 5.951a39.68 39.68 0 0 0 2.141 8.717l-6.043 3.022a8 8 0 0 0 -4.42 7.155 175.318 175.318 0 0 1 -16.026 72.966l-10.03 21.734a238.424 238.424 0 0 0 -9.71 175.3l17.277 51.828a20.723 20.723 0 0 0 40.141-9.7l-11.065-71.928a222.988 222.988 0 0 1 -2.587-33.821v-19.6a221.584 221.584 0 0 1 14.825-79.843l7.41-19.267a266.138 266.138 0 0 0 16.673-71.7c.363.01.726.026 1.092.026s.728-.018 1.092-.028a266.127 266.127 0 0 0 16.673 71.7l7.41 19.268a221.584 221.584 0 0 1 14.825 79.848v19.6a223.011 223.011 0 0 1 -2.587 33.817zm2.587-278.446-2.4.6a40.188 40.188 0 0 0 -13.6-18.333v-11.077l16 8zm-32-89.754h3.719l28.281 42.422v8.634l-20.422-10.211-11.578-5.789zm0 52.944v11.861a40.032 40.032 0 0 0 -16 0v-11.861l8-4zm-48-10.522 28.281-42.422h3.719v35.056l-11.578 5.789-20.422 10.211zm7.3 167.507-7.41 19.267a237.521 237.521 0 0 0 -15.89 85.587v19.6a239.212 239.212 0 0 0 2.772 36.253l11.066 71.927a4.723 4.723 0 0 1 -9.148 2.212l-17.276-51.828a222.414 222.414 0 0 1 9.058-163.547l9.95-21.559a8.035 8.035 0 0 0 1.578.159h16.023c-.241.643-.475 1.288-.723 1.929zm6.13-17.929h-16.556q1.417-3.981 2.663-8.023c.154.008.307.023.463.023h15.68c-.708 2.677-1.452 5.345-2.25 8zm5.926-24h-15.656a190.924 190.924 0 0 0 4.235-35.022l3.016-1.509a40.185 40.185 0 0 0 12.229 8.809 250.413 250.413 0 0 1 -3.824 27.722zm20.644-40a24.027 24.027 0 0 1 -24-24 8 8 0 0 0 -4.422-7.155l-11.578-5.789v-22.112l16-8v15.348a8 8 0 0 0 12.007 6.924 24 24 0 1 1 11.993 44.784zm16.821 12.278a40.169 40.169 0 0 0 12.219-8.814l3.026 1.514a190.924 190.924 0 0 0 4.234 35.022h-15.656a250.413 250.413 0 0 1 -3.823-27.722zm7.499 43.722h15.68c.156 0 .309-.015.463-.023q1.242 4.042 2.663 8.023h-16.556q-1.195-3.981-2.25-8zm8.378 25.929c-.246-.641-.479-1.286-.721-1.929h16.023a8.035 8.035 0 0 0 1.578-.157l9.95 21.559a223.933 223.933 0 0 1 20.472 93.206 221.988 221.988 0 0 1 -11.414 70.335l-17.276 51.828a4.717 4.717 0 0 1 -4.48 3.229 4.723 4.723 0 0 1 -4.668-5.441l11.066-71.926a239.235 239.235 0 0 0 2.772-36.254v-19.6a237.511 237.511 0 0 0 -15.892-85.579z"/></g></svg>