<svg height="512" viewBox="0 0 512 512" width="512" xmlns="http://www.w3.org/2000/svg"><g id="filled_outline" data-name="filled outline"><path d="m353.026 455.012-16.533-16.534a390 390 0 0 1 -48.728-59.438l-.106-.159a432.05 432.05 0 0 0 -53.975-65.839l-43.292-43.292-11.314-56.568 45.255-45.255 56.567 11.314 189.5 189.5a36 36 0 0 1 0 50.912l-35.355 35.355a58 58 0 0 1 -82.019.004z" fill="#0c82ed"/><path d="m470.42 419.65-35.37 35.36a57.53 57.53 0 0 1 -7.68 6.46l-55.96-55.96 45.1-45.1-11.16-11.46 22.63-22.63 42.43 42.43a35.993 35.993 0 0 1 .01 50.9z" fill="#0c82ed"/><path d="m371.411 405.515-339.411-339.412 73.539-16.97 311.127 311.127z" fill="#c1e3f7"/><g fill="#afcee0"><path d="m88.569 122.672 73.539-16.971-28.285-28.284-73.539 16.971z"/><path d="m145.137 179.241 73.539-16.971-28.284-28.284-73.539 16.97z"/><path d="m201.706 235.809 73.539-16.97-28.285-28.285-73.539 16.971z"/><path d="m303.529 247.123-73.539 16.97 141.421 141.422 45.255-45.255z"/></g><circle cx="326.156" cy="315.005" fill="#0a6bc3" r="35.878"/><path d="m470.42 419.65-35.37 35.36-7.07 7.07-.61-.61-55.96-55.96 45.1-45.1-11.16-11.46 22.63-22.63 42.43 42.43a35.993 35.993 0 0 1 .01 50.9z" fill="#0045c7"/><path d="m476.063 363.088-189.5-189.5a8 8 0 0 0 -4.088-2.188l-54.193-10.839-117.082-117.085a8 8 0 0 0 -7.456-2.138l-73.544 16.971a8 8 0 0 0 -3.857 13.451l145.365 145.365 10.839 54.194a8.008 8.008 0 0 0 2.188 4.088l43.292 43.293a424.994 424.994 0 0 1 52.973 64.619l.105.158a398.841 398.841 0 0 0 49.728 60.658l16.534 16.534a66.075 66.075 0 0 0 93.338 0l35.355-35.356a44.05 44.05 0 0 0 .003-62.225zm-4.743 40.512-54.654-54.655 11.314-11.314 36.77 36.77a28.035 28.035 0 0 1 6.57 29.199zm-99.909-9.4-39.6-39.6a40.013 40.013 0 0 0 33.941-33.941l39.6 39.6zm-125.558-125.557 55.154-12.729 19.508 19.508a39.914 39.914 0 0 0 -33.941 33.942zm-113.137-113.138 55.155-12.727 14.942 14.943-55.154 12.728zm-28.284-28.284 55.154-12.728 14.943 14.943-55.154 12.728zm-28.285-28.284 55.153-12.728 14.943 14.943-55.153 12.728zm140.008 72.125 14.945 14.943-55.155 12.728-14.945-14.943zm28.284 28.284 14.943 14.943-55.155 12.728-14.943-14.943zm28.284 28.284 14.943 14.943-55.155 12.727-14.942-14.943zm36.463 70.4a24 24 0 1 1 0 33.944 24.027 24.027 0 0 1 0-33.94zm-32.229-111.42 139.709 139.709-11.313 11.314-156.68-156.68zm-173.939-128.685 14.942 14.943-55.154 12.732-14.943-14.947zm255.665 391.43-16.534-16.533a382.93 382.93 0 0 1 -47.728-58.22l-.106-.158a441 441 0 0 0 -54.975-67.059l-41.578-41.579-5.657-28.284 222.182 222.178a50.073 50.073 0 0 1 -55.604-10.345zm69.261 1.379-45.219-45.219 33.941-33.941 45.255 45.254s-33.489 33.455-33.977 33.906z"/></g></svg>