<svg height="512" viewBox="0 0 512 512" width="512" xmlns="http://www.w3.org/2000/svg"><g id="filled_outline" data-name="filled outline"><path d="m192 160h-48l-32-16v-48l32-16h48z" fill="#007af6"/><path d="m192 112h-16a8 8 0 0 1 0-16h16a8 8 0 0 1 0 16z" fill="#0094f6"/><path d="m192 144h-16a8 8 0 0 1 0-16h16a8 8 0 0 1 0 16z" fill="#0094f6"/><path d="m112 128h-88a8 8 0 0 1 0-16h88a8 8 0 0 1 0 16z" fill="#007af6"/><path d="m488 168v-104l-40-16h-160l-24 8v128l24 8h32v99.539a94 94 0 0 1 -15.778 52.128l-.222.333h120l-.569-.569a79.992 79.992 0 0 1 -23.431-56.564v-78.867a24 24 0 0 1 24-24h.12a123.994 123.994 0 0 0 46.052-8.869z" fill="#007af6"/><path d="m280 344h144v32h-32v24h-32v-24h-96v-16a16 16 0 0 1 16-16z" fill="#0045c7"/><path d="m264 376h96v24h32v-24h32v64a16 16 0 0 1 -16 16h-128a16 16 0 0 1 -16-16z" fill="#0c82ed"/><path d="m360 368h32v32h-32z" fill="#009cf7"/><path d="m288 192v38a10 10 0 0 0 10 10h22v-48z" fill="#f48b68"/><path d="m424 152a8 8 0 0 1 -8-8v-32a8 8 0 0 1 16 0v32a8 8 0 0 1 -8 8z" fill="#0045c7"/><path d="m296 152a8 8 0 0 1 -8-8v-32a8 8 0 0 1 16 0v32a8 8 0 0 1 -8 8z" fill="#0045c7"/><path d="m456 152a8 8 0 0 1 -8-8v-32a8 8 0 0 1 16 0v32a8 8 0 0 1 -8 8z" fill="#0045c7"/><path d="m400 296h-32a16 16 0 0 1 -16-16v-64a16 16 0 0 1 16-16h32z" fill="#0045c7"/><path d="m400 240h-24a8 8 0 0 1 0-16h24a8 8 0 0 1 0 16z" fill="#007af6"/><path d="m400 272h-24a8 8 0 0 1 0-16h24a8 8 0 0 1 0 16z" fill="#007af6"/><path d="m296 48h144a0 0 0 0 1 0 0v20a12 12 0 0 1 -12 12h-120a12 12 0 0 1 -12-12v-20a0 0 0 0 1 0 0z" fill="#0045c7"/><path d="m328 112h64v32h-64z" fill="#0045c7"/><path d="m32.007 136a8 8 0 0 1 -4.445-14.657l24-16a8 8 0 1 1 8.875 13.312l-24 16a7.962 7.962 0 0 1 -4.43 1.345z" fill="#007af6"/><path d="m64.008 136a8 8 0 0 1 -4.445-14.657l24-16a8 8 0 1 1 8.875 13.312l-24 16a7.962 7.962 0 0 1 -4.43 1.345z" fill="#007af6"/><path d="m312 432h-16a8 8 0 0 1 0-16h16a8 8 0 0 1 0 16z" fill="#0045c7"/><path d="m352 432h-8a8 8 0 0 1 0-16h8a8 8 0 0 1 0 16z" fill="#0045c7"/><g fill="#0094f6"><path d="m144 160-32-16v-48l32-16z"/><path d="m192 80 32-16h40v112h-40l-32-16z"/><path d="m232 128h-40v-16h40a8 8 0 0 1 0 16z"/><path d="m239.76 153.94a8 8 0 0 1 -7.75 6.06 8.132 8.132 0 0 1 -1.95-.24l-38.06-9.52v-16.49l41.94 10.49a7.994 7.994 0 0 1 5.82 9.7z"/><path d="m233.94 95.76-41.94 10.49v-16.49l38.06-9.52a8 8 0 0 1 3.88 15.52z"/></g><path d="m239.76 153.94a8 8 0 0 1 -7.75 6.06 8.132 8.132 0 0 1 -1.95-.24l-38.06-9.52v-16.49l41.94 10.49a7.994 7.994 0 0 1 5.82 9.7z" fill="#0083f7"/><path d="m240 120a8 8 0 0 1 -8 8h-40v-16h40a8 8 0 0 1 8 8z" fill="#0083f7"/><path d="m233.94 95.76-41.94 10.49v-16.49l38.06-9.52a8 8 0 0 1 3.88 15.52z" fill="#0083f7"/><path d="m288 208h16v32h16v-48h-32z" fill="#c36f53"/><path d="m224 64h40v112h-40z" fill="#009cf7"/><path d="m490.971 56.572-40-16a8 8 0 0 0 -2.971-.572h-160a8 8 0 0 0 -2.53.411l-24 8a8 8 0 0 0 -5.47 7.589h-32a7.994 7.994 0 0 0 -3.578.845l-30.31 15.155h-46.112a7.994 7.994 0 0 0 -3.578.845l-32 16a8 8 0 0 0 -4.422 7.155v16h-8a8 8 0 0 0 -12.437-6.656l-9.985 6.656h-9.578a8 8 0 0 0 -12.437-6.656l-9.985 6.656h-17.578c-5.891 0-10.294 6.367-6.7 12.6a7.051 7.051 0 0 0 6.139 3.4h.561a8 8 0 0 0 12.436 6.656l9.986-6.656h9.578a8 8 0 0 0 12.436 6.656l9.986-6.656h25.578v16a8 8 0 0 0 4.422 7.155l32 16a7.994 7.994 0 0 0 3.578.845h46.112l30.31 15.155a7.994 7.994 0 0 0 3.578.845h32a8 8 0 0 0 5.47 7.589l18.53 6.177v32.234a18.021 18.021 0 0 0 18 18h14v43.539a85.694 85.694 0 0 1 -12.394 44.461h-19.606a24.028 24.028 0 0 0 -24 24v80a24.028 24.028 0 0 0 24 24h128a24.028 24.028 0 0 0 24-24v-96a7.976 7.976 0 0 0 -2.347-5.661l-.565-.565a71.516 71.516 0 0 1 -21.088-50.907v-78.867a16.019 16.019 0 0 1 16-16h.12a131.427 131.427 0 0 0 49.024-9.441l17.827-7.131a8 8 0 0 0 5.029-7.428v-104a8 8 0 0 0 -5.029-7.428zm-186.971-.572h128v12a4 4 0 0 1 -4 4h-120a4 4 0 0 1 -4-4zm-88 56h-16v-8a8.058 8.058 0 0 0 1.94-.241l14.06-3.513zm-16 16h16v11.754l-14.06-3.515a8.035 8.035 0 0 0 -1.94-.231zm16-51.056v6.81l-16 4v-2.81zm-32 19.056h-8a8 8 0 0 0 0 16h8v16h-8a8 8 0 0 0 0 16h8v8h-32v-64h32zm-48 51.056-16-8v-38.112l16-8zm64 5.19 16 4v6.81l-16-8zm32 15.754v-96h24v96zm66 64a2 2 0 0 1 -2-2v-30h16v32zm-26 128a8.009 8.009 0 0 1 8-8h136v16h-16a8 8 0 0 0 -8-8h-32a8 8 0 0 0 -8 8h-80zm96 16h16v16h-16zm48 64a8.009 8.009 0 0 1 -8 8h-128a8.009 8.009 0 0 1 -8-8v-56h80v16a8 8 0 0 0 8 8h32a8 8 0 0 0 8-8v-16h16zm64-277.416-12.8 5.12a115.517 115.517 0 0 1 -43.08 8.296h-.12a32.012 32.012 0 0 0 -27.695 16h-28.305a24.027 24.027 0 0 0 -24 24v64a24.027 24.027 0 0 0 24 24h25.668a86.959 86.959 0 0 0 13.3 32h-89.16a101.647 101.647 0 0 0 10.192-44.461v-99.539a8 8 0 0 0 -8-8h-30.7l-17.3-5.766v-116.468l16-5.333v11.567a20.023 20.023 0 0 0 20 20h120a20.023 20.023 0 0 0 20-20v-11.384l32 12.8zm-88 61.416h-16a8 8 0 0 0 0 16h16v16h-16a8 8 0 0 0 0 16h16v14.867c0 .379.016.755.021 1.133h-24.021a8.009 8.009 0 0 1 -8-8v-64a8.009 8.009 0 0 1 8-8h24z"/><path d="m424 104a8 8 0 0 0 -8 8v32a8 8 0 0 0 16 0v-32a8 8 0 0 0 -8-8z"/><path d="m296 104a8 8 0 0 0 -8 8v32a8 8 0 0 0 16 0v-32a8 8 0 0 0 -8-8z"/><path d="m448 112v32a8 8 0 0 0 16 0v-32a8 8 0 0 0 -16 0z"/><path d="m392 104h-64a8 8 0 0 0 -8 8v32a8 8 0 0 0 8 8h64a8 8 0 0 0 8-8v-32a8 8 0 0 0 -8-8zm-8 32h-48v-16h48z"/><path d="m312 416h-16a8 8 0 0 0 0 16h16a8 8 0 0 0 0-16z"/><path d="m352 416h-8a8 8 0 0 0 0 16h8a8 8 0 0 0 0-16z"/></g></svg>