<svg height="512" viewBox="0 0 512 512" width="512" xmlns="http://www.w3.org/2000/svg"><g id="filled_outline" data-name="filled outline"><path d="m423.842 484.862a48.012 48.012 0 0 1 -34.054-14.082l-104.54-104.54a28 28 0 0 0 -47 26.474 12.379 12.379 0 0 0 2.7 5.105l10.526 12.153a8 8 0 0 1 -12.094 10.474l-10.522-12.146a28.438 28.438 0 0 1 -6.15-11.784 44 44 0 0 1 73.854-41.585l104.538 104.535a32.158 32.158 0 0 0 45.749-45.2l-25.774-24.466a8 8 0 0 1 11.012-11.6l25.881 24.556c.066.063.132.127.195.192a48.135 48.135 0 0 1 -34.321 81.918z" fill="#0a71cd"/><path d="m245.289 401.289h24a0 0 0 0 1 0 0v32a0 0 0 0 1 0 0h-24a16 16 0 0 1 -16-16 16 16 0 0 1 16-16z" fill="#a2becf" transform="matrix(.707 .707 -.707 .707 368.083 -54.053)"/><path d="m320 473.373a7.974 7.974 0 0 1 -5.657-2.343l-16.971-16.97a8 8 0 0 1 11.315-11.315l16.97 16.971a8 8 0 0 1 -5.657 13.657z" fill="#c1e3f7"/><path d="m297.373 496a7.974 7.974 0 0 1 -5.657-2.343l-16.971-16.97a8 8 0 0 1 11.315-11.315l16.97 16.971a8 8 0 0 1 -5.657 13.657z" fill="#c1e3f7"/><path d="m281.574 405.574h16a0 0 0 0 1 0 0v80a0 0 0 0 1 0 0h-16a24 24 0 0 1 -24-24v-32a24 24 0 0 1 24-24z" fill="#a2becf" transform="matrix(.707 .707 -.707 .707 396.368 -65.769)"/><path d="m413.334 402.741-124.72-124.72-8.614-7.385 32-38.636 10.018 12.617 124.72 124.72a23.621 23.621 0 0 1 0 33.4 23.621 23.621 0 0 1 -33.404.004z" fill="#007af6"/><path d="m90.087 54.627a7.974 7.974 0 0 1 -5.657-2.343l-22.63-22.627a8 8 0 0 1 11.317-11.314l22.627 22.627a8 8 0 0 1 -5.657 13.657z" fill="#a2becf"/><path d="m248.479 227.647-158.392-158.392-5.657-28.284 28.285 5.656 158.392 158.392z" fill="#c1e3f7"/><path d="m255.107 179.647h32v96h-32z" fill="#a2becf" transform="matrix(.707 .707 -.707 .707 240.376 -125.025)"/><path d="m277.734 210.274h32v80h-32z" fill="#007af6" transform="matrix(.707 .707 -.707 .707 263.003 -134.398)"/><path d="m297.048 222.96h16v32h-16z" fill="#0a71cd" transform="matrix(.707 -.707 .707 .707 -79.625 285.683)"/><path d="m274.421 245.588h16v32h-16z" fill="#0a71cd" transform="matrix(.707 -.707 .707 .707 -102.251 276.327)"/><path d="m344 266.6v66.81l-16-16v-66.81z" fill="#007af6"/><path d="m376 298.6v66.81l-16-16v-66.81z" fill="#007af6"/><path d="m408 330.6v66.81l-16-16v-66.81z" fill="#007af6"/><g fill="#0a71cd"><path d="m344 266.6v66.81l-16-16v-66.81z"/><path d="m376 298.6v66.81l-16-16v-66.81z"/><path d="m408 330.6v66.81l-16-16v-66.81z"/></g><path d="m457.3 402.068a31.647 31.647 0 0 0 -4.9-38.388l-119.067-119.063 5.656-5.656a8 8 0 0 0 0-11.315l-16.97-16.97a8 8 0 0 0 0-11.313l-22.627-22.629a8 8 0 0 0 -11.315 0l-16.971 16.971-152.734-152.735a8.011 8.011 0 0 0 -4.089-2.188l-25.907-5.182-15.259-15.257a8 8 0 0 0 -11.317 11.314l15.261 15.259 5.181 25.907a8 8 0 0 0 2.188 4.089l152.735 152.734-16.971 16.971a8 8 0 0 0 0 11.315l22.629 22.627a8 8 0 0 0 11.313 0l16.971 16.97a8 8 0 0 0 11.314 0l6.193-6.193 119.063 119.064a31.639 31.639 0 0 0 38.289 4.964l.794.807a32.158 32.158 0 0 1 -45.657 45.3l-104.541-104.545a44.006 44.006 0 0 0 -71.68 48.173c.062.148.137.288.207.43a24.02 24.02 0 0 0 4.4 27.9l12.026 12.025a32.026 32.026 0 0 0 4.945 38.887l11.313 11.313a8 8 0 0 0 11.315 0l11.312-11.31 11.314 11.313a8 8 0 0 0 11.314-11.314l-11.313-11.314 11.312-11.312 11.314 11.313a8 8 0 0 0 11.314-11.314l-11.311-11.316 11.313-11.313a8 8 0 0 0 0-11.315l-11.313-11.313a32.026 32.026 0 0 0 -38.887-4.945l-12.025-12.025a24.036 24.036 0 0 0 -25.344-5.53 28 28 0 0 1 47.16-25.721l104.54 104.54a48.159 48.159 0 0 0 68.375-67.837zm-146.594-180.078 11.313 11.31-5.647 5.647-.011.009-11.313-11.313zm-213.249-156.679-2.474-12.365a8.159 8.159 0 0 0 .761-.662 8.014 8.014 0 0 0 .662-.761l12.365 2.477 151.021 151.019-11.313 11.314zm151.022 196.276-11.314-11.313 56.569-56.569 11.313 11.314zm28.285 16.972-11.314-11.313 5.657-5.658 11.314 11.312zm5.656-28.284 11.315-11.315 11.312 11.314-11.313 11.313zm45.58 55.818-28.072-28.071 22.091-22.091 5.981 5.981zm32 32-16-16v-44.181l16 16zm32 32-16-16v-44.18l16 16zm49.08 26.992a15.621 15.621 0 0 1 -22.089 0l-10.991-10.993v-44.179l33.081 33.081a15.621 15.621 0 0 1 0 22.09zm-160.68 28.69a16.017 16.017 0 0 1 22.627 0l5.658 5.657-11.305 11.3-.01.009-.009.01-22.608 22.608-.01.009-.009.01-11.3 11.305-5.657-5.658a16.017 16.017 0 0 1 0-22.627zm-39.6-16.971a8 8 0 0 1 11.312 0l11.314 11.313-11.313 11.313-11.313-11.313a8 8 0 0 1 0-11.313z"/></g></svg>