<svg height="512" viewBox="0 0 512 512" width="512" xmlns="http://www.w3.org/2000/svg"><g id="filled_outline" data-name="filled outline"><path d="m288 24v280l-16 8v32h-32v-32l-16-8v-280z" fill="#e4e4e2"/><path d="m280 24v280l-16 8v32h-24v-32l-16-8v-280z" fill="#c5c5c3"/><path d="m281.87 24-57.87 50.63v-21.26l33.57-29.37z" fill="#c5c5c3"/><path d="m288 37.36v21.27l-64 56v-21.26z" fill="#c5c5c3"/><path d="m288 77.37v21.26l-64 56v-21.26z" fill="#c5c5c3"/><path d="m288 117.37v21.26l-64 56v-21.26z" fill="#c5c5c3"/><path d="m288 157.36v21.27l-64 56v-21.26z" fill="#c5c5c3"/><path d="m288 197.37v21.26l-64 56v-21.26z" fill="#c5c5c3"/><path d="m288 237.37v21.26l-56.27 49.24-7.73-3.87v-10.63z" fill="#c5c5c3"/><path d="m398.32 39.16v304.84h-30.32v-304.84a15.141 15.141 0 0 1 12-14.82 14.365 14.365 0 0 1 3.16-.34 15.163 15.163 0 0 1 15.16 15.16z" fill="#e4e4e2"/><path d="m392 39.16v304.84h-24v-304.84a15.141 15.141 0 0 1 12-14.82 15.154 15.154 0 0 1 12 14.82z" fill="#c5c5c3"/><path d="m382.02 300.73a8.005 8.005 0 0 1 -.75 11.29l-13.27 11.61v-21.26l2.73-2.39a8.006 8.006 0 0 1 11.29.75z" fill="#c5c5c3"/><path d="m384.31 250.73a8 8 0 0 1 -.76 11.29l-15.55 13.61v-21.26l5.02-4.39a8.006 8.006 0 0 1 11.29.75z" fill="#c5c5c3"/><path d="m384.31 202.73a8 8 0 0 1 -.76 11.29l-15.55 13.61v-21.26l5.02-4.39a8.006 8.006 0 0 1 11.29.75z" fill="#c5c5c3"/><path d="m384.31 154.73a8 8 0 0 1 -.76 11.29l-15.55 13.61v-21.26l5.02-4.39a8.006 8.006 0 0 1 11.29.75z" fill="#c5c5c3"/><path d="m384.31 106.73a8 8 0 0 1 -.76 11.29l-15.55 13.61v-21.26l5.02-4.39a8.006 8.006 0 0 1 11.29.75z" fill="#c5c5c3"/><path d="m383.55 70.02-15.55 13.61v-21.26l5.02-4.39a8 8 0 1 1 10.53 12.04z" fill="#c5c5c3"/><g fill="#878787"><path d="m281.87 24-57.87 50.63v-21.26l33.57-29.37z"/><path d="m383.55 70.02-15.55 13.61v-21.26l5.02-4.39a8 8 0 1 1 10.53 12.04z"/><path d="m383.55 118.02-15.55 13.61v-21.26l5.02-4.39a8 8 0 1 1 10.53 12.04z"/><path d="m383.55 166.02-15.55 13.61v-21.26l5.02-4.39a8 8 0 1 1 10.53 12.04z"/><path d="m383.55 214.02-15.55 13.61v-21.26l5.02-4.39a8 8 0 1 1 10.53 12.04z"/><path d="m383.55 262.02-15.55 13.61v-21.26l5.02-4.39a8 8 0 1 1 10.53 12.04z"/><path d="m381.27 312.02-13.27 11.61v-21.26l2.73-2.39a8 8 0 1 1 10.54 12.04z"/><path d="m288 77.37v21.26l-64 56v-21.26z"/><path d="m288 37.36v21.27l-64 56v-21.26z"/><path d="m288 117.37v21.26l-64 56v-21.26z"/><path d="m288 157.36v21.27l-64 56v-21.26z"/><path d="m288 197.37v21.26l-64 56v-21.26z"/><path d="m288 237.37v21.26l-56.27 49.24-7.73-3.87v-10.63z"/></g><path d="m152 48v256l-8 8v32h-32v-32l-8-8v-256a23.993 23.993 0 0 1 20-23.66 22.974 22.974 0 0 1 4-.34 24.006 24.006 0 0 1 24 24z" fill="#e4e4e2"/><path d="m144 48v256l-8 8v32h-24v-32l-8-8v-256a23.993 23.993 0 0 1 20-23.66 24 24 0 0 1 20 23.66z" fill="#c5c5c3"/><path d="m148.95 36.3-44.95 39.33v-21.26l32.79-28.7h.01a23.979 23.979 0 0 1 12.15 10.63z" fill="#c5c5c3"/><path d="m152 52.37v21.26l-48 42v-21.26z" fill="#c5c5c3"/><path d="m104 134.37 48-42v21.26l-48 42z" fill="#c5c5c3"/><path d="m104 174.37 48-42v21.26l-48 42z" fill="#c5c5c3"/><path d="m104 214.37 48-42v21.26l-48 42z" fill="#c5c5c3"/><path d="m104 254.37 48-42v21.26l-48 42z" fill="#c5c5c3"/><path d="m104 294.37 48-42v21.26l-41.8 36.57-6.2-6.2z" fill="#c5c5c3"/><path d="m152 92.37v21.26l-48 42v-21.26z" fill="#878787"/><path d="m152 52.37v21.26l-48 42v-21.26z" fill="#878787"/><path d="m148.95 36.3-44.95 39.33v-21.26l32.79-28.7h.01a23.979 23.979 0 0 1 12.15 10.63z" fill="#878787"/><path d="m152 132.37v21.26l-48 42v-21.26z" fill="#878787"/><path d="m152 172.37v21.26l-48 42v-21.26z" fill="#878787"/><path d="m152 212.37v21.26l-48 42v-21.26z" fill="#878787"/><path d="m152 252.37v21.26l-41.8 36.57-6.2-6.2v-9.63z" fill="#878787"/><path d="m281.3 474.05-.42.64a29.921 29.921 0 0 1 -24.88 13.31 28.828 28.828 0 0 1 -4.84-.4 29.887 29.887 0 0 1 -20.04-12.91l-.42-.64a29.868 29.868 0 0 1 -4.54-21.93l7.98-43.87a152.062 152.062 0 0 0 -2.09-64.05l-.05-.2h48l-.05.2a152.062 152.062 0 0 0 -2.09 64.05l7.98 43.87a29.868 29.868 0 0 1 -4.54 21.93z" fill="#c36f53"/><path d="m407.62 474.05-.42.64a29.921 29.921 0 0 1 -24.88 13.31 28.828 28.828 0 0 1 -4.84-.4 29.867 29.867 0 0 1 -20.03-12.91l-.43-.64a29.915 29.915 0 0 1 -4.54-21.93l7.98-43.87a152.062 152.062 0 0 0 -2.09-64.05l-.05-.2h48l-.05.2a151.9 151.9 0 0 0 -2.08 64.05l7.97 43.87a29.868 29.868 0 0 1 -4.54 21.93z" fill="#c36f53"/><path d="m153.3 474.05-.42.64a29.921 29.921 0 0 1 -24.88 13.31 28.828 28.828 0 0 1 -4.84-.4 29.887 29.887 0 0 1 -20.04-12.91l-.42-.64a29.868 29.868 0 0 1 -4.54-21.93l7.98-43.87a152.062 152.062 0 0 0 -2.09-64.05l-.05-.2h48l-.05.2a152.062 152.062 0 0 0 -2.09 64.05l7.98 43.87a29.868 29.868 0 0 1 -4.54 21.93z" fill="#c36f53"/><path d="m271.62 474.05-.42.64a29.887 29.887 0 0 1 -20.04 12.91 29.887 29.887 0 0 1 -20.04-12.91l-.42-.64a29.868 29.868 0 0 1 -4.54-21.93l7.98-43.87a152.062 152.062 0 0 0 -2.09-64.05l-.05-.2h38.32l-.05.2a151.9 151.9 0 0 0 -2.08 64.05l7.97 43.87a29.868 29.868 0 0 1 -4.54 21.93z" fill="#975640"/><path d="m397.94 474.05-.42.64a29.887 29.887 0 0 1 -20.04 12.91 29.867 29.867 0 0 1 -20.03-12.91l-.43-.64a29.915 29.915 0 0 1 -4.54-21.93l7.98-43.87a152.062 152.062 0 0 0 -2.09-64.05l-.05-.2h38.32l-.05.2a151.9 151.9 0 0 0 -2.08 64.05l7.97 43.87a29.868 29.868 0 0 1 -4.54 21.93z" fill="#975640"/><path d="m143.62 474.05-.42.64a29.887 29.887 0 0 1 -20.04 12.91 29.887 29.887 0 0 1 -20.04-12.91l-.42-.64a29.868 29.868 0 0 1 -4.54-21.93l7.98-43.87a152.062 152.062 0 0 0 -2.09-64.05l-.05-.2h38.32l-.05.2a151.9 151.9 0 0 0 -2.08 64.05l7.97 43.87a29.868 29.868 0 0 1 -4.54 21.93z" fill="#975640"/><path d="m291.578 311.155a8 8 0 0 0 4.422-7.155v-280a8 8 0 0 0 -8-8h-64a8 8 0 0 0 -8 8v280c0 .031.006.06.006.09a7.976 7.976 0 0 0 .07.988c.007.055.02.108.028.162a7.811 7.811 0 0 0 .179.838c.02.074.039.148.061.222a7.928 7.928 0 0 0 .8 1.814c.045.074.093.146.139.218.136.21.282.414.44.614.057.072.112.147.172.217.029.035.053.071.082.1.182.207.374.4.571.584.015.014.028.03.043.044a7.925 7.925 0 0 0 .8.639c.065.046.134.087.2.131a7.912 7.912 0 0 0 .7.415c.044.023.082.052.126.074l11.583 5.794v19.056a8 8 0 0 0 -7.765 9.927l.053.21a143.064 143.064 0 0 1 1.977 60.685l-7.976 43.865a37.711 37.711 0 0 0 5.755 27.8l.425.636a37.9 37.9 0 0 0 63.061 0l.427-.64a37.708 37.708 0 0 0 5.754-27.8l-7.976-43.865a143.068 143.068 0 0 1 1.981-60.7l.049-.2a8 8 0 0 0 -7.765-9.918v-19.056zm-59.578-279.155h16.422l-16.422 14.37zm0 35.63 40.719-35.63h7.281v12.37l-48 42zm0 40 48-42v18.74l-48 42zm0 40 48-42v18.74l-48 42zm0 40 48-42v18.74l-48 42zm0 40 48-42v18.74l-48 42zm0 40 48-42v18.74l-48 42zm42.646 201.979-.427.641a21.9 21.9 0 0 1 -36.439 0l-.425-.636a21.79 21.79 0 0 1 -3.324-16.062l7.976-43.865a158.8 158.8 0 0 0 -.074-57.687h28.135a158.776 158.776 0 0 0 -.075 57.684l7.976 43.865a21.787 21.787 0 0 1 -3.323 16.06zm-6.224-164.764a8 8 0 0 0 -4.422 7.155v24h-16v-24a8 8 0 0 0 -4.422-7.155l-5.342-2.672 41.764-36.543v33.426z"/><path d="m344.611 450.687a37.712 37.712 0 0 0 5.751 27.8l.428.643a37.9 37.9 0 0 0 63.063 0l.426-.641a37.711 37.711 0 0 0 5.753-27.8l-7.974-43.865a143.022 143.022 0 0 1 1.97-60.662l.05-.2a8 8 0 0 0 -7.756-9.962v-296.839a23.161 23.161 0 0 0 -46.322 0v296.839h-1.678a8 8 0 0 0 -7.764 9.927l.052.21a143.094 143.094 0 0 1 1.977 60.685zm31.389-134.058 5.268-4.608a7.993 7.993 0 0 0 -5.268-14.013v-29.378l7.554-6.609a8 8 0 0 0 -7.554-13.681v-27.71l7.554-6.609a8 8 0 0 0 -7.554-13.681v-27.71l7.554-6.609a8 8 0 0 0 -7.554-13.681v-27.71l7.554-6.609a8 8 0 0 0 -7.554-13.681v-27.71l7.554-6.609a8 8 0 0 0 -7.554-13.681v-17.179a7.161 7.161 0 0 1 14.322 0v296.839h-14.322zm-15.646 136.92 7.975-43.865a158.82 158.82 0 0 0 -.074-57.684h28.135a158.8 158.8 0 0 0 -.075 57.684l7.975 43.865a21.787 21.787 0 0 1 -3.322 16.06l-.427.641a21.9 21.9 0 0 1 -36.436 0l-.427-.643a21.785 21.785 0 0 1 -3.324-16.058z"/><path d="m165.711 450.687-7.976-43.865a143.068 143.068 0 0 1 1.981-60.7l.049-.2a8 8 0 0 0 -7.765-9.922v-20.686l5.657-5.657a8 8 0 0 0 2.343-5.657v-256a32 32 0 0 0 -64 0v256a8 8 0 0 0 2.343 5.657l5.657 5.657v20.686a8 8 0 0 0 -7.765 9.927l.053.21a143.064 143.064 0 0 1 1.977 60.685l-7.976 43.865a37.711 37.711 0 0 0 5.755 27.8l.425.636a37.9 37.9 0 0 0 63.061 0l.427-.64a37.708 37.708 0 0 0 5.754-27.796zm-22.986-408.941a15.9 15.9 0 0 1 1.275 6.254v11.371l-32 28v-18.741zm-30.725 146.883 32-28v18.741l-32 28zm32-49.259-32 28v-18.74l32-28zm-32 89.26 32-28v18.74l-32 28zm32-129.259-32 28v-18.742l32-28zm-32 169.258 32-28v18.741l-32 28zm16-236.629c.5 0 .993.03 1.481.075l-17.448 15.266a16.008 16.008 0 0 1 15.967-15.341zm-10.343 274.343-1.42-1.42 27.763-24.293v20.056l-5.657 5.657a8 8 0 0 0 -2.343 5.657v24h-16v-24a8 8 0 0 0 -2.343-5.657zm28.989 163.266-.427.641a21.9 21.9 0 0 1 -36.439 0l-.425-.636a21.79 21.79 0 0 1 -3.324-16.062l7.976-43.865a158.8 158.8 0 0 0 -.074-57.687h28.135a158.776 158.776 0 0 0 -.075 57.684l7.976 43.865a21.787 21.787 0 0 1 -3.323 16.06z"/></g></svg>