<svg height="512" viewBox="0 0 512 512" width="512" xmlns="http://www.w3.org/2000/svg"><g id="filled_outline" data-name="filled outline"><path d="m462.541 454.784a33.635 33.635 0 0 1 -17.135-4.687 8 8 0 1 1 8.137-13.776 17.757 17.757 0 1 0 -3.538-27.857 8 8 0 1 1 -11.315-11.313 33.755 33.755 0 1 1 23.851 57.633z" fill="#0045c7"/><path d="m366.323 460.686-169.706-169.705-4.617-2.981 64-64 8.5-.902 169.705 169.706-2.205 15.196-56 56z" fill="#0083f7"/><path d="m179.647 92.991 73.539 73.539 11.314 56.57-67.883 67.883-56.568-11.314-73.539-73.541-1.41-1.414c14.142-14.142 28.284 0 42.426-14.141s0-28.283 14.14-42.424 28.285 0 42.428-14.144 0-28.285 14.144-42.428z" fill="#009cf7"/><rect fill="#0045c7" height="80" rx="16" transform="matrix(.707 -.707 .707 .707 -140 300.54)" width="32" x="276.784" y="279.265"/><circle cx="275.813" cy="302.294" fill="#fbb540" r="16"/><path d="m140.049 279.667 113.137-113.137 11.314 56.568-67.883 67.883z" fill="#0094f6"/><path d="m434.205 392.8 22.628 22.627a16 16 0 0 1 0 22.628l-45.255 45.255a16 16 0 0 1 -22.628 0l-22.627-22.628z" fill="#0094f6"/><path d="m106.107 253.726a8 8 0 0 1 -5.657-13.657l39.6-39.6a8 8 0 1 1 11.314 11.314l-39.6 39.6a7.981 7.981 0 0 1 -5.657 2.343z" fill="#41b2ff"/><path d="m168.333 191.5a8 8 0 0 1 -5.657-13.656l11.313-11.314a8 8 0 0 1 11.311 11.313l-11.31 11.314a7.974 7.974 0 0 1 -5.657 2.343z" fill="#41b2ff"/><path d="m196.617 163.216a8 8 0 0 1 -5.657-13.656l22.628-22.628a8 8 0 1 1 11.312 11.314l-22.628 22.627a7.976 7.976 0 0 1 -5.655 2.343z" fill="#41b2ff"/><path d="m350.323 344.804h32v96h-32z" fill="#0094f6" transform="matrix(.707 .707 -.707 .707 385.048 -143.98)"/><g fill="#fbb540"><path d="m99.764 135.62a7.975 7.975 0 0 1 -5.8-2.485l-37.7-39.62a8 8 0 0 1 11.591-11.03l37.7 39.62a8 8 0 0 1 -5.8 13.515z"/><path d="m39.226 72a7.979 7.979 0 0 1 -5.8-2.485l-15.225-16a8 8 0 0 1 11.599-11.03l15.225 16a8 8 0 0 1 -5.799 13.515z"/><path d="m123.078 100.991a7.971 7.971 0 0 1 -5.657-2.344l-22.627-22.627a8 8 0 1 1 11.314-11.313l22.627 22.627a8 8 0 0 1 -5.657 13.657z"/><path d="m84.375 173.635a7.974 7.974 0 0 1 -5.657-2.343l-22.628-22.627a8 8 0 1 1 11.31-11.314l22.628 22.628a8 8 0 0 1 -5.657 13.656z"/><path d="m38.226 129.275a7.978 7.978 0 0 1 -5.658-2.343l-11.313-11.314a8 8 0 1 1 11.314-11.313l11.314 11.313a8 8 0 0 1 -5.657 13.657z"/><path d="m77.823 55.736a7.976 7.976 0 0 1 -5.657-2.343l-11.313-11.314a8 8 0 0 1 11.314-11.313l11.313 11.313a8 8 0 0 1 -5.657 13.657z"/><path d="m151.369 84.021a7.992 7.992 0 0 1 -6.584-3.447l-36.014-52.02a8 8 0 1 1 13.155-9.108l36.013 52.02a8 8 0 0 1 -6.57 12.555z"/><path d="m49.532 185.844a7.97 7.97 0 0 1 -4.575-1.442l-25.539-17.844a8 8 0 1 1 9.164-13.116l25.539 17.844a8 8 0 0 1 -4.589 14.558z"/></g><path d="m326.726 319.265-33.942-33.941a24 24 0 1 0 -33.941 33.941l33.94 33.941a24 24 0 0 0 33.942-33.942zm-45.256-11.314a8 8 0 1 1 0-11.314 7.948 7.948 0 0 1 0 11.314zm33.942 33.941a8.011 8.011 0 0 1 -11.315 0l-17.934-17.934a23.856 23.856 0 0 0 11.286-11.341l17.961 17.961a8.009 8.009 0 0 1 .002 11.314z"/><path d="m168.333 191.5a7.974 7.974 0 0 0 5.657-2.343l11.31-11.314a8 8 0 0 0 -11.315-11.313l-11.313 11.314a8 8 0 0 0 5.657 13.656z"/><path d="m486.428 397.151a33.81 33.81 0 0 0 -41.483-4.921l-5.083-5.083-167.992-167.993-10.84-54.193a8 8 0 0 0 -2.187-4.088l-74.953-74.953a8 8 0 0 0 -11.315 0c-9.414 9.414-9.414 19.093-9.415 26.871 0 6.521 0 10.829-4.727 15.557s-9.037 4.728-15.559 4.729c-7.776 0-17.456 0-26.871 9.415s-9.413 19.092-9.412 26.869c0 6.52 0 10.827-4.728 15.555-4.707 4.707-9 4.728-15.469 4.728h-.174c-7.762 0-17.4.035-26.782 9.413a8 8 0 0 0 0 11.314l74.954 74.953a8.013 8.013 0 0 0 4.087 2.188l54.194 10.838 190.621 190.621a24.029 24.029 0 0 0 33.941 0l35.619-35.618a33.757 33.757 0 0 0 33.574-56.2zm-131.419 40.908 56.569-56.568 11.313 11.309-56.568 56.569zm-147.078-147.078 56.569-56.569 113.136 113.137-56.568 56.569zm-51.655-16.227 92-92 7.542 37.712-61.83 61.834zm232.674 84.109 11.314 11.314-56.564 56.568-11.313-11.313zm-271.528-113.137 33.941-33.941a8 8 0 1 0 -11.314-11.314l-33.941 33.941-28.192-28.192a36.978 36.978 0 0 1 8.287-.576h.193c7.762 0 17.4-.037 26.782-9.415 9.414-9.413 9.413-19.092 9.413-26.869 0-6.52 0-10.828 4.726-15.555s9.037-4.728 15.558-4.728c7.777 0 17.456 0 26.871-9.415s9.414-19.094 9.414-26.871a37.582 37.582 0 0 1 .578-8.395l28.193 28.193-16.971 16.971a8 8 0 0 0 11.314 11.313l16.971-16.97 22.627 22.627-101.823 101.823zm288.5 231.93a8.01 8.01 0 0 1 -11.315 0l-16.97-16.97 56.568-56.569 16.971 16.97a8.01 8.01 0 0 1 0 11.314zm69.192-44.083a17.751 17.751 0 0 1 -8.6 4.76 24.029 24.029 0 0 0 -4.027-28.558l-5.57-5.57a17.741 17.741 0 0 1 18.194 29.368z"/><path d="m93.967 133.135a8 8 0 0 0 11.592-11.03l-37.7-39.62a8 8 0 0 0 -11.591 11.03z"/><path d="m33.429 69.515a8 8 0 0 0 11.592-11.03l-15.225-16a8 8 0 0 0 -11.596 11.03z"/><path d="m117.421 98.647a8 8 0 0 0 11.314-11.313l-22.627-22.627a8 8 0 1 0 -11.314 11.313z"/><path d="m78.718 171.292a8 8 0 1 0 11.314-11.313l-22.632-22.628a8 8 0 1 0 -11.31 11.314z"/><path d="m32.569 104.305a8 8 0 1 0 -11.314 11.313l11.313 11.314a8 8 0 1 0 11.315-11.314z"/><path d="m72.166 53.393a8 8 0 1 0 11.314-11.314l-11.313-11.313a8 8 0 0 0 -11.314 11.313z"/><path d="m144.785 80.574a8 8 0 1 0 13.154-9.108l-36.013-52.02a8 8 0 1 0 -13.155 9.108z"/><path d="m54.121 171.286-25.539-17.844a8 8 0 1 0 -9.164 13.116l25.539 17.842a8 8 0 0 0 9.164-13.116z"/></g></svg>