<svg height="512" viewBox="0 0 512 512" width="512" xmlns="http://www.w3.org/2000/svg"><g id="filled_outline" data-name="filled outline"><path d="m160 296-50.811-66.055a31.876 31.876 0 0 0 -52.941 3.62 31.876 31.876 0 0 0 -1.131 29.46l44.335 93.6a75.849 75.849 0 0 0 68.548 43.375v88h232v-96l2.658-7.973a260 260 0 0 0 13.342-82.219v-69.808h-256z" fill="#c1e3f7"/><path d="m168 440h232v48h-232z" fill="#0083f7"/><path d="m384 112a32 32 0 0 1 32 32v88a0 0 0 0 1 0 0h-64a0 0 0 0 1 0 0v-88a32 32 0 0 1 32-32z" fill="#c1e3f7"/><path d="m256 24a32 32 0 0 1 32 32v176a0 0 0 0 1 0 0h-64a0 0 0 0 1 0 0v-176a32 32 0 0 1 32-32z" fill="#c1e3f7"/><path d="m320 40a32 32 0 0 1 32 32v160a0 0 0 0 1 0 0h-64a0 0 0 0 1 0 0v-160a32 32 0 0 1 32-32z" fill="#c1e3f7"/><path d="m192 48a32 32 0 0 1 32 32v152a0 0 0 0 1 0 0h-64a0 0 0 0 1 0 0v-152a32 32 0 0 1 32-32z" fill="#c1e3f7"/><path d="m160 200h256v32h-256z" fill="#0094f6"/><path d="m416 144v32h-64v-32a32 32 0 1 1 64 0z" fill="#0083f7"/><path d="m352 72v32h-64v-32a32 32 0 1 1 64 0z" fill="#0083f7"/><path d="m288 56v32h-64v-32a32 32 0 1 1 64 0z" fill="#0083f7"/><path d="m224 80v32h-64v-32a32 32 0 1 1 64 0z" fill="#c1e3f7"/><path d="m416 296v5.81a260.222 260.222 0 0 1 -13.34 82.22l-2.66 7.97v6.45a32.845 32.845 0 0 1 -56-23.3 40.9 40.9 0 0 0 -19.85-35.06l-10.23-6.14a20.43 20.43 0 0 1 10.51-37.95z" fill="#accadc"/><path d="m131.71 259.22-57.84 43.38-18.75-39.58a31.872 31.872 0 0 1 54.07-33.07z" fill="#accadc"/><path d="m312 272h-32a8 8 0 0 1 0-16h32a8 8 0 0 1 0 16z" fill="#afcee0"/><path d="m360 272h-16a8 8 0 0 1 0-16h16a8 8 0 0 1 0 16z" fill="#afcee0"/><path d="m224 200h64v32h-64z" fill="#0094f6"/><path d="m224 200h16v32h-16z" fill="#0083f7"/><path d="m160 200h16v32h-16z" fill="#0083f7"/><path d="m288 200h16v32h-16z" fill="#0083f7"/><path d="m352 200h16v32h-16z" fill="#0083f7"/><path d="m416 296v5.81a260.222 260.222 0 0 1 -13.34 82.22l-2.66 7.97v6.45a32.845 32.845 0 0 1 -56-23.3 40.9 40.9 0 0 0 -19.85-35.06l-10.23-6.14a20.43 20.43 0 0 1 10.51-37.95z" fill="#0094f6"/><path d="m224 80v32h-64v-32a32 32 0 1 1 64 0z" fill="#0083f7"/><path d="m131.71 259.22-57.84 43.38-18.75-39.58a31.872 31.872 0 0 1 54.07-33.07z" fill="#0083f7"/><g fill="#afcee0"><path d="m160 112h16v88h-16z"/><path d="m224 88h16v112h-16z"/><path d="m288 104h16v96h-16z"/><path d="m352 176h16v24h-16z"/><path d="m296 480h-16v-107.751a68.248 68.248 0 0 0 -68.249-68.249h-51.751v-16h51.751c44.249 8 53.287 16.266 68.249 42.45 7.262 12.709 16 27.162 16 41.8z"/></g><path d="m296 408v-32.02a87.98 87.98 0 0 0 -11.592-43.65 87.98 87.98 0 0 0 -76.388-44.33h-32.02a120 120 0 0 0 120 120z" fill="#0094f6"/><path d="m168 440h152a24 24 0 0 1 24 24 24 24 0 0 1 -24 24h-152a0 0 0 0 1 0 0v-48a0 0 0 0 1 0 0z" fill="#0094f6"/><path d="m384 104a39.788 39.788 0 0 0 -24 8.022v-40.022a39.971 39.971 0 0 0 -66.5-29.923 39.994 39.994 0 0 0 -76.794 6.5 39.967 39.967 0 0 0 -64.706 31.423v192.479l-36.471-47.412a39.875 39.875 0 0 0 -67.642 41.382l44.335 93.6a84.283 84.283 0 0 0 67.778 47.563v80.388a8 8 0 0 0 8 8h232a8 8 0 0 0 8-8v-94.7l2.247-6.741a267.516 267.516 0 0 0 13.753-84.751v-157.808a40.045 40.045 0 0 0 -40-40zm11.068 277.5-2.657 7.973a8 8 0 0 0 -.411 2.527v2.818a24.821 24.821 0 0 1 -40-19.668 49.133 49.133 0 0 0 -23.735-41.92l-10.229-6.138a12.432 12.432 0 0 1 6.4-23.092h83.546a251.5 251.5 0 0 1 -12.914 77.5zm-70.636-93.5a28.432 28.432 0 0 0 -14.632 52.812l10.229 6.138a33.05 33.05 0 0 1 15.971 28.2 40.825 40.825 0 0 0 56 37.925v18.925h-96v-59.751a84.251 84.251 0 0 0 -84.249-84.249h-43.751v-48h240v48zm-44.432 103.67a96.167 96.167 0 0 1 -87.67-87.67h19.421a68.248 68.248 0 0 1 68.249 68.249zm128-167.67h-48v-16h48zm-112 0v-16h48v16zm-64 0v-16h48v16zm-64 0v-16h48v16zm192-32v-16h48v16zm-16 0h-48v-80h48zm-64 0h-48v-96h48zm-64 0h-48v-72h48zm168-72a24.027 24.027 0 0 1 24 24v16h-48v-16a24.027 24.027 0 0 1 24-24zm-64-72a24.028 24.028 0 0 1 24 24v24h-48v-24a24.028 24.028 0 0 1 24-24zm-88 8a24 24 0 0 1 48 0v24h-48zm-40 0a24.028 24.028 0 0 1 24 24v24h-48v-24a24.028 24.028 0 0 1 24-24zm-128.806 181.534a23.877 23.877 0 0 1 39.654-2.711l17.581 22.855-43.529 32.646-14.553-30.724a23.892 23.892 0 0 1 .847-22.066zm43.488 115.666-22.831-48.2a7.873 7.873 0 0 0 .949-.6l45.385-34.038 23.474 30.516a8 8 0 0 0 7.822 2.974 8.09 8.09 0 0 0 1.519.148h13.289a112.168 112.168 0 0 0 103.711 103.711v24.289h-104v-32a8 8 0 0 0 -8-8 68.15 68.15 0 0 1 -61.318-38.8zm69.318 126.8v-32h104v32zm120 0v-32h24a16 16 0 0 1 0 32zm96 0h-44.3a31.885 31.885 0 0 0 0-32h44.3z"/><path d="m312 256h-32a8 8 0 0 0 0 16h32a8 8 0 0 0 0-16z"/><path d="m360 256h-16a8 8 0 0 0 0 16h16a8 8 0 0 0 0-16z"/></g></svg>