<svg height="512" viewBox="0 0 512 512" width="512" xmlns="http://www.w3.org/2000/svg"><g id="filled_outline" data-name="filled outline"><path d="m232 96h48v160h-48z" fill="#f48b68"/><path d="m232 96h40v160h-40z" fill="#c36f53"/><path d="m296 80-16 24h-48l-16-24v-48h80z" fill="#60b9f3"/><path d="m232 248h48a155.883 155.883 0 0 1 8 49.3v152.09a28 28 0 0 0 2.956 12.522l1.466 2.933a15.993 15.993 0 0 1 0 14.31 16 16 0 0 1 -14.311 8.845h-44.222a16 16 0 0 1 -14.311-8.845 15.993 15.993 0 0 1 0-14.31l1.466-2.933a28 28 0 0 0 2.956-12.522v-152.09a155.883 155.883 0 0 1 8-49.3z" fill="#0c82ed"/><path d="m296 32h29.171a32 32 0 0 1 27.973 16.459l30.856 55.541h-.8a56 56 0 0 1 -39.6-16.4l-10.914-10.914a16 16 0 0 0 -11.313-4.686h-25.373z" fill="#65c2ff"/><path d="m172.031 26.687-4.031-2.687h-32v64h32l4.031-2.687a79.264 79.264 0 0 1 43.969-13.313v-32a79.264 79.264 0 0 1 -43.969-13.313z" fill="#65c2ff"/><path d="m216 40v32a79.257 79.257 0 0 0 -16 1.63v-35.26a79.257 79.257 0 0 0 16 1.63z" fill="#65c2ff"/><path d="m136 24h32v64h-32z" fill="#0c82ed"/><g fill="#0a6bc3"><path d="m256 320h-32a8 8 0 0 1 0-16h32a8 8 0 0 1 0 16z"/><path d="m256 352h-32a8 8 0 0 1 0-16h32a8 8 0 0 1 0 16z"/><path d="m256 384h-32a8 8 0 0 1 0-16h32a8 8 0 0 1 0 16z"/><path d="m256 416h-32a8 8 0 0 1 0-16h32a8 8 0 0 1 0 16z"/></g><path d="m296 32h16v40h-16z" fill="#0c82ed"/><path d="m216 40v32a79.257 79.257 0 0 0 -16 1.63v-35.26a79.257 79.257 0 0 0 16 1.63z" fill="#0c82ed"/><path d="m216 80h80l-16 24h-48z" fill="#0c82ed"/><path d="m136 96h32a8 8 0 0 0 4.437-1.343l4.031-2.688a71.026 71.026 0 0 1 31.565-11.525 7.974 7.974 0 0 0 1.311 3.994l14.656 21.984v140.323a163.559 163.559 0 0 0 -8 50.553v152.092a20.1 20.1 0 0 1 -2.111 8.944l-1.467 2.934a24.114 24.114 0 0 0 0 21.465 23.869 23.869 0 0 0 21.467 13.267h44.222a23.868 23.868 0 0 0 21.467-13.268 24.114 24.114 0 0 0 0-21.465l-1.466-2.932a20.1 20.1 0 0 1 -2.112-8.945v-152.09a163.559 163.559 0 0 0 -8-50.553v-140.325l14.656-21.984a7.993 7.993 0 0 0 1.344-4.438h17.373a7.949 7.949 0 0 1 5.657 2.343l10.911 10.912a63.581 63.581 0 0 0 45.259 18.745h.8a8 8 0 0 0 6.993-11.885l-30.856-55.541a40.021 40.021 0 0 0 -34.966-20.574h-109.171a7.992 7.992 0 0 0 -7.977 7.554 71.01 71.01 0 0 1 -31.555-11.524l-4.031-2.687a8 8 0 0 0 -4.437-1.343h-32a8 8 0 0 0 -8 8v64a8 8 0 0 0 8 8zm168-56h21.171a24.012 24.012 0 0 1 20.98 12.345l23.119 41.614a47.749 47.749 0 0 1 -20.015-12.018l-10.912-10.911a23.843 23.843 0 0 0 -16.97-7.03h-17.373zm-18.733 435.578a7.958 7.958 0 0 1 -7.156 4.422h-44.222a7.958 7.958 0 0 1 -7.156-4.422 8.04 8.04 0 0 1 0-7.156l1.467-2.933a36.188 36.188 0 0 0 3.8-16.1v-33.389h24a8 8 0 0 0 0-16h-24v-16h24a8 8 0 0 0 0-16h-24v-16h24a8 8 0 0 0 0-16h-24v-16h24a8 8 0 0 0 0-16h-24v-6.7c0-3.108.113-6.207.307-9.3h23.693a8 8 0 0 0 0-16h-21.812a147.832 147.832 0 0 1 3.694-16h36.236a147.606 147.606 0 0 1 5.882 41.3v152.09a36.183 36.183 0 0 0 3.8 16.1l1.466 2.932a8.04 8.04 0 0 1 .001 7.156zm-45.267-235.578v-128h32v128zm-16-200h64v37.578l-12.281 18.422h-39.438l-12.281-18.422zm-48-1.714a86.825 86.825 0 0 0 32 9.35v16.728a86.843 86.843 0 0 0 -32 9.349zm-32-6.286h16v48h-16z"/></g></svg>