<svg height="512" viewBox="0 0 512 512" width="512" xmlns="http://www.w3.org/2000/svg"><g id="filled_outline" data-name="filled outline"><path d="m304 88v-16h-96v16l-16 16v120l-32 144 16 120h64l-16-120 32-104v224h64v-384z" fill="#007af6"/><path d="m240 488h-64l-4.27-32h64z" fill="#007af6"/><path d="m216 216v24l-31 15.5 7-31.5v-8z" fill="#007af6"/><path d="m224 104h64a0 0 0 0 1 0 0v36a12 12 0 0 1 -12 12h-40a12 12 0 0 1 -12-12v-36a0 0 0 0 1 0 0z" fill="#0a71cd"/><path d="m208.281 24h31.719v48h-31.719z" fill="#975640"/><path d="m272.281 24h31.719v48h-31.719z" fill="#975640"/><path d="m192 184h128v32h-128z" fill="#569fe6"/><g fill="#0a71cd"><path d="m288 216v24l32 24v-48z"/><path d="m216 216v24l-31 15.5 7-31.5v-8z"/><path d="m240 488h-64l-4.27-32h64z"/><path d="m256 456h64v32h-64z"/></g><path d="m359 265-39-1v-80h36a12 12 0 0 1 12 12v60a9 9 0 0 1 -9 9z" fill="#00abed"/><path d="m320 184h36a12 12 0 0 1 12 12v20h-48z" fill="#00b8ff"/><path d="m336 120h40a0 0 0 0 1 0 0v32a0 0 0 0 1 0 0h-72a0 0 0 0 1 0 0 32 32 0 0 1 32-32z" fill="#c1e3f7"/><path d="m320 152h32v32h-32z" fill="#975640"/><path d="m392 120h16v32h-16l-16-8v-16z" fill="#afcee0"/><path d="m208 40h32v16h-32z" fill="#569fe6"/><path d="m272 40h32v16h-32z" fill="#569fe6"/><path d="m392 120h16v32h-16z" fill="#c1e3f7"/><path d="m288 96h-64a8 8 0 0 0 -8 8v36a20.023 20.023 0 0 0 20 20h40a20.023 20.023 0 0 0 20-20v-36a8 8 0 0 0 -8-8zm-8 44a4 4 0 0 1 -4 4h-40a4 4 0 0 1 -4-4v-28h48z"/><path d="m408 112h-16a7.994 7.994 0 0 0 -3.578.845l-5.69 2.845a7.985 7.985 0 0 0 -6.732-3.69h-40a40.028 40.028 0 0 0 -8 .805v-8.805a8 8 0 0 0 -2.343-5.657l-13.657-13.656v-60.687a8 8 0 0 0 -8-8h-31.719a8 8 0 0 0 -8 8v40h-16.281v-40a8 8 0 0 0 -8-8h-31.719a8 8 0 0 0 -8 8l-.281 60.687-13.657 13.656a8 8 0 0 0 -2.343 5.657v119.122l-31.81 143.143a8.021 8.021 0 0 0 -.12 2.793l16 120a8 8 0 0 0 7.93 6.942h64a8 8 0 0 0 8-7.979 8 8 0 0 0 8 7.979h64a8 8 0 0 0 8-8v-215.792l30.8.789h.2a17.019 17.019 0 0 0 17-17v-59.997a20.032 20.032 0 0 0 -16-19.6v-16.4h16a7.985 7.985 0 0 0 6.732-3.69l5.69 2.845a7.994 7.994 0 0 0 3.578.845h16a8 8 0 0 0 8-8v-32a8 8 0 0 0 -8-8zm-127.719-80h15.719v8h-15.719zm0 24h15.719v8h-15.719zm-64-24h15.719v8h-15.719zm0 24h15.719v8h-15.719zm-16.471 169.735c0-.013 0-.027.006-.041.048-.219.082-.443.111-.668.007-.058.02-.115.026-.173a8.009 8.009 0 0 0 .047-.853h8v11.056l-11.544 5.772zm-16.81 254.265-2.133-16h47.858l2.133 16zm65 7.971a7.918 7.918 0 0 0 -.07-1.029l-15.769-118.263 15.839-51.479zm64-7.971h-48v-16h48zm0-32h-48v-184a8 8 0 0 0 -15.646-2.353l-32 104a8 8 0 0 0 -.284 3.411l10.53 78.942h-47.862l-10.62-79.65 23.866-107.4 27.594-13.8a8 8 0 0 0 4.422-7.15v-16h56v16a8 8 0 0 0 3.2 6.4l28.8 21.6zm0-200-16-12v-12h16zm0-40h-112v-16h112zm0-87.978a39.962 39.962 0 0 0 -16 31.978 8 8 0 0 0 8 8h8v16h-112v-68.687l13.657-13.656a8 8 0 0 0 2.343-5.657v-8h80v8a8 8 0 0 0 2.343 5.657l13.657 13.656zm48 135.978a1 1 0 0 1 -.948 1l-31.052-.8v-32.2h32zm0-48h-32v-16h28a4 4 0 0 1 4 4zm-32-32v-16h16v16zm40-32h-54.629a24.042 24.042 0 0 1 22.629-16h32zm32 0h-6.111l-9.889-4.944v-6.112l9.889-4.944h6.111z"/></g></svg>