<svg height="512" viewBox="0 0 512 512" width="512" xmlns="http://www.w3.org/2000/svg"><g id="filled_outline" data-name="filled outline"><path d="m288 480a40.045 40.045 0 0 1 -40-40v-8h16v8a24 24 0 1 0 35.994-20.794l-3.994-3.206-8-24 20.006 13.356a40 40 0 0 1 -20.006 74.644z" fill="#0a71cd"/><path d="m176 360h-64l-9.6-12.8a8 8 0 0 0 -12.8 9.6l2.4 3.2h-12l-9.6-12.8a8 8 0 0 0 -12.8 9.6l2.4 3.2h-12l-9.6-12.8a8 8 0 0 0 -12.8 9.6l2.4 3.2h-4a8 8 0 0 0 0 16h16l9.6 12.8a8 8 0 1 0 12.8-9.6l-2.4-3.2h12l9.6 12.8a8 8 0 1 0 12.8-9.6l-2.4-3.2h12l9.6 12.8a8 8 0 1 0 12.8-9.6l-2.4-3.2h52a8 8 0 0 0 0-16z" fill="#00abed"/><rect fill="#0c82ed" height="400" rx="56" width="112" x="200" y="40"/><path d="m487.431 136h-174.862a.569.569 0 0 1 -.569-.569v-46.862a.569.569 0 0 1 .569-.569h63.361a.586.586 0 0 0 .138-.017l31.226-7.806a.568.568 0 0 1 .706.551v6.988a16.285 16.285 0 0 0 16.284 16.284 15.716 15.716 0 0 0 15.716-15.716v-15.715a.569.569 0 0 1 .569-.569 56.57 56.57 0 0 1 40 16.569l.235.235a24.568 24.568 0 0 1 7.2 17.373v29.254a.569.569 0 0 1 -.573.569z" fill="#00abed"/><path d="m200 200h-118.863a80 80 0 0 1 -56.568-23.431l-.569-.569.009-.007a146 146 0 0 1 91.205-31.993h84.786z" fill="#00abed"/><g opacity=".586"><path d="m88 160h24v16h-24z" fill="#0081b2"/></g><path d="m416 264-40-56h-64v32h48l40 56h36.223a57.889 57.889 0 0 0 51.777-32z" fill="#0081b2"/><g fill="#00abed"><path d="m436.223 208h-36.223l-45.619 56h-42.667l.286 32h56l48-56h72a57.889 57.889 0 0 0 -51.777-32z"/><path d="m200 296h-160l-16-16 16-16h160z"/><path d="m432 344-16 8h-104v32h104l16 8h56v-48z"/></g><path d="m464 344h24v48h-24z" fill="#0081b2"/><path d="m200 384h-32a16 16 0 0 1 -16-16 16 16 0 0 1 16-16h32z" fill="#0081b2"/><path d="m232 304a8 8 0 0 1 -8-8v-24a8 8 0 0 1 16 0v24a8 8 0 0 1 -8 8z" fill="#0a71cd"/><path d="m232 384a8 8 0 0 1 -8-8v-48a8 8 0 0 1 16 0v48a8 8 0 0 1 -8 8z" fill="#0a71cd"/><circle cx="256" cy="96" fill="#accadc" r="24"/><path d="m486.226 82.911a64.15 64.15 0 0 0 -45.658-18.911 8.578 8.578 0 0 0 -8.568 8.568v15.716a7.724 7.724 0 0 1 -7.716 7.716 8.293 8.293 0 0 1 -8.284-8.284v-6.987a8.568 8.568 0 0 0 -10.646-8.313l-30.336 7.584h-57.043a64 64 0 0 0 -125.975 16v40h-76.786a154.477 154.477 0 0 0 -96.125 33.686 8 8 0 0 0 -.746 11.971l.568.569a87.424 87.424 0 0 0 62.226 25.774h110.863v48h-152a8 8 0 0 0 -5.657 2.343l-16 16a8 8 0 0 0 0 11.314l16 16a8 8 0 0 0 5.657 2.343h152v40h-24a24.039 24.039 0 0 0 -22.624 16h-33.376l-9.6-12.8a8 8 0 0 0 -12.8 9.6l2.4 3.2h-12l-9.6-12.8a8 8 0 0 0 -12.8 9.6l2.4 3.2h-12l-9.6-12.8a8 8 0 0 0 -12.8 9.6l2.4 3.2h-4a8 8 0 0 0 0 16h16l9.6 12.8a8 8 0 1 0 12.8-9.6l-2.4-3.2h12l9.6 12.8a8 8 0 1 0 12.8-9.6l-2.4-3.2h12l9.6 12.8a8 8 0 1 0 12.8-9.6l-2.4-3.2h21.376a24.039 24.039 0 0 0 22.624 16h24.518a64.106 64.106 0 0 0 56.211 55.575 40 40 0 1 0 65.727-37.568 63.456 63.456 0 0 0 5.026-18.007h94.629l14.311 7.155a7.994 7.994 0 0 0 3.578.845h56a8 8 0 0 0 8-8v-48a8 8 0 0 0 -8-8h-56a7.994 7.994 0 0 0 -3.578.845l-14.311 7.155h-94.111v-40h48a8 8 0 0 0 6.074-2.794l9.147-10.671 11.122 11.122a8 8 0 0 0 5.657 2.343h36.223a65.527 65.527 0 0 0 58.932-36.422 8 8 0 0 0 -7.155-11.578h-68.687l-3.494-3.5 3.861-4.5h68.32a8 8 0 0 0 7.155-11.578 65.527 65.527 0 0 0 -58.932-36.422h-36.223a8 8 0 0 0 -6.2 2.947l-6.353 7.8-4.789-7.184a8 8 0 0 0 -6.658-3.563h-56v-56h167.432a8.578 8.578 0 0 0 8.568-8.568v-29.255a32.364 32.364 0 0 0 -9.539-23.031zm-294.226 293.089h-24a8 8 0 0 1 0-16h24zm0-88h-148.687l-8-8 8-8h148.687zm0-96h-110.863a71.448 71.448 0 0 1 -44.537-15.414 138.574 138.574 0 0 1 78.614-24.586h76.786zm64 240a48.053 48.053 0 0 1 -48-48v-288a48 48 0 0 1 96 0v288a48.053 48.053 0 0 1 -48 48zm32 32a24.039 24.039 0 0 1 -22.849-16.665 63.993 63.993 0 0 0 40.738-23.312 23.984 23.984 0 0 1 -17.889 39.977zm184-112h8v32h-8zm-56 8a7.994 7.994 0 0 0 3.578-.845l14.311-7.155h22.111v32h-22.111l-14.311-7.155a7.994 7.994 0 0 0 -3.578-.845h-96v-16zm-96-112h37.1l-6.517 8h-30.583zm96 24h56.874a49.594 49.594 0 0 1 -36.651 16h-32.91l-9.648-9.649 11.71-13.662 4.968 4.968a8 8 0 0 0 5.657 2.343zm-12.2-56h32.421a49.594 49.594 0 0 1 36.651 16h-56.872a8 8 0 0 0 -6.074 2.794l-45.606 53.206h-44.32v-16h34.381a8 8 0 0 0 6.2-2.947zm-32.083 0 5.151 7.727-6.738 8.273h-50.13v-16zm108.283-88h-160v-32h55.93a8.551 8.551 0 0 0 1.962-.228c.039-.008.078-.018.117-.028l22.119-5.529a24.317 24.317 0 0 0 24.156 21.785 23.743 23.743 0 0 0 23.716-23.716v-7.722a48.188 48.188 0 0 1 26.911 13.664l.235.235a16.458 16.458 0 0 1 4.854 11.716z"/><path d="m88 160h24v16h-24z"/><path d="m232 264a8 8 0 0 0 -8 8v24a8 8 0 0 0 16 0v-24a8 8 0 0 0 -8-8z"/><path d="m232 320a8 8 0 0 0 -8 8v48a8 8 0 0 0 16 0v-48a8 8 0 0 0 -8-8z"/><path d="m256 64a32 32 0 1 0 32 32 32.036 32.036 0 0 0 -32-32zm0 48a16 16 0 1 1 16-16 16.019 16.019 0 0 1 -16 16z"/></g></svg>