<svg height="512" viewBox="0 0 512 512" width="512" xmlns="http://www.w3.org/2000/svg"><g id="filled_outline" data-name="filled outline"><path d="m192 488h32l136-384h-32z" fill="#007af6"/><path d="m290 440h-169a8 8 0 0 1 0-16h169a8 8 0 0 1 0 16z" fill="#0045c7"/><path d="m72 488h32l136-384h-32z" fill="#007af6"/><path d="m232 104h112v32h-112z" fill="#c1e3f7"/><path d="m232 120h112v16h-112z" fill="#afcee0"/><path d="m248 168h112v32h-112z" fill="#c1e3f7"/><path d="m248 184h112v16h-112z" fill="#afcee0"/><path d="m264 232h112v32h-112z" fill="#c1e3f7"/><path d="m264 248h112v16h-112z" fill="#afcee0"/><path d="m280 296h112v32h-112z" fill="#c1e3f7"/><path d="m280 312h112v16h-112z" fill="#afcee0"/><path d="m296 360h112v32h-112z" fill="#c1e3f7"/><path d="m296 376h112v16h-112z" fill="#afcee0"/><path d="m304 424h112v32h-112z" fill="#c1e3f7"/><path d="m304 440h112v16h-112z" fill="#afcee0"/><path d="m212 24h120a20 20 0 0 1 20 20v12a0 0 0 0 1 0 0h-160a0 0 0 0 1 0 0v-12a20 20 0 0 1 20-20z" fill="#0045c7"/><path d="m328 488h-32l-104-432h32z" fill="#3a97ff"/><path d="m456 488h-32l-104-432h32z" fill="#3a97ff"/><path d="m65.467 492.617a8 8 0 0 0 6.533 3.383h32a8 8 0 0 0 7.541-5.329l17.946-50.671h71.026l-16.054 45.329a8 8 0 0 0 7.541 10.671h32a8 8 0 0 0 7.541-5.329l17.946-50.671h26.729l12.006 49.873a8 8 0 0 0 7.778 6.127h32a8 8 0 0 0 7.778-9.873l-5.327-22.127h79.543l6.228 25.873a8 8 0 0 0 7.778 6.127h32a8 8 0 0 0 7.778-9.873l-103.778-431.077v-11.05a28.032 28.032 0 0 0 -28-28h-120a28.032 28.032 0 0 0 -28 28v12 .037c0 .086.01.172.013.259.007.206.017.411.04.613.01.088.028.176.041.265.029.2.064.405.109.6.007.032.01.064.017.1l12.8 53.163-132.561 374.292a8 8 0 0 0 1.008 7.288zm69.687-68.617 81.685-230.641 28.742 119.389-39.401 111.252zm83.192 56h-15.026l14.167-40h15.026zm19.834-56h-15.026l29.3-82.72 6.081 25.259zm16.974 0 10.246-28.929 6.964 28.929zm47.146 56-100.146-416h15.546l100.146 416zm1.185-128-3.852-16h79.543l3.852 16zm83.395 16 3.851 16h-79.539l-3.852-16zm-91.1-48-3.852-16h.021.047.025 79.45l3.852 16zm-8.4-34.915-3.151-13.085h7.784zm15.94 2.915 5.667-16h54.784l3.852 16zm-22.943-32-3.852-16h79.543l3.851 16zm-7.7-32-3.852-16h13.855l-5.667 16zm21.314 0 5.667-16h15.022l-5.667 16zm32 0 5.667-16h16.71l3.852 16zm-61.018-32-3.852-16h79.539l3.852 16zm-7.7-32-3.852-16h51.932l-5.666 16zm74.414 0h-15.033l5.666-16h10.637l1.776 7.379zm-82.118-32-3.852-16h79.543l3.852 16zm-7.7-32-7.7-32h79.531l7.7 32zm73.185 304h79.543l3.852 16h-79.549zm11.546 48-3.852-16h79.542l3.852 16zm119.247 32h-15.547l-100.146-416h15.546zm-245.847-436a12.013 12.013 0 0 1 12-12h120a12.013 12.013 0 0 1 12 12v4h-144zm3.89 95.568 6.091 25.3c-.064.152-.133.3-.189.458l-111.446 314.674h-15.026z"/></g></svg>