<svg height="512" viewBox="0 0 512 512" width="512" xmlns="http://www.w3.org/2000/svg"><g id="filled_outline" data-name="filled outline"><path d="m8 208h496v96h-496z" fill="#007af6" transform="matrix(.707 .707 -.707 .707 256 -106.039)"/><path d="m214.627 217.373h128v32h-128z" fill="#009cf7" transform="matrix(.707 .707 -.707 .707 246.627 -128.666)"/><circle cx="142.863" cy="142.863" fill="#0a71cd" r="40"/><path d="m180.1 128.25-51.85 51.85a40.029 40.029 0 0 1 -22.63-22.63l51.85-51.85a40.029 40.029 0 0 1 22.63 22.63z" fill="#0a71cd"/><path d="m180.1 128.25-51.85 51.85a40.029 40.029 0 0 1 -22.63-22.63l51.85-51.85a40.029 40.029 0 0 1 22.63 22.63z" fill="#009cf7"/><circle cx="142.863" cy="142.863" fill="#c1e3f7" r="16"/><circle cx="278.627" cy="233.373" fill="#c1e3f7" r="16"/><circle cx="369.137" cy="369.137" fill="#0a71cd" r="40"/><path d="m409.14 369.14a39.714 39.714 0 0 1 -3.34 16h-73.32a39.993 39.993 0 0 1 0-32h73.32a39.714 39.714 0 0 1 3.34 16z" fill="#0a71cd"/><path d="m409.14 369.14a39.714 39.714 0 0 1 -3.34 16h-73.32a39.993 39.993 0 0 1 0-32h73.32a39.714 39.714 0 0 1 3.34 16z" fill="#009cf7"/><circle cx="369.137" cy="369.137" fill="#c1e3f7" r="16"/><path d="m248 191.431h16v16h-16z" fill="#007af6" transform="matrix(.707 -.707 .707 .707 -66.042 239.404)"/><path d="m304.569 248h16v16h-16z" fill="#007af6" transform="matrix(.707 -.707 .707 .707 -89.467 296.035)"/><path d="m53.324 21.324h32v96h-32z" fill="#0a71cd" transform="matrix(.707 .707 -.707 .707 69.324 -28.715)"/><path d="m426.676 394.676h32v96h-32z" fill="#0a71cd" transform="matrix(.707 .707 -.707 .707 442.676 -183.362)"/><path d="m97.607 18.412a8 8 0 0 0 -11.313 0l-67.882 67.882a8 8 0 0 0 0 11.313l395.981 395.981a8 8 0 0 0 11.313 0l67.882-67.882a8 8 0 0 0 0-11.313zm294.154 342.728h8.364a32.1 32.1 0 0 1 0 16h-8.365a23.936 23.936 0 0 0 0-16zm-96.161-110.797a23.856 23.856 0 0 0 4.666-6.647l6.647 6.647-5.658 5.657 11.314 11.312 5.657-5.657 5.657 5.657-11.315 11.315-23.618-23.617a23.834 23.834 0 0 0 6.65-4.667zm-22.63-22.627a8 8 0 1 1 0 11.313 8.012 8.012 0 0 1 0-11.313zm-22.626-33.942-5.657 5.657 11.313 11.314 5.658-5.657 6.648 6.647a23.539 23.539 0 0 0 -11.316 11.315l-23.618-23.618 11.315-11.315zm-90.551-33.9c.014-.014.028-.024.041-.037s.024-.027.037-.041l14.923-14.923a31.978 31.978 0 0 1 -29.924 29.924zm-22.587-11.354a8 8 0 1 1 11.35-.041l-.077.077a8.008 8.008 0 0 1 -11.273-.036zm21.91-33.232a32.283 32.283 0 0 1 11.318 11.312l-5.935 5.935a23.546 23.546 0 0 0 -11.318-11.313zm-123.733-23.337 56.568-56.568 11.314 11.317-56.565 56.565zm60.417 60.419-37.79-37.79 56.57-56.57 37.79 37.79a48.475 48.475 0 0 0 -9.507-.938 48 48 0 0 0 -48 48 48.475 48.475 0 0 0 .937 9.508zm24.435-32.135a31.763 31.763 0 0 1 20.606-9.3l-29.909 29.909a31.763 31.763 0 0 1 9.304-20.609zm6.365 50.2a32.125 32.125 0 0 1 -6.365-4.943 32.206 32.206 0 0 1 -4.948-6.374l5.935-5.935a23.838 23.838 0 0 0 4.669 6.653 23.82 23.82 0 0 0 6.643 4.665zm198.624 179.353c-.049.1-.1.21-.144.317a47.979 47.979 0 0 0 -2.992 28.553l-188.731-188.732a48.465 48.465 0 0 0 9.506.937 48 48 0 0 0 48-48 48.465 48.465 0 0 0 -.937-9.506l43.447 43.443-16.973 16.974a8 8 0 0 0 0 11.315l90.51 90.51a8 8 0 0 0 11.315 0l16.975-16.972 43.461 43.461a48 48 0 0 0 -53.434 27.7zm12.926 27.352a32.111 32.111 0 0 1 0-16h8.363a23.944 23.944 0 0 0 0 16zm30.987-40a31.861 31.861 0 0 1 21.135 8h-21.02c-.039 0-.077 0-.115 0s-.077 0-.116 0h-21.021a31.861 31.861 0 0 1 21.137-8.003zm8 32a8 8 0 1 1 -8.058-8h.116a8.007 8.007 0 0 1 7.942 7.997zm13.128 24a31.91 31.91 0 0 1 -42.257 0zm-30.649 23.045a47.988 47.988 0 0 0 53.284-27.366 7.664 7.664 0 0 0 .341-.755 47.968 47.968 0 0 0 2.945-28.448l37.805 37.8-56.57 56.57zm60.433 60.432-11.314-11.317 56.565-56.565 11.313 11.314z"/></g></svg>