<svg height="512" viewBox="0 0 512 512" width="512" xmlns="http://www.w3.org/2000/svg"><g id="filled_outline" data-name="filled outline"><path d="m335.044 277.809-99.8-99.936 29.977-26.822 98.1 98.474a20 20 0 0 1 0 28.284 20 20 0 0 1 -28.277 0z" fill="#0a71cd"/><path d="m241.706 105.275-57.983-57.983a54 54 0 0 0 -76.368 0l-57.982 57.983a32 32 0 0 0 0 45.255l16.97 16.97 84.857-84.852 56.569 56.568z" fill="#0a71cd"/><circle cx="422.725" cy="456" r="8"/><path d="m250.475 176.956h56v32h-56z" fill="#afcee0" transform="matrix(.707 -.707 .707 .707 -54.877 253.427)"/><path d="m273.103 199.584h56v32h-56z" fill="#afcee0" transform="matrix(.707 -.707 .707 .707 -64.25 276.055)"/><path d="m264.274 203.241h56v7.029h-56z" fill="#9fbbcb" transform="matrix(.707 -.707 .707 .707 -60.593 267.226)"/><path d="m445.353 433.373-141.422-141.422 16.97-39.6-16.97-16.97-28.285 28.284-45.254-45.255 33.941-33.941a48 48 0 0 0 -67.882-67.882l-33.941 33.943-45.255 45.255 282.845 282.842a32 32 0 0 0 45.255 0 32 32 0 0 0 -.002-45.254z" fill="#007af6"/><g fill="#c1e3f7"><path d="m66.343 167.5-16.97-16.97 77.781-77.782a10 10 0 0 1 14.142 0l9.9 9.9z"/><path d="m79.16 124.33 10.12 20.24-11.62 11.61a7.632 7.632 0 0 1 -1.5-2.07l-10.13-20.24 11.63-11.62a7.683 7.683 0 0 1 1.5 2.08z"/><path d="m96.13 107.35 10.12 20.25-11.62 11.61a7.632 7.632 0 0 1 -1.5-2.07l-10.12-20.25 11.62-11.62a8.135 8.135 0 0 1 1.5 2.08z"/><path d="m113.1 90.38 10.12 20.25-11.62 11.62a8.135 8.135 0 0 1 -1.5-2.08l-10.12-20.25 11.62-11.62a8.135 8.135 0 0 1 1.5 2.08z"/><path d="m140.19 93.66-11.62 11.61a7.632 7.632 0 0 1 -1.5-2.07l-10.12-20.25 10.2-10.2a9.852 9.852 0 0 1 1.56-1.27 7.627 7.627 0 0 1 1.36 1.93z"/><path d="m119.397 132.672h24v64h-24z" transform="matrix(.707 .707 -.707 .707 154.926 -44.68)"/><path d="m134.53 178.51-11.62 11.61a7.632 7.632 0 0 1 -1.5-2.07l-10.12-20.25 11.62-11.61a8.135 8.135 0 0 1 1.5 2.08z"/><path d="m151.5 161.54-11.62 11.61a7.632 7.632 0 0 1 -1.5-2.07l-10.12-20.25 11.62-11.61a7.632 7.632 0 0 1 1.5 2.07z"/></g><path d="m383.126 461.657-11.314-11.314 16.972-16.97-226.274-226.273-16.972 16.97-11.312-11.314 22.627-22.627a8 8 0 0 1 11.314 0l237.588 237.587a8 8 0 0 1 0 11.314z" fill="#0a71cd"/><path d="m151.5 161.54-11.62 11.61a7.632 7.632 0 0 1 -1.5-2.07l-10.12-20.25 11.62-11.61a7.632 7.632 0 0 1 1.5 2.07z" fill="#afcee0"/><path d="m134.53 178.51-11.62 11.61a7.632 7.632 0 0 1 -1.5-2.07l-10.12-20.25 11.62-11.61a8.135 8.135 0 0 1 1.5 2.08z" fill="#afcee0"/><path d="m106.25 127.6-11.62 11.61a7.632 7.632 0 0 1 -1.5-2.07l-10.12-20.25 11.62-11.62a8.135 8.135 0 0 1 1.5 2.08z" fill="#afcee0"/><path d="m89.28 144.57-11.62 11.61a7.632 7.632 0 0 1 -1.5-2.07l-10.13-20.24 11.63-11.62a7.683 7.683 0 0 1 1.5 2.08z" fill="#afcee0"/><path d="m123.22 110.63-11.62 11.62a8.135 8.135 0 0 1 -1.5-2.08l-10.12-20.25 11.62-11.62a8.135 8.135 0 0 1 1.5 2.08z" fill="#afcee0"/><path d="m140.19 93.66-11.62 11.61a7.632 7.632 0 0 1 -1.5-2.07l-10.12-20.25 10.2-10.2a9.852 9.852 0 0 1 1.56-1.27 7.627 7.627 0 0 1 1.36 1.93z" fill="#afcee0"/><path d="m417.068 450.343a8 8 0 1 0 11.314 0 8 8 0 0 0 -11.314 0z"/><path d="m451.01 427.716-137.592-137.591 6.788-15.84 9.182 9.182a28 28 0 0 0 39.6-39.6l-31.112-31.112a8 8 0 0 0 0-11.313l-45.254-45.255a7.984 7.984 0 0 0 -6.335-2.31c.065-1.11.109-2.225.109-3.347a56.05 56.05 0 0 0 -42.48-54.362l-54.536-54.533a62.071 62.071 0 0 0 -87.682 0l-57.981 57.983a40 40 0 0 0 0 56.57l16.97 16.969a8 8 0 0 0 11.314 0l79.2-79.2 28.283 28.285-16.969 16.97-11.315-11.312a8 8 0 0 0 -11.314 0l-45.259 45.257a8 8 0 0 0 0 11.315l16.971 16.97 282.842 282.842a40 40 0 1 0 56.57-56.568zm-203.648-214.961 33.938 33.945-5.657 5.657-33.941-33.941zm62.226-16.97 11.312 11.315-22.628 22.628-5.656 5.656-11.312-11.313zm-22.628 67.882 16.971-16.97 7.484 7.484-10.183 23.758zm70.712 8.485a12.016 12.016 0 0 1 -16.971 0l-13.701-13.706 1.26-2.941a8 8 0 0 0 -1.7-8.809l-11.314-11.313 11.314-11.314 31.112 31.113a12.012 12.012 0 0 1 0 16.97zm-70.711-98.995 11.313 11.314-28.284 28.285-11.314-11.314zm-231.931-62.224 57.983-57.984a46.051 46.051 0 0 1 65.052 0l42.459 42.459a55.6 55.6 0 0 0 -29.73 15.524l-43.84-43.841a18.022 18.022 0 0 0 -25.457 0l-71.161 71.162a24.032 24.032 0 0 1 4.694-27.32zm81.387-24.821-3.771-7.541.166-.166a2 2 0 0 1 2.828 0l4.242 4.242zm-16.971 16.971-3.77-7.541 5.044-5.042 3.771 7.541zm-16.971 16.971-3.77-7.542 5.045-5.045 3.771 7.541zm-16.97 16.971-3.771-7.542 5.046-5.045 3.77 7.541zm-19.162 19.162-5.656-5.656 9.122-9.122 3.771 7.541zm45.257 22.627 3.465-3.465 3.771 7.542-1.579 1.58zm19.162-7.848-3.771-7.543 5.045-5.045 3.771 7.543zm20.438-20.436-3.469 3.47-3.771-7.543 1.579-1.579zm226.271 294.156-226.271-226.274 11.31-11.312 226.274 226.273zm62.229 28.284a24.027 24.027 0 0 1 -33.94 0l-16.976-16.97 16.971-16.97a8 8 0 0 0 0-11.314l-237.588-237.588a8 8 0 0 0 -11.313 0l-16.971 16.972-11.314-11.314 73.54-73.539a40 40 0 1 1 56.568 56.567l-33.942 33.942a8 8 0 0 0 0 11.314l214.965 214.96a24 24 0 0 1 0 33.94z"/></g></svg>