<svg height="512" viewBox="0 0 512 512" width="512" xmlns="http://www.w3.org/2000/svg"><g id="filled_outline" data-name="filled outline"><path d="m224 224v32l-25.716 47.758a200 200 0 0 0 -22.361 119.626l6.278 50.221a16.432 16.432 0 0 0 16.306 14.395 16.434 16.434 0 0 0 16.4-17.459l-3.55-56.791a200.01 200.01 0 0 1 20.725-101.919l23.918-47.831v-48z" fill="#0c82ed"/><path d="m256 248h-32v-24l32-8z" fill="#009cf7"/><path d="m288 224v32l25.716 47.758a200 200 0 0 1 22.361 119.626l-6.277 50.221a16.432 16.432 0 0 1 -16.307 14.395 16.434 16.434 0 0 1 -16.4-17.459l3.55-56.791a200.01 200.01 0 0 0 -20.725-101.919l-23.918-47.831v-48z" fill="#0a71cd"/><path d="m256 248h32v-24l-32-8z" fill="#007af6"/><path d="m272 24 16 128v32l-32 8v-168z" fill="#c5c5c3"/><path d="m256 176v-152h-16l-16 128v32l9.371 8a24 24 0 1 0 22.629-16z" fill="#eaeae8"/><path d="m216 224v29.983l-24.76 45.981a206.885 206.885 0 0 0 -23.256 124.412l6.278 50.221a24.434 24.434 0 0 0 48.631-4.555l-3.549-56.792a192.22 192.22 0 0 1 19.9-97.841l16.756-33.521 16.76 33.521a192.22 192.22 0 0 1 19.9 97.841l-3.549 56.792a24.434 24.434 0 0 0 48.631 4.555l6.278-50.221a206.885 206.885 0 0 0 -23.26-124.412l-24.76-45.981v-29.983a8 8 0 0 0 -6.06-7.761l-5.6-1.4a31.9 31.9 0 0 0 2.76-22.366l2.841-.711a8 8 0 0 0 6.059-7.762v-32a8.019 8.019 0 0 0 -.062-.992l-16-128a8 8 0 0 0 -7.938-7.008h-32a8 8 0 0 0 -7.938 7.008l-16 128a8.019 8.019 0 0 0 -.062.992v32a8 8 0 0 0 2.806 6.084l5.606 4.786a31.96 31.96 0 0 0 3.249 19.968l-5.6 1.4a8 8 0 0 0 -6.061 7.762zm90.672 83.55a190.959 190.959 0 0 1 21.467 114.842l-6.278 50.221a8.447 8.447 0 0 1 -8.368 7.387 8.432 8.432 0 0 1 -8.417-8.959l3.549-56.792a208.246 208.246 0 0 0 -21.554-106l-23.071-46.137v-6.112h16a8.009 8.009 0 0 0 .956 3.793zm-42.672-67.55v-9.013a31.7 31.7 0 0 0 7.332-2.908l8.668 2.167v9.754zm0-208h.938l15.062 120.5v25.256l-.828.207a32.015 32.015 0 0 0 -15.172-8.951zm-32 120.5 15.062-120.5h.938v144a8 8 0 0 0 8 8 16 16 0 1 1 -15.086 10.667 8 8 0 0 0 -2.349-8.751l-6.565-5.6zm0 77.748 8.668-2.167a31.7 31.7 0 0 0 7.332 2.906v9.013h-16zm-.956 29.547a8.009 8.009 0 0 0 .956-3.795h16v6.112l-23.071 46.141a208.246 208.246 0 0 0 -21.554 106l3.549 56.792a8.432 8.432 0 0 1 -8.417 8.955 8.447 8.447 0 0 1 -8.368-7.387l-6.278-50.221a190.959 190.959 0 0 1 21.467-114.842z"/></g></svg>