<svg height="512" viewBox="0 0 512 512" width="512" xmlns="http://www.w3.org/2000/svg"><g id="filled_outline" data-name="filled outline"><path d="m486.275 153.568a27.592 27.592 0 0 0 -14.087-34.522c-95.365-45.227-211.637-39.455-304.415 25.236a307.311 307.311 0 0 0 -25.292 19.676l31.728 45.5a249.265 249.265 0 0 1 274.408-40.595 27.553 27.553 0 0 0 37.658-15.3z" fill="#007af6"/><path d="m465.935 206.63a28.453 28.453 0 0 0 -13.8-36.058 249.265 249.265 0 0 0 -277.928 38.89l32.9 47.184a192.2 192.2 0 0 1 219.816-35.059 28.438 28.438 0 0 0 39.01-14.957z" fill="#54baf6"/><path d="m444.825 259.359a27.936 27.936 0 0 0 -12.641-35.07 192.2 192.2 0 0 0 -225.075 32.357l32.674 46.861a136.168 136.168 0 0 1 166.035-29.8 27.945 27.945 0 0 0 39.007-14.348z" fill="#569fe6"/><path d="m267.168 378.754a37.924 37.924 0 0 1 -26.919-11.195l-70.233-70.493a7.989 7.989 0 0 0 -10.243-.916l-28.362 19.777a8 8 0 0 1 -9.152-13.125l28.363-19.777a23.968 23.968 0 0 1 30.728 2.748l70.234 70.493a21.965 21.965 0 0 0 28.167 2.518l.68-.473a22.025 22.025 0 0 0 5.465-30.63l-60.627-86.952a8 8 0 0 1 13.125-9.15l60.627 86.95a38.043 38.043 0 0 1 -9.437 52.905l-.679.473a37.923 37.923 0 0 1 -21.737 6.847z" fill="#007af6"/><path d="m245.38 265.494h58.442v64h-58.442z" fill="#eaeae8" transform="matrix(.572 .82 -.82 .572 361.572 -97.911)"/><path d="m155.787 135.25h56v64h-56z" fill="#009cf7" transform="matrix(.572 .82 -.82 .572 215.862 -79.167)"/><path d="m187.817 181.186h56v64h-56z" fill="#65c2ff" transform="matrix(.572 .82 -.82 .572 267.253 -85.778)"/><path d="m219.846 227.122h56v64h-56z" fill="#3a97ff" transform="matrix(.572 .82 -.82 .572 318.644 -92.388)"/><path d="m140.56 329.05-24.26 7.17-15.54 17.83a76.134 76.134 0 0 1 -13.79 12.37l-10.48 7.31a75.76 75.76 0 0 1 -32.15 12.78 1.846 1.846 0 0 1 -.23.04l-18.3-26.25a75.723 75.723 0 0 1 23.22-25.95l10.49-7.31a75.634 75.634 0 0 1 16.37-8.65l22.11-8.42 15.11-20.29 7.02 10.06z" fill="#c36f53"/><path d="m140.56 329.05-24.26 7.17-15.54 17.83a76.134 76.134 0 0 1 -13.79 12.37l-10.48 7.31a75.76 75.76 0 0 1 -32.15 12.78l-11.38-16.32a75.723 75.723 0 0 1 23.22-25.95l10.49-7.31a76.113 76.113 0 0 1 16.37-8.66l22.11-8.42 14.98-20.11z" fill="#975640"/><path d="m475.616 111.817a311.832 311.832 0 0 0 -280.3 6.273 8 8 0 0 0 -5.871 1.327l-52.5 36.6a8 8 0 0 0 -1.987 11.138l123.542 177.187a8 8 0 0 0 11.138 1.987l18.987-13.239a22.025 22.025 0 0 1 -8.2 25.221l-.68.473a21.966 21.966 0 0 1 -28.167-2.518l-70.228-70.493a23.968 23.968 0 0 0 -30.728-2.748l-21.8 15.2-9.152-13.125a8 8 0 0 0 -12.978-.2l-13.72 18.42-19.93 7.59a83.954 83.954 0 0 0 -18.1 9.569l-10.486 7.312a84.2 84.2 0 0 0 -25.674 28.685 8 8 0 0 0 .465 8.4l18.3 26.249a8 8 0 0 0 7.72 3.34 84.213 84.213 0 0 0 35.796-14.175l10.487-7.311a83.915 83.915 0 0 0 15.236-13.674l14.014-16.076 22.028-6.5a8 8 0 0 0 4.3-12.248l-9.151-13.125 21.8-15.2a7.989 7.989 0 0 1 10.243.916l70.233 70.493a37.947 37.947 0 0 0 48.656 4.348l.679-.473a38.058 38.058 0 0 0 12.476-47.71l20.08-14a8 8 0 0 0 1.986-11.138l-19.246-27.6a127.574 127.574 0 0 1 97.169 9.78 36.051 36.051 0 0 0 48.059-49.817c.821-.249 1.637-.518 2.443-.827a36.375 36.375 0 0 0 18.488-52.228c.941-.293 1.876-.615 2.8-.989a35.56 35.56 0 0 0 1.778-65.1zm-361.582 216.726a8.006 8.006 0 0 0 -3.765 2.416l-15.544 17.832a67.831 67.831 0 0 1 -12.325 11.063l-10.486 7.311a68.142 68.142 0 0 1 -24.177 10.589l-12.42-17.813a68.166 68.166 0 0 1 18.3-19.025l10.483-7.316a67.9 67.9 0 0 1 14.642-7.741l22.107-8.42a8 8 0 0 0 3.569-2.7l8.481-11.387 14.757 21.163zm103.777-70.535-.2-.281a183.889 183.889 0 0 1 39.389-27.44l23.115 33.151a145.051 145.051 0 0 0 -39.372 27.462zm9.445-28.416a201.675 201.675 0 0 0 -18.856 14.914l-23.535-33.752c6.079-5.2 12.444-10.132 19-14.707q9.891-6.9 20.371-12.747l23.528 33.745a201 201 0 0 0 -20.508 12.547zm-32.542-46.67c-6.557 4.573-12.937 9.476-19.05 14.639l-22.449-32.2c6.2-5.1 32.477-23.421 39.378-27.447l22.453 32.2q-10.426 5.918-20.332 12.808zm111.712 118.253-39.374 27.454-17.005-24.389a128.476 128.476 0 0 1 39.366-27.465zm130.975-44.8a20.115 20.115 0 0 1 -11.77 11.387 19.492 19.492 0 0 1 -16.045-1.113 143.475 143.475 0 0 0 -114.283-9.4l-23.57-33.8a183.932 183.932 0 0 1 156.685 7.9 19.875 19.875 0 0 1 8.982 25.027zm21.1-52.713a20.437 20.437 0 0 1 -28.033 10.753c-.019-.01-.039-.016-.058-.025a200 200 0 0 0 -168.045-4.376l-23.782-34.114a240.791 240.791 0 0 1 206.6.192c.761.361 1.536.684 2.316.988a8.059 8.059 0 0 0 1.091.662 20.548 20.548 0 0 1 9.915 25.921zm20.27-52.878a19.554 19.554 0 0 1 -26.727 10.856 256.745 256.745 0 0 0 -222.732.97l-22.608-32.424a295.854 295.854 0 0 1 262.052-3.913 19.494 19.494 0 0 1 10.019 24.512z"/></g></svg>