<svg height="512" viewBox="0 0 512 512" width="512" xmlns="http://www.w3.org/2000/svg"><g id="filled_outline" data-name="filled outline"><path d="m120 416h320v-392zm256-64h-123.755l124.082-152z" fill="#0083f7"/><g fill="#009cf7"><path d="m408 360h32v16h-32z"/><path d="m416 328h24v16h-24z"/><path d="m408 296h32v16h-32z"/><path d="m416 264h24v16h-24z"/><path d="m408 232h32v16h-32z"/><path d="m408 168h32v16h-32z"/><path d="m416 200h24v16h-24z"/><path d="m408 104h32v16h-32z"/><path d="m416 136h24v16h-24z"/></g><path d="m176 96h48v312h-48z" fill="#c36f53"/><path d="m192 96h16v312h-16z" fill="#975640"/><path d="m176 408h48v32h-48z" fill="#c1e3f7"/><path d="m176 440h48a0 0 0 0 1 0 0v24a24 24 0 0 1 -24 24 24 24 0 0 1 -24-24v-24a0 0 0 0 1 0 0z" fill="#60b9f3"/><path d="m200 64a8 8 0 0 1 -8-8v-24a8 8 0 0 1 16 0v24a8 8 0 0 1 -8 8z" fill="#0a71cd"/><path d="m64 360h80v112h-80z" fill="#009cf7"/><path d="m82 328h44a10 10 0 0 1 10 10v22a0 0 0 0 1 0 0h-64a0 0 0 0 1 0 0v-22a10 10 0 0 1 10-10z" fill="#60b9f3"/><path d="m144 424-80 16v-32l80-16z" fill="#c1e3f7"/><path d="m176 96 16-40h16l16 40z" fill="#ffae96"/><path d="m442.686 16.464a8.005 8.005 0 0 0 -8.883 2.477l-201.803 247.209v-170.15a7.961 7.961 0 0 0 -.576-2.969l-.047-.118-.015-.035-15.934-39.849a8 8 0 0 0 -7.428-5.029v-16a8 8 0 0 0 -16 0v16a8 8 0 0 0 -7.428 5.029l-15.938 39.847-.015.035-.047.118a7.961 7.961 0 0 0 -.572 2.971v248.55l-16 19.6v-4.15a8 8 0 0 0 -8-8v-14a18.021 18.021 0 0 0 -18-18h-44a18.021 18.021 0 0 0 -18 18v14a8 8 0 0 0 -8 8v112a8 8 0 0 0 8 8h80a8 8 0 0 0 8-8v-48h16v40a32 32 0 0 0 64 0v-40h208a8 8 0 0 0 8-8v-392a8 8 0 0 0 -5.314-7.536zm-226.686 383.536h-8v-296h8zm-24 0h-8v-296h8zm-8 16h32v16h-32zm28.184-328h-24.368l9.6-24h5.166zm-140.184 280h64v17.441l-64 12.8zm0 46.559 64-12.8v15.682l-64 12.8zm8-76.559a2 2 0 0 1 2-2h44a2 2 0 0 1 2 2v14h-48zm-8 126v-17.441l64-12.8v30.241zm80-56v-18.592c.107-.116 16-19.557 16-19.557v38.149zm64 56a16 16 0 0 1 -32 0v-16h32zm16-56v-116.55l200-245v57.55h-24v16h24v16h-16v16h16v16h-24v16h24v16h-16v16h16v16h-24v16h24v16h-16v16h16v16h-24v16h24v16h-16v16h16v16h-24v16h24v32z"/><path d="m379.02 192.467a8 8 0 0 0 -8.891 2.474l-124.081 152a8 8 0 0 0 6.2 13.059h123.752a8 8 0 0 0 8-7.982l.327-152a8 8 0 0 0 -5.307-7.551zm-11.003 151.533h-98.917l99.175-121.49z"/></g></svg>