<svg height="512" viewBox="0 0 512 512" width="512" xmlns="http://www.w3.org/2000/svg"><g id="filled_outline" data-name="filled outline"><path d="m416 216h72v32h-72z" fill="#0c82ed"/><g fill="#f48b68"><path d="m24 312h248v80h-248z"/><path d="m96 392h-19.31l-3.55-3.55a42.239 42.239 0 0 0 -30.06-12.45h-19.08v-16h19.08a58.123 58.123 0 0 1 41.37 17.14l9.21 9.2a7.98 7.98 0 0 1 2.34 5.66z"/><path d="m84.75 352h-60.75v-16h60.75a148.391 148.391 0 0 0 35.98-4.43 119.716 119.716 0 0 1 29.01-3.57h2.26a8 8 0 0 1 0 16h-2.26a103.859 103.859 0 0 0 -25.13 3.09 164.249 164.249 0 0 1 -39.86 4.91z"/><path d="m208 368a8 8 0 0 1 -8 8h-24.62a62.462 62.462 0 0 0 -37.28 12.43l-4.76 3.57h-21.34a7.992 7.992 0 0 1 3.2-6.4l13.3-9.97a78.581 78.581 0 0 1 46.88-15.63h24.62a8 8 0 0 1 8 8z"/><path d="m272 328v16h-80a8 8 0 0 1 0-16z"/><path d="m232 360h40v16h-40a8 8 0 0 1 0-16z"/></g><path d="m272 312h64v80h-64z" fill="#ffae96"/><path d="m160 336a8 8 0 0 1 -8 8h-2.26a103.859 103.859 0 0 0 -25.13 3.09 164.249 164.249 0 0 1 -39.86 4.91h-60.75v-16h60.75a148.391 148.391 0 0 0 35.98-4.43 119.716 119.716 0 0 1 29.01-3.57h2.26a8 8 0 0 1 8 8z" fill="#c36f53"/><path d="m208 368a8 8 0 0 1 -8 8h-24.62a62.462 62.462 0 0 0 -37.28 12.43l-4.76 3.57h-21.34a7.992 7.992 0 0 1 3.2-6.4l13.3-9.97a78.581 78.581 0 0 1 46.88-15.63h24.62a8 8 0 0 1 8 8z" fill="#c36f53"/><path d="m96 392h-19.31l-3.55-3.55a42.239 42.239 0 0 0 -30.06-12.45h-19.08v-16h19.08a58.123 58.123 0 0 1 41.37 17.14l9.21 9.2a7.98 7.98 0 0 1 2.34 5.66z" fill="#c36f53"/><path d="m272 328v16h-80a8 8 0 0 1 0-16z" fill="#c36f53"/><path d="m272 360v16h-40a8 8 0 0 1 0-16z" fill="#c36f53"/><path d="m182 240 21.413-16.339-14.564-22.662 25.724-7.998-5.901-26.284 26.909 1.269 3.404-26.724 24.856 10.38 12.37-23.929 19.789 18.287 19.789-18.287 12.37 23.929 24.856-10.38 3.404 26.724 26.91-1.268-5.902 26.283 25.724 7.999-14.564 22.661 21.413 16.339-21.413 16.339 14.564 22.662-25.724 7.998 5.901 26.284-26.909-1.269-3.404 26.724-24.856-10.38-12.37 23.929-19.789-18.287-19.789 18.287-12.37-23.929-24.856 10.38-3.404-26.724-26.91 1.268 5.902-26.283-25.724-7.999 14.564-22.661z" fill="#eaeae8"/><circle cx="296" cy="240" fill="#c3c3c3" r="64"/><circle cx="296" cy="240" fill="#eaeae8" r="16"/><path d="m148.373 224a8 8 0 0 1 -7.9-9.325 151.923 151.923 0 0 1 3.84-16.894 8 8 0 0 1 15.374 4.436 135.647 135.647 0 0 0 -3.435 15.106 8 8 0 0 1 -7.879 6.677z" fill="#c1e3f7"/><path d="m152 288a8.005 8.005 0 0 1 -7.683-5.784 152.253 152.253 0 0 1 -5.945-42.216 8 8 0 0 1 16 0 136.215 136.215 0 0 0 5.315 37.782 8.005 8.005 0 0 1 -7.687 10.218z" fill="#c1e3f7"/><path d="m424 216v40a8 8 0 0 1 -8 8h-224a8 8 0 0 1 -8-8v-40a8 8 0 0 1 16 0v32h208v-32z" fill="#0a71cd"/><path d="m488 216h-32v-12.686a27.315 27.315 0 0 0 -8-19.314 27.315 27.315 0 0 1 -8-19.314v-20.686h40z" fill="#0a71cd"/><path d="m400 112-24 24v80h38l-6-19v-41a12 12 0 0 1 12-12h60l8-8v-24z" fill="#0c82ed"/><path d="m355.34 216h58.26a120.03 120.03 0 0 0 -235.2 0h58.26a64.015 64.015 0 0 1 118.68 0" fill="#0094f6"/><path d="m147.039 223.89a7.995 7.995 0 0 0 9.213-6.566 135.647 135.647 0 0 1 3.435-15.106 8 8 0 0 0 -15.374-4.436 151.923 151.923 0 0 0 -3.84 16.894 8 8 0 0 0 6.566 9.214z"/><path d="m152 288a8.005 8.005 0 0 0 7.691-10.22 136.215 136.215 0 0 1 -5.319-37.78 8 8 0 0 0 -16 0 152.253 152.253 0 0 0 5.941 42.218 8.005 8.005 0 0 0 7.687 5.782z"/><path d="m495.974 215.485c-.007-.114-.009-.229-.021-.341v-.027l-7.575-68.179 5.281-5.281a8 8 0 0 0 2.341-5.657v-24a8 8 0 0 0 -8-8h-88a8 8 0 0 0 -5.657 2.343l-24 24a8 8 0 0 0 -2.177 4.046 127.681 127.681 0 0 0 -72.166-22.389c-60.637 0-113.392 43.069-125.44 102.408a8 8 0 0 0 7.84 9.592h5.6v4.411l-6.853 5.229a8 8 0 0 0 0 12.72l6.853 5.229v4.411a8 8 0 0 0 5.289 7.519l-7.17 11.156a8 8 0 0 0 4.354 11.965l18.677 5.807-2.594 11.553h-178.556a8 8 0 0 0 -8 8v80a8 8 0 0 0 8 8h312a8 8 0 0 0 8-8v-48.357l5.932 2.478a8 8 0 0 0 11.019-6.372l2.47-19.4 19.53.921a8 8 0 0 0 8.183-9.744l-4.285-19.083 18.678-5.807a8 8 0 0 0 4.354-11.965l-6.861-10.671h12.98a8 8 0 0 0 8-8h64a8 8 0 0 0 8-8v-32c0-.012 0-.024 0-.037 0-.154-.016-.317-.026-.478zm-128.429 32.515a71.165 71.165 0 0 0 -1.359-24h14.414a7.983 7.983 0 0 0 3.132 6.021l13.08 9.979-10.484 8zm-79.545-8a8 8 0 1 1 8 8 8.009 8.009 0 0 1 -8-8zm58.586 24a55.983 55.983 0 0 1 -101.172 0zm-28.045-16a21.922 21.922 0 0 0 1.459-8 24 24 0 0 0 -48 0 21.922 21.922 0 0 0 1.459 8h-32.878a56 56 0 1 1 110.838 0zm-112.868 0-5.673-4.328v-7.344l8.266-6.307a7.983 7.983 0 0 0 3.134-6.021h14.416a71.165 71.165 0 0 0 -1.359 24zm196.546-24h5.781v4.411zm17.739-16a126.474 126.474 0 0 0 -3.958-12.623v-39.377a4 4 0 0 1 4-4h12v12.687a35.078 35.078 0 0 0 10.343 24.97 19.187 19.187 0 0 1 5.657 13.656v4.687zm33.7-29.657a19.185 19.185 0 0 1 -5.658-13.656v-12.687h24.84l6.222 56h-15.062v-4.687a35.082 35.082 0 0 0 -10.343-24.97zm-69.658-31.343v-7.686l19.314-19.314h76.686v12.686l-3.314 3.314h-56.686a20.023 20.023 0 0 0 -20 20v9.444a128.741 128.741 0 0 0 -16.175-18.444zm-88-19a112.371 112.371 0 0 1 107.364 80h-42.892a71.958 71.958 0 0 0 -128.944 0h-42.892a112.371 112.371 0 0 1 107.364-80zm-91.651 192a8 8 0 0 0 4.7 1.273l19.531-.92 1 7.834-37.54-.187h-.04a8 8 0 0 0 -.039 16l41.2.2a7.93 7.93 0 0 0 8.906 1.916l4.427-1.849 16.61.082 1.056 2.044a8.052 8.052 0 0 0 -.16 1.607v12h-32a8 8 0 0 0 0 16h32v8h-119.084a62.555 62.555 0 0 1 30.46-8h24.624a8 8 0 0 0 0-16h-24.624a78.618 78.618 0 0 0 -46.876 15.625l-11.166 8.375h-26.021l-6.863-6.863a58.124 58.124 0 0 0 -41.371-17.137h-11.079v-8h52.752a164.5 164.5 0 0 0 39.861-4.907 103.708 103.708 0 0 1 25.124-3.093h2.263a8 8 0 0 0 0-16h-2.263a119.737 119.737 0 0 0 -29 3.57 148.433 148.433 0 0 1 -35.985 4.43h-52.752v-16zm-172.349 56h11.079a42.188 42.188 0 0 1 24.821 8h-35.9zm248 8v-24.676a7.981 7.981 0 0 0 1.641-1.161l14.359-13.27 14.36 13.269a8 8 0 0 0 12.536-2.2l5.1-9.874v37.912zm110.738-109.518-15.687 4.878a8 8 0 0 0 -5.43 9.392l3.6 16.045-16.429-.774a8.017 8.017 0 0 0 -8.313 6.98l-2.076 16.306-15.164-6.333a8 8 0 0 0 -10.19 3.708l-7.547 14.6-12.076-11.158a8 8 0 0 0 -10.859 0l-12.067 11.158-7.547-14.6a8 8 0 0 0 -10.19-3.708l-15.164 6.333-2.082-16.309a8.021 8.021 0 0 0 -8.312-6.981l-16.429.775 3.6-16.046a8 8 0 0 0 -5.43-9.391l-15.686-4.878 6.74-10.479h20.129a71.986 71.986 0 0 0 135.744 0h20.127zm89.262-34.482h-56v-16h56z"/></g></svg>