<svg height="512" viewBox="0 0 512 512" width="512" xmlns="http://www.w3.org/2000/svg"><g id="filled_outline" data-name="filled outline"><path d="m318.046 408.719-24.106-22.69-3.5-28.05-27.647-8.889-2.687-28.914-27.646-8.889-2.688-28.914-27.646-8.888-2.688-28.915-27.646-8.889-2.686-28.912-27.645-8.888-2.688-28.915-27.648-8.89-2.689-28.917-27.648-8.89-2.69-28.918-27.651-8.894-2.692-28.921-.757-.818 27.416-29.127 302.92 285.123-54.831 58.254z" fill="#c6e9fd"/><path d="m377.33 310.71-54.83 58.26-2.71 24.2 32.21 46.83-58.06-53.97-3.5-28.05-27.65-8.89-2.68-28.91-27.65-8.89-2.69-28.92-27.64-8.88-2.69-28.92-27.65-8.89-2.68-28.91-27.65-8.89-2.69-28.91-27.64-8.89-2.69-28.92-27.65-8.89-2.69-28.92-27.65-8.89-2.7-28.92-.75-.82 27.41-29.13.43.4z" fill="#accadc"/><path d="m377.33 310.71-54.83 58.26 29.5 55.03-49.06-46.69-3.5-28.05-27.65-8.89-2.68-28.91-27.65-8.89-2.69-28.92-27.64-8.88-2.69-28.92-27.65-8.89-2.68-28.91-27.65-8.89-2.69-28.91-27.64-8.89-2.69-28.92-27.65-8.89-2.69-28.92-27.65-8.89-2.69-28.92-.76-.82 18.84-20.01z" fill="#c6e9fd"/><path d="m377.334 310.714-54.834 58.254-4.114 51.059 69.9 65.8 16.45-17.476-6.168-16.792 38.382-40.777 17.134 5.14 16.45-17.476zm-2.06 118.911-23.3-21.933-.684-22.617 27.41-29.127 34.953 32.9z" fill="#007af6"/><path d="m378.115 404.202h56v32h-56z" fill="#f48b68" transform="matrix(.685 -.728 .728 .685 -178.213 427.921)"/><path d="m371.741 406.956h56v14.492h-56z" fill="#c36f53" transform="matrix(.685 -.728 .728 .685 -175.85 421.392)"/><path d="m476.023 392.619-396.123-372.853a8 8 0 0 0 -11.308.341l-27.419 29.127a8 8 0 0 0 -1.167 9.375l2.475 26.591a8 8 0 0 0 5.519 6.873l22.621 7.277 2.2 23.66a8 8 0 0 0 5.517 6.875l22.62 7.274 2.2 23.658a8 8 0 0 0 5.517 6.875l22.621 7.273 2.2 23.657a8 8 0 0 0 5.518 6.876l22.616 7.27 2.2 23.653a8 8 0 0 0 5.518 6.876l22.618 7.272 2.2 23.656a8 8 0 0 0 5.518 6.876l22.618 7.272 2.2 23.655a8 8 0 0 0 5.518 6.876l22.618 7.271 2.2 23.655a8 8 0 0 0 5.518 6.876l22.789 7.327 2.855 22.987a8 8 0 0 0 2.455 4.834l22.471 21.151-.514 6.38a8.007 8.007 0 0 0 2.491 6.468l69.905 65.8a8 8 0 0 0 11.308-.341l16.45-17.476a8 8 0 0 0 1.685-8.242l-4.464-12.151 31.605-33.577 12.4 3.72a8 8 0 0 0 8.124-2.18l16.449-17.476a8 8 0 0 0 -.342-11.311zm-174.5-10.44-3.143-25.191a8 8 0 0 0 -5.49-6.625l-22.618-7.273-2.2-23.654a8 8 0 0 0 -5.517-6.876l-22.618-7.272-2.2-23.655a8 8 0 0 0 -5.517-6.876l-22.62-7.272-2.2-23.655a8 8 0 0 0 -5.517-6.876l-22.617-7.272-2.2-23.653a8 8 0 0 0 -5.517-6.877l-22.617-7.27-2.2-23.656a8 8 0 0 0 -5.516-6.876l-22.616-7.273-2.2-23.659a8 8 0 0 0 -5.516-6.875l-22.62-7.273-2.2-23.661a8 8 0 0 0 -5.516-6.874l-22.624-7.277-2.006-21.544 18.838-20.014 291.27 274.157-49.348 52.429a8.009 8.009 0 0 0 -2.15 4.84l-1.954 24.256zm58.346 21.959-.484-15.992 19.661-20.889 23.3 21.932-27.415 29.127zm54.131-3.982 11.651 10.966-27.416 29.127-11.65-10.966zm37.657 6.681-10.589-3.177-56.878-53.537a8 8 0 0 0 -11.309.342l-27.416 29.127a8 8 0 0 0 -2.171 5.725l.685 22.618a8 8 0 0 0 2.512 5.583l45.229 42.571 3.812 10.377-7.578 8.051-61.279-57.68 3.58-44.429 47.424-50.386 81.555 76.765z"/></g></svg>