<svg height="512" viewBox="0 0 512 512" width="512" xmlns="http://www.w3.org/2000/svg"><g id="filled_outline" data-name="filled outline"><path d="m280.9 354.109a7.978 7.978 0 0 1 -5.657-2.343l-209.3-209.3a8 8 0 0 1 11.315-11.313l209.3 209.3a8 8 0 0 1 -5.658 13.656z" fill="#0045c7"/><path d="m467.85 363.352-39.87-39.87-22.628 22.627 23.432 23.432a8 8 0 0 1 .794 10.387l-48.138 65.643a19.767 19.767 0 0 0 1.963 25.667 19.767 19.767 0 0 0 29.918-2.288l48.6-66.272 8.936-14.894a20 20 0 0 0 -3.007-24.432z" fill="#0094f6"/><path d="m184.113 79.615a26 26 0 0 0 -34.5-2.022l-89.329 70.527 22.628 22.627 84.853-62.225 197.989 197.989-73.539 73.54 16.971 16.97a8 8 0 0 0 11.314 0l62.225-62.221a8 8 0 0 1 11.314 0l11.313 11.313 22.628-22.627z" fill="#accadc"/><path d="m62.426 101.007h16a8 8 0 0 1 8 8v24a0 0 0 0 1 0 0h-16a8 8 0 0 1 -8-8v-24a0 0 0 0 1 0 0z" fill="#0094f6" transform="matrix(.707 .707 -.707 .707 104.535 -18.357)"/><path d="m47.8 123.634h16a0 0 0 0 1 0 0v24a8 8 0 0 1 -8 8h-16a0 0 0 0 1 0 0v-24a8 8 0 0 1 8-8z" fill="#0045c7" transform="matrix(.707 .707 -.707 .707 113.908 4.271)"/><path d="m276.215 341.423h32v32h-32z" fill="#0094f6" transform="matrix(.707 .707 -.707 .707 338.324 -101.941)"/><path d="m37.656 159.433a16.018 16.018 0 0 0 22.628 0l16.971 16.967a8 8 0 0 0 10.388.794l7.519-5.514 174.426 174.43-5.657 5.657a8 8 0 0 0 0 11.313l22.627 22.628 16.97 16.969a16 16 0 0 0 22.629 0l62.225-62.225 34.745 34.748-48.138 65.642a27.768 27.768 0 0 0 22.382 44.189c.706 0 1.416-.027 2.126-.081a27.732 27.732 0 0 0 20.275-11.266l48.6-66.272q.219-.3.409-.615l8.937-14.894a27.962 27.962 0 0 0 -4.211-34.2l-283.736-283.745a34.011 34.011 0 0 0 -45.111-2.644l-46.869 37a15.9 15.9 0 0 0 -3.565-5.452l-11.314-11.311a8 8 0 0 0 -11.314 0l-16.971 16.971a15.881 15.881 0 0 0 -4.127 7.188 15.888 15.888 0 0 0 -7.188 4.125l-16.97 16.971a8 8 0 0 0 0 11.314zm70.56 2.678 58.745-43.08 187.48 187.48-39.6 39.6-16.971-16.97a8 8 0 0 0 -11.314 0l-5.656 5.659zm184 206.626-11.316-11.314 11.314-11.314 11.314 11.314zm135.763-33.937 34.213 34.213a11.98 11.98 0 0 1 1.808 14.655l-8.746 14.577-48.384 65.974a11.767 11.767 0 1 1 -18.978-13.919l48.137-65.643a15.914 15.914 0 0 0 -1.589-20.775l-17.774-17.772zm-273.405-250.927a18 18 0 0 1 23.882 1.4l238.21 238.21-11.313 11.317-5.658-5.656a16.02 16.02 0 0 0 -22.628 0l-62.224 62.225-11.314-11.313 67.883-67.883a8 8 0 0 0 0-11.314l-197.99-197.994a8 8 0 0 0 -10.388-.8l-79.318 58.172-11.416-11.413zm-77.319 24.648 5.656 5.658-11.311 11.313-5.657-5.657zm-22.628 22.628 5.657 5.657-11.313 11.314-5.658-5.657z"/></g></svg>