<svg height="512" viewBox="0 0 512 512" width="512" xmlns="http://www.w3.org/2000/svg"><g id="filled_outline" data-name="filled outline"><path d="m230.04 317.586 29.624 12.1 93.772-229.586a32 32 0 0 0 -17.525-41.724z" fill="#00abed"/><g fill="#c1e3f7"><path d="m248 16h16v16h-16z"/><path d="m248 48h16v16h-16z"/><path d="m248 80h16v16h-16z"/><path d="m248 112h16v16h-16z"/><path d="m248 160h16v32h-16z"/></g><path d="m92.851 399.581a64 64 0 0 0 35.17 83.733c32.832 13.282 70.213-3.225 83.6-36.013l48.039-117.616-29.624-12.1-20.418 49.991a10 10 0 0 1 -13.039 5.476l-19.479-7.958c-32.79-13.394-70.747 1.745-84.249 34.487zm29.542 12.3a32 32 0 1 1 17.524 41.723 32 32 0 0 1 -17.524-41.72z" fill="#0083f7"/><path d="m281.96 317.586-29.624 12.1-93.772-229.586a32 32 0 0 1 17.525-41.724z" fill="#00b8ff"/><circle cx="256" cy="295.429" fill="#00abed" r="8"/><path d="m334.9 365.094-19.486 7.959a10 10 0 0 1 -13.039-5.476l-20.415-49.991-29.624 12.1 48.039 117.614c13.391 32.788 50.772 49.3 83.6 36.013a64 64 0 0 0 35.17-83.733c-13.498-32.741-51.455-47.88-84.245-34.486zm37.18 88.513a32 32 0 1 1 17.524-41.723 32 32 0 0 1 -17.521 41.723z" fill="#3ba0ff"/><path d="m248 16h16v16h-16z"/><path d="m248 48h16v16h-16z"/><path d="m248 80h16v16h-16z"/><path d="m248 112h16v16h-16z"/><path d="m248 160h16v32h-16z"/><path d="m167.141 386.952a40 40 0 1 0 21.906 52.156 40.046 40.046 0 0 0 -21.906-52.156zm7.094 46.106a24 24 0 0 1 -44.435-18.149 24 24 0 1 1 44.436 18.149z"/><path d="m202.215 364.552a2 2 0 0 1 -2.607 1.094l-19.486-7.958c-37.115-15.157-79.583 2.266-94.666 38.843a72 72 0 0 0 39.565 94.2 70.645 70.645 0 0 0 26.566 5.181 73.131 73.131 0 0 0 67.445-45.585l36.968-90.512 36.968 90.51a73.124 73.124 0 0 0 67.445 45.586 70.684 70.684 0 0 0 26.566-5.181 72 72 0 0 0 39.565-94.2c-15.082-36.577-57.55-54-94.666-38.843l-19.487 7.959a2 2 0 0 1 -2.606-1.1l-20.418-49.99-7.442-18.221 78.917-193.219a40.046 40.046 0 0 0 -21.906-52.154 8 8 0 0 0 -10.431 4.382l-72.505 177.523-72.5-177.519a8 8 0 0 0 -10.431-4.381 40.046 40.046 0 0 0 -21.906 52.154l78.917 193.22zm92.757 6.049a18 18 0 0 0 23.47 9.858l19.486-7.958c28.976-11.836 62.093 1.681 73.824 30.13a56 56 0 0 1 -30.773 73.269c-28.526 11.54-61.363-2.645-73.2-31.623l-45.012-110.21 14.812-6.05zm44.8-300.528a24.043 24.043 0 0 1 6.256 27l-72.745 178.11-8.641-21.158zm-173.8 27a24.044 24.044 0 0 1 6.256-27l89.986 220.319a8 8 0 1 0 1.786 5.037c0-.253-.015-.5-.038-.752l7.567 18.528-14.812 6.049zm68.451 230.945 10.311 4.211.2.483 2.428 5.945-43.139 105.62c-11.834 28.976-44.673 43.162-73.2 31.622a56 56 0 0 1 -30.773-73.267c11.73-28.447 44.847-41.965 73.824-30.13l19.485 7.957a18 18 0 0 0 23.471-9.856z"/><path d="m360.034 463.983a40 40 0 1 0 -37.081-24.875 39.8 39.8 0 0 0 37.081 24.875zm-9.126-62.218a24 24 0 1 1 -13.143 31.293 23.882 23.882 0 0 1 13.143-31.293z"/></g></svg>