<svg height="512" viewBox="0 0 512 512" width="512" xmlns="http://www.w3.org/2000/svg"><g id="filled_outline" data-name="filled outline"><path d="m104 384-16 24-16-24v-200h32z" fill="#0083f7"/><path d="m128 176-24 8h-32l-24-8a40 40 0 0 1 40-40 40 40 0 0 1 40 40z" fill="#0094f6"/><path d="m56.006 312a8 8 0 0 1 -3.584-15.157l64-32a8 8 0 1 1 7.156 14.31l-64 32a7.976 7.976 0 0 1 -3.572.847z" fill="#0a71cd"/><path d="m56.006 344a8 8 0 0 1 -3.584-15.157l64-32a8 8 0 1 1 7.156 14.31l-64 32a7.976 7.976 0 0 1 -3.572.847z" fill="#0a71cd"/><path d="m56.006 376a8 8 0 0 1 -3.584-15.157l64-32a8 8 0 1 1 7.156 14.31l-64 32a7.976 7.976 0 0 1 -3.572.847z" fill="#0a71cd"/><path d="m240 408a81.941 81.941 0 0 1 -24-57.941v-166.059h48v166.059a81.941 81.941 0 0 1 -24 57.941z" fill="#0a71cd"/><g fill="#0083f7"><path d="m280 152-16 32h-48l-16-32v-32h80z"/><path d="m208.006 296a8 8 0 0 1 -3.584-15.157l64-32a8 8 0 1 1 7.156 14.31l-64 32a7.976 7.976 0 0 1 -3.572.847z"/><path d="m208.006 328a8 8 0 0 1 -3.584-15.157l64-32a8 8 0 1 1 7.156 14.31l-64 32a7.976 7.976 0 0 1 -3.572.847z"/><path d="m208.006 360a8 8 0 0 1 -3.584-15.157l64-32a8 8 0 1 1 7.156 14.31l-64 32a7.976 7.976 0 0 1 -3.572.847z"/></g><path d="m200 120h80v32h-80z" fill="#0094f6"/><path d="m352 104h112v48h-112z" fill="#0083f7"/><path d="m352 104h112v16h-112z" fill="#0094f6"/><path d="m376 152h64v128h-64z" fill="#0083f7"/><path d="m376 152h64v16h-64z" fill="#0a71cd"/><path d="m384 280h48v128h-48z" fill="#0a71cd"/><path d="m376.006 344a8 8 0 0 1 -3.584-15.157l64-32a8 8 0 1 1 7.156 14.31l-64 32a7.976 7.976 0 0 1 -3.572.847z" fill="#0083f7"/><path d="m376.006 376a8 8 0 0 1 -3.584-15.157l64-32a8 8 0 1 1 7.156 14.31l-64 32a7.976 7.976 0 0 1 -3.572.847z" fill="#0083f7"/><path d="m376.006 408a8 8 0 0 1 -3.584-15.157l64-32a8 8 0 1 1 7.156 14.31l-64 32a7.976 7.976 0 0 1 -3.572.847z" fill="#0083f7"/><path d="m72 184h32v16h-32z" fill="#0a71cd"/><path d="m88 128a48.054 48.054 0 0 0 -48 48 8 8 0 0 0 5.47 7.59l18.53 6.176v101.29l-11.578 5.789a8 8 0 1 0 7.156 14.31l4.422-2.211v14.112l-11.578 5.789a8 8 0 1 0 7.156 14.31l4.422-2.211v14.112l-11.578 5.789a8 8 0 1 0 7.156 14.31l4.422-2.211v11.056a8 8 0 0 0 1.344 4.438l16 24a8 8 0 0 0 13.312 0l16-24a8 8 0 0 0 1.344-4.438v-35.056l11.578-5.789a8 8 0 1 0 -7.156-14.31l-4.422 2.211v-14.112l11.578-5.789a8 8 0 1 0 -7.156-14.31l-4.422 2.211v-14.112l11.578-5.789a8 8 0 1 0 -7.156-14.31l-4.422 2.211v-77.29l18.53-6.176a8 8 0 0 0 5.47-7.59 48.054 48.054 0 0 0 -48-48zm8 253.578-8 12-8-12v-16.634l16-8zm0-42.522-16 8v-14.112l16-8zm0-32-16 8v-14.112l16-8zm0-32-16 8v-91.056h16zm6.7-99.056h-29.4l-16.807-5.6a32 32 0 0 1 63.018 0z"/><path d="m464 96h-112a8 8 0 0 0 -8 8v48a8 8 0 0 0 8 8h16v120a8 8 0 0 0 8 8v39.056l-3.578 1.789a8 8 0 0 0 3.578 15.155v15.055l-3.578 1.789a8 8 0 0 0 3.578 15.156v15.055l-3.578 1.789a8 8 0 0 0 3.578 15.156 8 8 0 0 0 8 8h48a8 8 0 0 0 8-8v-31.056l3.578-1.789a7.994 7.994 0 0 0 -3.578-15.147v-15.064l3.578-1.789a7.994 7.994 0 0 0 -3.578-15.147v-15.064l3.578-1.789a8 8 0 0 0 -3.578-15.148v-8.007a8 8 0 0 0 8-8v-120h16a8 8 0 0 0 8-8v-48a8 8 0 0 0 -8-8zm-40 304h-30.112l30.112-15.056zm0-32.944-32 16v-14.112l32-16zm0-32-32 16v-14.112l32-16zm0-32-32 16v-31.056h32zm8-31.056h-48v-112h48zm24-128h-96v-32h96z"/><path d="m288 120a8 8 0 0 0 -8-8h-80a8 8 0 0 0 -8 8v32c0 .109.012.214.016.322a5.774 5.774 0 0 0 .6 2.761c.023.054.05.1.074.159.051.112.1.22.154.336l15.156 30.311v93.167l-3.578 1.789a8 8 0 0 0 3.578 15.155v15.055l-3.578 1.789a8 8 0 0 0 3.578 15.156v15.055l-3.578 1.789a8 8 0 0 0 3.584 15.156c.183 0 .366-.019.549-.031a89.256 89.256 0 0 0 25.788 53.686 8 8 0 0 0 11.314 0 89.352 89.352 0 0 0 26.343-63.596v-21.115l3.578-1.789a7.994 7.994 0 0 0 -3.578-15.147v-15.064l3.578-1.789a7.994 7.994 0 0 0 -3.578-15.147v-15.064l3.578-1.789a7.994 7.994 0 0 0 -3.578-15.147v-62.119l15.155-30.311a7.945 7.945 0 0 0 .8-2.8v-.039c.022-.189.045-32.739.045-32.739zm-28.944 56h-38.112l-8-16h54.112zm12.944-48v16h-64v-16zm-48 64h32v63.056l-32 16zm32 158.059a73.392 73.392 0 0 1 -16 45.952 73.311 73.311 0 0 1 -15.941-43.1l31.941-15.967zm0-31-32 16v-14.115l32-16zm0-32-32 16v-14.115l32-16z"/></g></svg>