<svg height="512" viewBox="0 0 512 512" width="512" xmlns="http://www.w3.org/2000/svg"><g id="filled_outline" data-name="filled outline"><path d="m295.598 272.971-22.627 22.627-186.677-186.676-16.97-5.657-33.941-45.255 22.627-22.627 45.255 33.941 5.657 16.97z" fill="#accadc"/><path d="m77.41 49.93-27.48 27.47-14.55-19.39 22.63-22.63z" fill="#c6e9fd"/><path d="m268 300.569 32.569-32.569a16.971 16.971 0 0 1 24 0 16.973 16.973 0 0 1 4.97 12v4.284l.151.076a190 190 0 0 1 41.259 27.933l57.876 51.445a220.041 220.041 0 0 1 42.488 51.241l.154.257a40.986 40.986 0 0 1 -6.167 50.064 40.986 40.986 0 0 1 -50.068 6.163l-.257-.154a220.041 220.041 0 0 1 -51.241-42.488l-51.445-57.876a190 190 0 0 1 -27.929-41.255l-.076-.151h-4.284a16.973 16.973 0 0 1 -12-4.97 16.971 16.971 0 0 1 0-24z" fill="#f48b68"/><path d="m473.19 454.22a40.926 40.926 0 0 1 -7.89 11.08c-.83.83-1.68 1.61-2.57 2.36a8.035 8.035 0 0 1 -1.29-1.78 75.046 75.046 0 0 0 -13.11-17.55c-17-17-39.89-24.31-56.94-18.18a8 8 0 1 1 -5.41-15.05c22.77-8.19 52.37.62 73.67 21.92a91.861 91.861 0 0 1 13.54 17.2z" fill="#f48b68"/><path d="m301.25 312.57a7.985 7.985 0 0 1 0 11.31l-11.31 11.32a7.753 7.753 0 0 1 -1.93 1.42c-1.27-2.28-2.48-4.59-3.65-6.93l-.08-.15h-4.28a16.987 16.987 0 0 1 -3.7-.41 7.884 7.884 0 0 1 2.33-5.25l11.31-11.31a7.985 7.985 0 0 1 11.31 0z" fill="#f48b68"/><path d="m329.69 284.36c2.34 1.17 4.65 2.38 6.93 3.65a7.753 7.753 0 0 1 -1.42 1.93l-11.32 11.31a8 8 0 0 1 -11.31-11.31l11.31-11.31a7.884 7.884 0 0 1 5.25-2.33 16.987 16.987 0 0 1 .41 3.7v4.28z" fill="#f48b68"/><path d="m442.68 465.3a7.991 7.991 0 0 1 -11.32 0c-9.2-9.2-22.15-11.79-28.28-5.65a7.875 7.875 0 0 1 -3 1.88q-5.445-3.885-10.63-8.12a7.927 7.927 0 0 1 2.31-5.08c12.48-12.47 35.32-9.94 50.92 5.66a8 8 0 0 1 0 11.31z" fill="#f48b68"/><path d="m443.15 380.91a23.83 23.83 0 0 1 -6.13 10.85c-3.36 3.37-9.35 7.16-19.21 7.16-.99 0-2.02-.03-3.08-.11a8 8 0 0 1 1.2-15.96c3.13.24 7.37.01 9.78-2.4a7.959 7.959 0 0 0 1.97-3.66 7.993 7.993 0 0 1 8.84-5.86q3.5 3.4 6.83 6.98a.01.01 0 0 1 .01.01 7.824 7.824 0 0 1 -.21 2.99z" fill="#f48b68"/><path d="m77.41 49.93-27.48 27.47-14.55-19.39 22.63-22.63z" fill="#c1e3f7"/><g fill="#c36f53"><path d="m397.151 393.844a7.966 7.966 0 0 1 -3.2-.67c-13.841-6.041-28.682-16.587-41.789-29.694-13.245-13.245-23.853-28.23-29.869-42.194a8 8 0 1 1 14.693-6.331c5.235 12.149 14.643 25.364 26.49 37.212 11.728 11.727 24.824 21.083 36.875 26.343a8 8 0 0 1 -3.2 15.334z"/><path d="m443.15 380.91a23.83 23.83 0 0 1 -6.13 10.85c-3.36 3.37-9.35 7.16-19.21 7.16-.99 0-2.02-.03-3.08-.11a8 8 0 0 1 1.2-15.96c3.13.24 7.37.01 9.78-2.4a7.959 7.959 0 0 0 1.97-3.66 7.993 7.993 0 0 1 8.84-5.86q3.5 3.4 6.83 6.98a.01.01 0 0 1 .01.01 7.824 7.824 0 0 1 -.21 2.99z"/><path d="m389.83 357.132c-6.25 0-13.757-3.686-20.693-10.622a45.254 45.254 0 0 1 -6.156-7.6 8 8 0 0 1 13.487-8.61 29.655 29.655 0 0 0 3.983 4.893c3.735 3.735 7.1 5.4 8.691 5.82a8 8 0 0 1 9.694 12.565 12.353 12.353 0 0 1 -9.006 3.554z"/><path d="m301.25 323.88-11.31 11.32a7.753 7.753 0 0 1 -1.93 1.42c-1.27-2.28-2.48-4.59-3.65-6.93l-.08-.15h-4.28a16.987 16.987 0 0 1 -3.7-.41 7.884 7.884 0 0 1 2.33-5.25l11.31-11.31a8 8 0 0 1 11.31 11.31z"/><path d="m336.62 288.01a7.753 7.753 0 0 1 -1.42 1.93l-11.32 11.31a8 8 0 0 1 -11.31-11.31l11.31-11.31a7.884 7.884 0 0 1 5.25-2.33 16.987 16.987 0 0 1 .41 3.7v4.28l.15.08c2.34 1.17 4.65 2.38 6.93 3.65z"/><path d="m442.68 465.3a7.991 7.991 0 0 1 -11.32 0c-9.2-9.2-22.15-11.79-28.28-5.65a7.875 7.875 0 0 1 -3 1.88q-5.445-3.885-10.63-8.12a7.927 7.927 0 0 1 2.31-5.08c12.48-12.47 35.32-9.94 50.92 5.66a8 8 0 0 1 0 11.31z"/><path d="m473.19 454.22a40.926 40.926 0 0 1 -7.89 11.08c-.83.83-1.68 1.61-2.57 2.36a8.035 8.035 0 0 1 -1.29-1.78 75.046 75.046 0 0 0 -13.11-17.55c-17-17-39.89-24.31-56.94-18.18a8 8 0 1 1 -5.41-15.05c22.77-8.19 52.37.62 73.67 21.92a91.861 91.861 0 0 1 13.54 17.2z"/></g><path d="m478.324 411.117-.151-.253a227.759 227.759 0 0 0 -44.034-53.1l-57.876-51.446a198.13 198.13 0 0 0 -38.731-26.918 24.966 24.966 0 0 0 -41.918-17.728l-179.7-179.7-5.06-15.179a7.993 7.993 0 0 0 -2.79-3.87l-45.254-33.94a8 8 0 0 0 -10.457.743l-22.627 22.628a8 8 0 0 0 -.744 10.456l33.942 45.255a8 8 0 0 0 3.87 2.789l15.179 5.06 179.7 179.7a24.967 24.967 0 0 0 17.727 41.918 198.15 198.15 0 0 0 26.912 38.732l51.446 57.876a227.737 227.737 0 0 0 53.1 44.03l.261.157a48.984 48.984 0 0 0 67.2-67.21zm-419.563-365.171 6.464 4.848-14.431 14.432-4.849-6.465zm30.063 55.387-14.6-4.867-13.732-18.31 17.664-17.664 18.31 13.733 4.866 14.6a8.018 8.018 0 0 0 1.933 3.127l181.019 181.018-11.314 11.314-181.019-181.019a8 8 0 0 0 -3.127-1.932zm330.532 363.277-.26-.157q-5.9-3.541-11.544-7.455c6.748-2.15 16.469.965 23.81 8.306a8 8 0 0 0 11.315-11.314c-14.813-14.812-36.154-17.835-48.95-7.413a211.814 211.814 0 0 1 -24.009-23.067l-51.446-57.876a182.118 182.118 0 0 1 -24.186-34.583l7.169-7.169a8 8 0 0 0 -11.315-11.313l-8.97 8.97h-.97a8.97 8.97 0 0 1 -6.344-15.313l32.568-32.568a8.971 8.971 0 0 1 15.315 6.342v.97l-8.971 8.971a8 8 0 0 0 11.315 11.314l7.168-7.168a182.122 182.122 0 0 1 34.583 24.185l24.884 22.12a7.971 7.971 0 0 0 -1.376.624c-1.589-.424-4.956-2.085-8.691-5.82a29.655 29.655 0 0 1 -3.983-4.893 8 8 0 0 0 -13.487 8.61 45.254 45.254 0 0 0 6.156 7.6c6.936 6.936 14.443 10.622 20.693 10.622a12.353 12.353 0 0 0 9.006-3.551 7.95 7.95 0 0 0 2.139-3.894l22.534 20.03q2.64 2.347 5.193 4.782a7.991 7.991 0 0 0 -1.017 2.288 7.887 7.887 0 0 1 -1.98 3.664c-2.409 2.41-6.647 2.636-9.774 2.4a8 8 0 0 0 -1.2 15.955q1.6.12 3.083.118c9.864 0 15.845-3.8 19.209-7.159a22.751 22.751 0 0 0 3.706-4.879 211.852 211.852 0 0 1 23.726 32.211l.152.254a32.919 32.919 0 0 1 3.163 26.946 93.117 93.117 0 0 0 -8.123-9.275c-21.294-21.3-50.9-30.107-73.67-21.925a8 8 0 0 0 5.411 15.058c17.058-6.132 39.941 1.176 56.945 18.18a76.015 76.015 0 0 1 10.095 12.462 32.931 32.931 0 0 1 -39.072 3.81z"/><path d="m397.151 393.844a8 8 0 0 0 3.2-15.334c-12.051-5.26-25.147-14.616-36.875-26.343-11.847-11.848-21.255-25.063-26.49-37.212a8 8 0 1 0 -14.693 6.331c6.016 13.964 16.624 28.949 29.869 42.194 13.107 13.107 27.948 23.653 41.789 29.694a7.966 7.966 0 0 0 3.2.67z"/></g></svg>