<svg height="512" viewBox="0 0 512 512" width="512" xmlns="http://www.w3.org/2000/svg"><g id="filled_outline" data-name="filled outline"><path d="m422.269 224h-94.269v-112h94.269a50 50 0 0 1 40.687 20.938l25.044 35.062-25.044 35.062a50 50 0 0 1 -40.687 20.938z" fill="#0083f7"/><path d="m120 152h176v32h-176z" fill="#f48b68"/><path d="m120 168h176v16h-176z" fill="#c36f53"/><path d="m96 120h-40v96h40l24-32v-40zm-8 64h-32v-32h32z" fill="#0083f7"/><path d="m24 112h32v112h-32z" fill="#f48b68"/><path d="m24 208h32v16h-32z" fill="#c36f53"/><path d="m392 160h-32a8 8 0 0 1 0-16h32a8 8 0 0 1 0 16z" fill="#3ba0ff"/><path d="m448.006 176a8 8 0 0 1 -7.161-4.424l-3.578-7.155a7.956 7.956 0 0 0 -7.156-4.421h-6.111a8 8 0 0 1 0-16h6.111a23.87 23.87 0 0 1 21.467 13.267l3.577 7.155a8 8 0 0 1 -7.149 11.578z" fill="#3ba0ff"/><path d="m296 152h32v32h-32z" fill="#0094f6"/><path d="m56 288h67.112a60.887 60.887 0 0 1 60.888 60.888v6.224a60.887 60.887 0 0 1 -60.888 60.888h-67.112a24 24 0 0 1 -24-24h60a12 12 0 0 0 12-12 12 12 0 0 0 -12-12h-52a16 16 0 0 1 -16-16 16 16 0 0 1 16-16h52a12 12 0 0 0 12-12 12 12 0 0 0 -12-12h-60a24 24 0 0 1 24-24z" fill="#0083f7"/><path d="m216 336h176v32h-176z" fill="#c36f53" transform="matrix(-1 0 0 -1 608 704)"/><path d="m216 352h176v16h-176z" fill="#975640" transform="matrix(-1 0 0 -1 608 720)"/><path d="m416 400h40v-96h-40l-24 32v40zm8-64h32v32h-32z" fill="#0083f7"/><path d="m456 296h32v112h-32z" fill="#c36f53" transform="matrix(-1 0 0 -1 944 704)"/><path d="m152 336h32v32h-32l-16-16z" fill="#3ba0ff"/><path d="m184 336h32v32h-32z" fill="#0094f6" transform="matrix(-1 0 0 -1 400 704)"/><path d="m360 184h-32v-32h32l16 16z" fill="#3ba0ff"/><path d="m456 384h32v24h-32z" fill="#975640"/><path d="m24 232h32a8 8 0 0 0 8-8h32a8 8 0 0 0 6.4-3.2l21.6-28.8h196v32a8 8 0 0 0 8 8h94.269a58.112 58.112 0 0 0 47.2-24.288l25.041-35.062a8 8 0 0 0 0-9.3l-25.044-35.061a58.114 58.114 0 0 0 -47.197-24.289h-94.269a8 8 0 0 0 -8 8v32h-192a8 8 0 0 0 -2.343-5.657l-24-24a8 8 0 0 0 -5.657-2.343h-32a8 8 0 0 0 -8-8h-32a8 8 0 0 0 -8 8v112a8 8 0 0 0 8 8zm312-72h20.687l8 8-8 8h-20.687zm0 32h24a8 8 0 0 0 5.657-2.343l16-16a8 8 0 0 0 0-11.314l-2.343-2.343h12.686a8 8 0 0 0 0-16h-56v-24h86.269a42.079 42.079 0 0 1 34.177 17.589l21.723 30.411-21.724 30.412a42.078 42.078 0 0 1 -34.176 17.588h-86.269zm-32-32h16v16h-16zm-176 0h160v16h-160zm-64 0h16v16h-16zm0 32h24a8 8 0 0 0 8-8v-32a8 8 0 0 0 -8-8h-24v-16h28.687l19.313 19.313v34.02l-20 26.667h-28zm-32-72h16v96h-16z"/><path d="m430.111 160a7.956 7.956 0 0 1 7.156 4.423l3.578 7.155a8 8 0 1 0 14.31-7.156l-3.577-7.155a23.87 23.87 0 0 0 -21.467-13.267h-6.111a8 8 0 0 0 0 16z"/><path d="m488 288h-32a8 8 0 0 0 -8 8h-32a8 8 0 0 0 -6.4 3.2l-21.6 28.8h-199.246a69.006 69.006 0 0 0 -65.642-48h-67.112a32.036 32.036 0 0 0 -32 32 8 8 0 0 0 8 8h60a4 4 0 0 1 0 8h-52a24 24 0 0 0 0 48h52a4 4 0 0 1 0 8h-60a8 8 0 0 0 -8 8 32.036 32.036 0 0 0 32 32h67.112a69.006 69.006 0 0 0 65.642-48h195.246a8 8 0 0 0 2.343 5.657l24 24a8 8 0 0 0 5.657 2.343h32a8 8 0 0 0 8 8h32a8 8 0 0 0 8-8v-112a8 8 0 0 0 -8-8zm-364.888 120h-67.112a16.011 16.011 0 0 1 -13.853-8h49.853a20 20 0 0 0 0-40h-52a8 8 0 0 1 0-16h52a20 20 0 0 0 0-40h-49.853a16.011 16.011 0 0 1 13.853-8h67.112a52.962 52.962 0 0 1 48.58 32h-19.692a8 8 0 0 0 -5.657 2.343l-16 16a8 8 0 0 0 0 11.314l16 16a8 8 0 0 0 5.657 2.343h19.692a52.962 52.962 0 0 1 -48.58 32zm52.888-52.888c0 1.649-.086 3.277-.234 4.888h-20.453l-8-8 8-8h20.453c.148 1.611.234 3.239.234 4.888zm32 4.888h-16v-16h16zm176 0h-160v-16h160zm64 0h-16v-16h16zm0-32h-24a8 8 0 0 0 -8 8v32a8 8 0 0 0 8 8h24v16h-28.687l-19.313-19.313v-34.02l20-26.667h28zm32 72h-16v-96h16z"/></g></svg>