<svg height="512" viewBox="0 0 512 512" width="512" xmlns="http://www.w3.org/2000/svg"><g id="filled_outline" data-name="filled outline"><path d="m80 168h24v24h-24z" fill="#b2b2b2"/><path d="m80 168h24v8h-24z" fill="#878787"/><path d="m404 264h-208.3a18 18 0 0 1 -16.449-10.689l-27.251-61.311h-80v216h16v32h382a18 18 0 0 0 18-18v-74a84 84 0 0 0 -84-84zm36 80a32 32 0 0 1 -32 32h-192a32 32 0 0 1 -32-32 32 32 0 0 1 32-32h192a32 32 0 0 1 32 32z" fill="#0c82ed"/><path d="m88 440h-64v-214a34 34 0 0 1 34-34h14v216h16z" fill="#eaeae8"/><path d="m152 192 240-112a33.735 33.735 0 0 1 -16.884 46.093l-57.875 24.8a119.984 119.984 0 0 0 -37.582 25.444l-2.94 2.94a319.974 319.974 0 0 1 -83.166 59.942l-17.553 8.781z" fill="#0a71cd"/><path d="m24 408h64v32h-64z" fill="#c5c5c3"/><circle cx="123.314" cy="240" fill="#0a71cd" r="11.314"/><circle cx="123.314" cy="387.314" fill="#0a71cd" r="11.314"/><path d="m470 440h-54v-32h72v14a18 18 0 0 1 -18 18z" fill="#c5c5c3"/><path d="m56 136h72v32h-72z" fill="#eaeae8"/><path d="m72 136h16v32h-16z" fill="#c5c5c3"/><path d="m96 136h16v32h-16z" fill="#c5c5c3"/><path d="m404 256h-208.3a10 10 0 0 1 -8.46-4.674l9.9-4.948a327.442 327.442 0 0 0 85.245-61.44l2.939-2.94a111.5 111.5 0 0 1 35.077-23.748l57.874-24.8a41.732 41.732 0 0 0 20.888-57.024 8 8 0 0 0 -10.538-3.672l-238.4 111.246h-38.225v-8h16a8 8 0 0 0 8-8v-32a8 8 0 0 0 -8-8h-72a8 8 0 0 0 -8 8v32a8 8 0 0 0 8 8h16v8h-14a42.047 42.047 0 0 0 -42 42v214a8 8 0 0 0 8 8h446a26.029 26.029 0 0 0 26-26v-74a92.1 92.1 0 0 0 -92-92zm-18.009-152.062a25.489 25.489 0 0 1 -14.027 14.8l-57.874 24.8a127.449 127.449 0 0 0 -40.09 27.147l-2.939 2.939a311.476 311.476 0 0 1 -81.087 58.444l-9.339 4.669-18.135-40.809 224.761-104.888a25.557 25.557 0 0 1 -1.27 12.898zm-297.991 40.062h8v16h-8zm32 16h-8v-16h8zm-56-16h8v16h-8zm24 32h8v8h-8zm-30 24h6v200h-32v-174a26.029 26.029 0 0 1 26-26zm-26 216h48v16h-48zm56-16h-8v-200h66.8l25.137 56.559a26.022 26.022 0 0 0 23.763 15.441h208.3a76.086 76.086 0 0 1 76 76v52h-64a8 8 0 0 0 -8 8v24h-312v-24a8 8 0 0 0 -8-8zm392 22a10.011 10.011 0 0 1 -10 10h-46v-16h56z"/><path d="m216 384h192a40 40 0 0 0 0-80h-192a40 40 0 0 0 0 80zm0-64h192a24 24 0 0 1 0 48h-192a24 24 0 0 1 0-48z"/><circle cx="123.314" cy="240" r="11.314"/><circle cx="123.314" cy="387.314" r="11.314"/></g></svg>