<svg height="512" viewBox="0 0 512 512" width="512" xmlns="http://www.w3.org/2000/svg"><g id="filled_outline" data-name="filled outline"><path d="m464 304h-152l-16 16h-80l-16-16h-152v-152h152l16 16h80l16-16h152z" fill="#0045c7"/><path d="m48 168h144l16 16h112l16-16h128v-24h-416z" fill="#002e6e"/><path d="m160 24h192v32h-192z" fill="#0045c7"/><path d="m168 88h-32v-54a10 10 0 0 1 10-10h22z" fill="#002e6e"/><path d="m376 88h-32v-64h21.341a10 10 0 0 1 10 9.878z" fill="#002e6e"/><path d="m472 152h-160l-16 16h-80l-16-16h-160v-64h432z" fill="#007af6"/><path d="m144 122.73a48 48 0 0 1 8 86.83v94.44h-48v-94.44a48 48 0 0 1 8-86.83v37.27a16 16 0 0 0 32 0z" fill="#c1e3f7"/><path d="m128 312a8 8 0 0 1 -8-8v-80a8 8 0 0 1 16 0v80a8 8 0 0 1 -8 8z" fill="#afcee0"/><path d="m280 320h-48v-32l-8-16v-24h64v24l-8 16z" fill="#007af6"/><path d="m272 248h-32v-104l16-24 16 24z" fill="#afcee0"/><path d="m424 120h24a40 40 0 0 1 40 40 0 0 0 0 1 0 0h-64a0 0 0 0 1 0 0v-40a0 0 0 0 1 0 0z" fill="#c1e3f7"/><path d="m416 296h-48v-32a75.779 75.779 0 0 0 8-33.889v-30.111h32v30.111a75.779 75.779 0 0 0 8 33.889z" fill="#c36f53"/><path d="m352 120v56l8.821 2.94a22.2 22.2 0 0 1 15.179 21.06h32v-2.28a22.2 22.2 0 0 1 12.271-19.856l3.729-1.864v-56z" fill="#afcee0"/><path d="m368 272h48v32h-48z" fill="#f48b68"/><path d="m256 280h-32a8 8 0 0 1 0-16h32a8 8 0 0 1 0 16z" fill="#3191ff"/><path d="m72 88h368v32h-368z" fill="#3a97ff"/><path d="m472 488h-432v-184h160l16 16h80l16-16h160z" fill="#007af6"/><path d="m440 456h-368v-120h112l16 16h104l16-16h120z" fill="#3a97ff"/><circle cx="256" cy="392" fill="#0045c7" r="16"/><path d="m248 392h16v32h-16z" fill="#0045c7"/><path d="m344 416h40v16h-40z" fill="#5fb0ff"/><path d="m400 416h16v16h-16z" fill="#5fb0ff"/><path d="m312 112h40v72h-40z" fill="#c1e3f7"/><path d="m232 304h48v16h-48z" fill="#0072e6"/><path d="m240 144h32l-16-24z" fill="#c6e9fd"/><path d="m312 112h16v72h-16z" fill="#c6e9fd"/><path d="m300.686 344h-97.372l-13.657-13.657a8 8 0 0 0 -5.657-2.343h-112a8 8 0 0 0 -8 8v120a8 8 0 0 0 8 8h368a8 8 0 0 0 8-8v-120a8 8 0 0 0 -8-8h-120a8 8 0 0 0 -5.657 2.343zm22.628 0h108.686v104h-352v-104h100.686l13.657 13.657a8 8 0 0 0 5.657 2.343h104a8 8 0 0 0 5.657-2.343z"/><path d="m480 124.261v-36.261a8 8 0 0 0 -8-8h-88.1l-.563-46.22a18.066 18.066 0 0 0 -18-17.78h-219.337a18.021 18.021 0 0 0 -18 18v46h-88a8 8 0 0 0 -8 8v64a8 8 0 0 0 8 8v136a8 8 0 0 0 -8 8v184a8 8 0 0 0 8 8h432a8 8 0 0 0 8-8v-184a8 8 0 0 0 -8-8v-128h16a8 8 0 0 0 8-8 47.888 47.888 0 0 0 -16-35.739zm-16-9.509a47.774 47.774 0 0 0 -16-2.752v-16h16zm-336 101.248a8 8 0 0 0 -8 8v72h-8v-86.44a8 8 0 0 0 -3.992-6.924 40 40 0 0 1 -4.008-66.644v24.008a24 24 0 0 0 48 0v-24.008a40 40 0 0 1 -4.008 66.644 8 8 0 0 0 -3.992 6.924v86.44h-8v-72a8 8 0 0 0 -8-8zm-48-120h352v16h-72a8 8 0 0 0 -8-8h-40a8 8 0 0 0 -8 8h-224zm256-48h-160.487l-.195-16h160.682zm-160.292 16h160.292v16h-160.1zm168.292 112h-24v-56h24zm-104.845 108.422-2.211-4.422h19.056a8 8 0 0 0 0-16h-24v-8h48v14.111l-7.155 14.311a7.994 7.994 0 0 0 -.845 3.578v24h-32v-24a7.994 7.994 0 0 0 -.845-3.578zm-71.982-156.422h73.879l-7.708 11.562a7.993 7.993 0 0 0 -1.344 4.438v16h-12.686l-13.657-13.657a8 8 0 0 0 -5.657-2.343h-21.428a56.309 56.309 0 0 0 -11.399-16zm80.827 112v-93.578l8-12 8 12v93.578zm30.656-100.438-7.708-11.562h33.052v20.687l-11.313 11.313h-12.687v-16a7.993 7.993 0 0 0 -1.344-4.438zm-142.656-11.562v16h-16v-16zm0 32a8 8 0 0 1 -16 0zm24 53.941a55.85 55.85 0 0 0 23.415-53.941h13.271l13.657 13.657a8 8 0 0 0 5.657 2.343h16v64h-8a8 8 0 0 0 -8 8v24a7.994 7.994 0 0 0 .845 3.578l7.155 14.311v22.111h-4.687l-13.656-13.657a8 8 0 0 0 -5.657-2.343h-40zm128 26.059h-8v-64h16.248a7.4 7.4 0 0 0 5.233-2.167l2.519-2.52v12.687a8 8 0 0 0 8 8h40a8 8 0 0 0 7.426-5.035 14.177 14.177 0 0 1 8.574 13.035v30.111a68.118 68.118 0 0 1 -7.155 30.311 7.994 7.994 0 0 0 -.845 3.578v32h-48a8 8 0 0 0 -5.657 2.343l-13.656 13.657h-4.687v-22.111l7.155-14.311a7.994 7.994 0 0 0 .845-3.578v-24a8 8 0 0 0 -8-8zm119.165 24h-30.33a84.257 84.257 0 0 0 7.165-33.889v-22.111h16v22.111a84.257 84.257 0 0 0 7.165 33.889zm-31.165 32v-16h32v16zm24.537-104h-17.61a30.157 30.157 0 0 0 -19.576-20.649l-3.351-1.117v-42.234h56v43.066a29.994 29.994 0 0 0 -15.463 20.934zm-33.2-158.024.563 46.024h-15.9v-48h13.341a2.007 2.007 0 0 1 2 1.976zm-223.337.024a2 2 0 0 1 2-2h13.317l.585 48h-15.902zm-96 62h16v24a8 8 0 0 0 8 8h16.827a56.309 56.309 0 0 0 -11.4 16h-29.427zm8 64h16.585a55.85 55.85 0 0 0 23.415 53.941v82.059h-40zm408 320h-416v-168h148.687l13.656 13.657a8 8 0 0 0 5.657 2.343h80a8 8 0 0 0 5.657-2.343l13.656-13.657h148.687zm-8-184h-32v-32a7.994 7.994 0 0 0 -.845-3.578 68.118 68.118 0 0 1 -7.155-30.311v-32.391a14.121 14.121 0 0 1 7.848-12.7l3.729-1.864a8 8 0 0 0 4.423-7.156v-8h24zm-24-144v-24h16a32.058 32.058 0 0 1 30.988 24z"/><path d="m256 376a15.991 15.991 0 0 0 -8 29.842v18.158h16v-18.158a15.991 15.991 0 0 0 -8-29.842z"/><path d="m344 416h40v16h-40z"/><path d="m400 416h16v16h-16z"/></g></svg>