<svg height="512" viewBox="0 0 512 512" width="512" xmlns="http://www.w3.org/2000/svg"><g id="filled_outline" data-name="filled outline"><path d="m120 64v424h32v-412a20 20 0 0 1 20-20h60v-32h-72a40 40 0 0 0 -40 40z" fill="#007af6"/><path d="m232 24h32v32h-32z" fill="#009cf7"/><path d="m200 144v344h32v-332a20 20 0 0 1 20-20h36v-32h-48a40 40 0 0 0 -40 40z" fill="#007af6"/><path d="m288 104h32v32h-32z" fill="#009cf7"/><path d="m280 224v264h32v-252a20 20 0 0 1 20-20h36v-32h-48a40 40 0 0 0 -40 40z" fill="#007af6"/><path d="m368 184h32v32h-32z" fill="#009cf7"/><path d="m368 488h-16v-208a24.028 24.028 0 0 1 24-24h24v16h-24a8.009 8.009 0 0 0 -8 8z" fill="#007af6"/><path d="m88 312h304v128h-304z" fill="#009cf7"/><path d="m120 344h240v64h-240z" fill="#007af6"/><path d="m400 176h-80a48.053 48.053 0 0 0 -48 48v80h-32v-148a12.013 12.013 0 0 1 12-12h68a8 8 0 0 0 8-8v-32a8 8 0 0 0 -8-8h-80a48.055 48.055 0 0 0 -48 48v160h-32v-228a12.013 12.013 0 0 1 12-12h92a8 8 0 0 0 8-8v-32a8 8 0 0 0 -8-8h-104a48.055 48.055 0 0 0 -48 48v240h-24a8 8 0 0 0 -8 8v128a8 8 0 0 0 8 8h24v40a8 8 0 0 0 8 8h32a8 8 0 0 0 8-8v-40h32v40a8 8 0 0 0 8 8h32a8 8 0 0 0 8-8v-40h32v40a8 8 0 0 0 8 8h32a8 8 0 0 0 8-8v-40h32v48h16v-48h24a8 8 0 0 0 8-8v-128a8 8 0 0 0 -8-8h-24v-24a8.009 8.009 0 0 1 8-8h24v-16h-24a24.028 24.028 0 0 0 -24 24v24h-32v-68a12.013 12.013 0 0 1 12-12h68a8 8 0 0 0 8-8v-32a8 8 0 0 0 -8-8zm-104-64h16v16h-16zm-56-80h16v16h-16zm-32 112a32.036 32.036 0 0 1 32-32h40v16h-28a28.032 28.032 0 0 0 -28 28v148h-16zm-80-80a32.036 32.036 0 0 1 32-32h64v16h-52a28.032 28.032 0 0 0 -28 28v228h-16zm16 416h-16v-32h16zm80 0h-16v-32h16zm80 0h-16v-32h16zm80-160v112h-288v-112zm-24-112h-28a28.032 28.032 0 0 0 -28 28v68h-16v-80a32.036 32.036 0 0 1 32-32h40zm32 0h-16v-16h16z"/><path d="m120 416h240a8 8 0 0 0 8-8v-64a8 8 0 0 0 -8-8h-240a8 8 0 0 0 -8 8v64a8 8 0 0 0 8 8zm8-64h224v48h-224z"/></g></svg>