<svg height="512" viewBox="0 0 512 512" width="512" xmlns="http://www.w3.org/2000/svg"><g id="filled_outline" data-name="filled outline"><circle cx="88" cy="336" fill="#41b2ff" r="64"/><path d="m40 192 80 88 192-16 8-72v-8h-280z" fill="#0c82ed"/><circle cx="88" cy="336" fill="#0a71cd" r="32"/><path d="m297.653 405.163a38.867 38.867 0 0 1 -34.775-21.517l-51.611-103.224-86.409 7.2-29.912 52.347a8 8 0 0 1 -13.892-7.938l32-56a8 8 0 0 1 6.282-4l96-8a8.006 8.006 0 0 1 7.819 4.4l54.033 108.067a22.886 22.886 0 0 0 23.743 12.44 22.92 22.92 0 0 0 18.993-28.248l-15.844-63.39a73.513 73.513 0 0 1 13.6-63.667l48.808-62.12a71.573 71.573 0 0 1 56.618-27.513h.894a8 8 0 0 1 0 16h-.894a55.671 55.671 0 0 0 -44.033 21.4l-48.808 62.12a57.621 57.621 0 0 0 -10.663 49.9l15.844 63.38a38.937 38.937 0 0 1 -37.793 48.363z" fill="#0a71cd"/><rect fill="#0a71cd" height="24" rx="12" width="296" x="32" y="168"/><g fill="#41b2ff"><path d="m472 168h-32l-16 8v-48l16 8h32a16 16 0 0 1 16 16 16 16 0 0 1 -16 16z"/><path d="m263.993 242.947a8 8 0 0 1 -.413-15.989l16-.842a8 8 0 0 1 .84 15.979l-16 .842c-.143.006-.285.01-.427.01z"/><path d="m167.993 248a8 8 0 0 1 -.414-15.989l64-3.368a8 8 0 0 1 .842 15.978l-64 3.368c-.144.011-.286.011-.428.011z"/></g><path d="m472 128h-30.111l-14.311-7.155a8 8 0 0 0 -11.578 7.155v16.351a71.51 71.51 0 0 0 -49.509 27.166l-42.122 53.61 3.2-28.846a19.98 19.98 0 0 0 -11.569-36.281h-272a19.984 19.984 0 0 0 -9.979 37.307c.022.024.038.051.059.075l60.873 66.96c-2.289-.22-4.607-.342-6.953-.342a72.131 72.131 0 1 0 52.073 22.355l71.194-5.932 51.611 103.223a38.867 38.867 0 0 0 34.775 21.517 38.925 38.925 0 0 0 37.793-48.363l-15.846-63.377a57.8 57.8 0 0 1 .186-28.985 8.03 8.03 0 0 0 .262-.936 58.06 58.06 0 0 1 10.215-19.981l48.808-62.12a55.61 55.61 0 0 1 36.929-20.942v15.541a8 8 0 0 0 11.578 7.155l14.311-7.155h30.111a24 24 0 0 0 0-48zm-428 48h272a4 4 0 0 1 0 8h-272a4 4 0 0 1 0-8zm267.062 24-6.287 56.575-181.509 15.125-65.182-71.7zm-223.062 192a56 56 0 1 1 20.545-108.079l-8.05 14.088a40.116 40.116 0 1 0 13.881 7.958l8.05-14.087a55.967 55.967 0 0 1 -34.426 100.12zm24-56a24.028 24.028 0 1 1 -19.722-23.611l-11.224 19.642a8 8 0 0 0 13.892 7.938l11.217-19.63a23.888 23.888 0 0 1 5.837 15.661zm207.924 24.681a22.92 22.92 0 0 1 -18.993 28.248 22.886 22.886 0 0 1 -23.743-12.44l-48.748-97.5 73.676-6.14a74.292 74.292 0 0 0 1.964 24.451zm152.076-200.681h-32a7.994 7.994 0 0 0 -3.578.845l-4.422 2.211v-22.112l4.422 2.211a7.994 7.994 0 0 0 3.578.845h32a8 8 0 0 1 0 16z"/><path d="m263.993 242.947c.142 0 .284 0 .427-.01l16-.842a8 8 0 0 0 -.84-15.979l-16 .842a8 8 0 0 0 .413 15.989z"/><path d="m160.011 240.421a8 8 0 0 0 7.982 7.579c.142 0 .284 0 .428-.011l64-3.368a8 8 0 0 0 -.842-15.978l-64 3.368a8 8 0 0 0 -7.568 8.41z"/></g></svg>