<svg height="512" viewBox="0 0 512 512" width="512" xmlns="http://www.w3.org/2000/svg"><g id="filled_outline" data-name="filled outline"><path d="m120 296-16 8a76.174 76.174 0 0 1 -63.63-16.1c-1.8-1.48-3.54-3.07-5.21-4.74l-3.16-3.16 56-16z" fill="#007af6"/><path d="m120 296-16 8a76.174 76.174 0 0 1 -63.63-16.1l55.63-15.9z" fill="#0a71cd"/><path d="m168 224-38.662-27.616a66.489 66.489 0 0 0 -38.645-12.384 66.486 66.486 0 0 0 -65.973 58.24l-.72 5.76 48-16 40 88 56-32h288a32 32 0 0 0 32-32 32 32 0 0 0 -32-32z" fill="#0083f7"/><path d="m110.351 225.702h25.298v50.596h-25.298z" fill="#0083f7" transform="matrix(.921 -.39 .39 .921 -88.161 67.858)"/><path d="m144.51 269.36-23.29 9.87-9.87-23.3-.09-.22-9.77-23.07.26-.11 23.03-9.76 9.87 23.3z" fill="#0a71cd"/><path d="m134.65 246.07-23.3 9.86-.09-.22-9.51-23.18 23.03-9.76z" fill="#0094f6"/><path d="m424 272a8 8 0 0 1 -8-8v-8h-232v8a8 8 0 0 1 -16 0v-16a8 8 0 0 1 8-8h248a8 8 0 0 1 8 8v16a8 8 0 0 1 -8 8z" fill="#0a71cd"/><circle cx="456" cy="256" fill="#0a71cd" r="8"/><path d="m456 216h-285.436l-36.577-26.126a74.487 74.487 0 0 0 -117.206 51.374l-.719 5.76a8 8 0 0 0 10.468 8.582l41.17-13.723 7.891 17.359-45.791 13.082a8 8 0 0 0 -3.458 13.349l3.155 3.155a83.693 83.693 0 0 0 70.42 23.942l4.8 10.557a8 8 0 0 0 11.252 3.635l54.156-30.946h285.875a40 40 0 0 0 0-80zm-408 67.75 34.285-9.8 9.027 19.859 1.429 3.573a68.037 68.037 0 0 1 -44.741-13.632zm408-3.75h-288a8 8 0 0 0 -3.969 1.054l-48.38 27.646-36.368-80.01a8 8 0 0 0 -9.813-4.279l-35.5 11.835a58.489 58.489 0 0 1 90.723-33.351l38.657 27.615a8 8 0 0 0 4.65 1.49h288a24 24 0 0 1 0 48z"/><path d="m132.146 219.651a8 8 0 0 0 -10.487-4.246l-23.294 9.868a8 8 0 0 0 -4.246 10.487l19.735 46.589a8 8 0 0 0 10.487 4.246l23.294-9.868a8 8 0 0 0 4.246-10.487zm-16.547 25.8-3.627-8.561 8.562-3.627 3.627 8.562zm9.867 23.294-3.627-8.561 8.562-3.627 3.627 8.561z"/><path d="m424 240h-248a8 8 0 0 0 -8 8v16a8 8 0 0 0 16 0v-8h232v8a8 8 0 0 0 16 0v-16a8 8 0 0 0 -8-8z"/><circle cx="456" cy="256" r="8"/></g></svg>