<?xml version="1.0"?>
<svg xmlns="http://www.w3.org/2000/svg" viewBox="0 0 512 512" width="512" height="512"><g id="filled_outline" data-name="filled outline"><path d="M208,368.583V143.418A64.029,64.029,0,0,0,232.32,57.57L207.66,87.94l-16.29,7.38L166.52,75.15l3.88-17.46,24.93-30.72A64.006,64.006,0,0,0,144,143.418V368.583a64,64,0,1,0,64,0Zm-17.578,80.4H161.578L147.156,424l14.422-24.98h28.844L204.844,424Z" style="fill:#eaeae8"/><path d="M176,368a8,8,0,0,1-8-8V160a8,8,0,0,1,16,0V360A8,8,0,0,1,176,368Z" style="fill:#c5c5c3"/><path d="M376,353.229V161.575a48.007,48.007,0,0,0-8-86.833V104a16,16,0,0,1-32,0V74.742a47.956,47.956,0,0,0-8,86.771V353.167A48.007,48.007,0,0,0,336,440V410.742a16,16,0,1,1,32,0V440a47.956,47.956,0,0,0,8-86.771Z" style="fill:#eaeae8"/><path d="M352,344a8,8,0,0,1-8-8V184a8,8,0,0,1,16,0V336A8,8,0,0,1,352,344Z" style="fill:#c5c5c3"/><path d="M248,88a72.117,72.117,0,0,0-8.645-34.239,8,8,0,0,0-13.245-1.234L202.64,81.432l-10.067,4.561L175.4,72.056l2.4-10.789,23.742-29.256a8,8,0,0,0-3.8-12.668A72,72,0,0,0,136,147.854V364.148a72,72,0,1,0,80,0V147.854A72.27,72.27,0,0,0,248,88ZM203.993,375.508a55.932,55.932,0,1,1-55.987,0A8,8,0,0,0,152,368.583V143.418a8,8,0,0,0-3.993-6.924A56,56,0,0,1,176,32q2.4,0,4.782.2L164.188,52.649a8,8,0,0,0-1.6,3.306l-3.88,17.46a8,8,0,0,0,2.769,7.946l24.85,20.171a8,8,0,0,0,8.342,1.075l16.29-7.38a8.008,8.008,0,0,0,2.91-2.244L230,73.125a56.029,56.029,0,0,1-26,63.369A8,8,0,0,0,200,143.418V368.583A8,8,0,0,0,203.993,375.508Z"/><path d="M190.422,391.02H161.578a8,8,0,0,0-6.929,4L140.228,420a8,8,0,0,0,0,8l14.421,24.98a8,8,0,0,0,6.929,4h28.844a8,8,0,0,0,6.929-4L211.772,428a8,8,0,0,0,0-8l-14.421-24.98A8,8,0,0,0,190.422,391.02ZM185.8,440.98H166.2l-9.8-16.98,9.8-16.98H185.8l9.8,16.98Z"/><path d="M176,368a8,8,0,0,0,8-8V160a8,8,0,0,0-16,0V360A8,8,0,0,0,176,368Z"/><path d="M408,120a56.092,56.092,0,0,0-37.333-52.8A8,8,0,0,0,360,74.742V104a8,8,0,0,1-16,0V74.742A8,8,0,0,0,333.333,67.2a56.351,56.351,0,0,0-37.245,55.971A55.788,55.788,0,0,0,320,165.889v182.9a56,56,0,0,0,13.333,98.756A8,8,0,0,0,344,440V410.742a8,8,0,1,1,16,0V440a8,8,0,0,0,10.667,7.542,56.351,56.351,0,0,0,37.245-55.971A55.79,55.79,0,0,0,384,348.853v-182.9A56.218,56.218,0,0,0,408,120ZM371.975,360.143A39.986,39.986,0,0,1,376,426.791V410.742a24,24,0,1,0-48,0v16a40,40,0,0,1,4.006-66.646A8,8,0,0,0,336,353.167V161.513a8,8,0,0,0-3.975-6.913A39.986,39.986,0,0,1,328,87.952V104a24,24,0,0,0,48,0V88a40,40,0,0,1-4.006,66.646A8,8,0,0,0,368,161.575V353.229A8,8,0,0,0,371.975,360.143Z"/><path d="M352,176a8,8,0,0,0-8,8V336a8,8,0,0,0,16,0V184A8,8,0,0,0,352,176Z"/></g></svg>
