<svg id="Capa_1" enable-background="new 0 0 512 512" height="512" viewBox="0 0 512 512" width="512" xmlns="http://www.w3.org/2000/svg"><g><g><g><path d="m138.957 504.5c-54.945 0-99.647-44.82-99.647-99.912 0-32.09 15.654-62.38 41.372-81.041v-257.185c0-31.79 24.623-57.627 56.056-58.82.741-.028 1.482-.042 2.218-.042 32.133 0 58.274 26.211 58.274 58.43v257.617c25.72 18.661 41.371 48.951 41.371 81.04.001 55.093-44.7 99.913-99.644 99.913z" fill="#f7f7f7"/></g></g><g><g><path d="m138.957 504.5c-54.945 0-99.647-44.82-99.647-99.912 0-32.09 15.654-62.38 41.372-81.041v-257.185c0-31.79 24.623-57.627 56.056-58.82.741-.028 1.482-.042 2.218-.042 32.133 0 58.274 26.211 58.274 58.43v257.617c25.72 18.661 41.371 48.951 41.371 81.04.001 55.093-44.7 99.913-99.644 99.913z" fill="#c8d2dc"/></g></g><g><g><path d="m197.231 323.547v-257.617c0-32.218-26.141-58.43-58.274-58.43-.736 0-1.477.014-2.218.042-4.417.168-8.693.838-12.792 1.927 24.891 6.65 43.284 29.438 43.284 56.46v257.618c25.72 18.661 41.371 48.951 41.371 81.04 0 49.981-36.792 91.506-84.646 98.781 4.894.744 9.902 1.132 15 1.132 54.944 0 99.646-44.82 99.646-99.912 0-32.09-15.651-62.379-41.371-81.041z" fill="#b9c3cd"/></g></g><g><g><path d="m138.956 463.653c-32.482 0-58.908-26.497-58.908-59.066 0-20.75 11.078-40.232 28.91-50.842 7.725-4.597 12.461-12.937 12.461-21.944v-265.439c0-9.522 7.37-17.642 16.859-18.002 9.977-.379 18.214 7.649 18.214 17.57v265.872c0 9.007 4.736 17.347 12.461 21.944 17.832 10.611 28.91 30.092 28.91 50.842.001 32.569-26.425 59.065-58.907 59.065z" fill="#f7f7f7"/></g></g><g><g><path d="m138.956 463.653c-32.482 0-58.908-26.497-58.908-59.066 0-20.75 11.078-40.232 28.91-50.842 7.725-4.597 12.461-12.937 12.461-21.944v-265.439c0-9.522 7.37-17.642 16.859-18.002 9.977-.379 18.214 7.649 18.214 17.57v265.872c0 9.007 4.736 17.347 12.461 21.944 17.832 10.611 28.91 30.092 28.91 50.842.001 32.569-26.425 59.065-58.907 59.065z" fill="#9ec8fc"/></g></g><g><g><path d="m168.954 353.745c-7.725-4.597-12.462-12.937-12.462-21.944v-43.468h-35.072v43.468c0 9.007-4.736 17.347-12.461 21.944-17.832 10.611-28.91 30.092-28.91 50.842 0 32.569 26.426 59.066 58.908 59.066s58.908-26.497 58.908-59.066c-.001-20.749-11.079-40.231-28.911-50.842z" fill="#5392f9"/></g></g><g><g><path d="m168.954 353.745c-7.725-4.597-12.462-12.937-12.462-21.944v-43.468h-30v43.468c0 9.007 4.736 17.347 12.462 21.944 17.832 10.611 28.91 30.092 28.91 50.842 0 27.373-18.668 50.45-43.908 57.119 4.791 1.266 9.817 1.947 15 1.947 32.482 0 58.908-26.497 58.908-59.066 0-20.749-11.078-40.231-28.91-50.842z" fill="#4981f8"/></g></g><g><path d="m226.121 453.543c-3.45-2.289-8.105-1.349-10.396 2.102-17.183 25.895-45.882 41.355-76.768 41.355-50.811 0-92.147-41.456-92.147-92.412 0-29.553 14.31-57.58 38.277-74.971 1.944-1.411 3.096-3.668 3.096-6.07v-170.049c0-4.142-3.357-7.5-7.5-7.5s-7.5 3.358-7.5 7.5v166.311c-25.976 20.324-41.373 51.729-41.373 84.779 0 59.227 48.066 107.412 107.147 107.412 35.926 0 69.297-17.967 89.267-48.061 2.29-3.451 1.349-8.106-2.103-10.396z"/><path d="m204.73 319.809v-253.879c0-36.354-29.505-65.93-65.773-65.93-.83 0-1.667.016-2.503.048-35.479 1.347-63.271 30.475-63.271 66.314v57.136c0 4.142 3.357 7.5 7.5 7.5s7.5-3.358 7.5-7.5v-57.136c0-27.741 21.453-50.286 48.84-51.325.646-.024 1.292-.037 1.935-.037 27.996 0 50.773 22.847 50.773 50.93v257.617c0 2.402 1.151 4.659 3.096 6.07 23.968 17.39 38.276 45.417 38.276 74.97 0 8.62-1.188 17.156-3.529 25.37-1.136 3.983 1.173 8.133 5.156 9.269.688.196 1.38.289 2.061.289 3.265 0 6.27-2.15 7.209-5.446 2.723-9.552 4.104-19.471 4.104-29.482-.001-33.049-15.399-64.454-41.374-84.778z"/><path d="m156.295 47.847c-4.947-4.763-11.461-7.242-18.3-6.982-13.5.513-24.075 11.712-24.075 25.497v265.439c0 6.331-3.371 12.27-8.797 15.499-20.093 11.956-32.575 33.907-32.575 57.288 0 36.704 29.791 66.566 66.408 66.566s66.408-29.861 66.408-66.566c0-23.38-12.482-45.332-32.575-57.288-5.426-3.229-8.797-9.167-8.797-15.499v-36.002h5.113c4.143 0 7.5-3.358 7.5-7.5s-3.357-7.5-7.5-7.5h-5.113v-25.415h5.113c4.143 0 7.5-3.358 7.5-7.5s-3.357-7.5-7.5-7.5h-5.113v-25.414h5.113c4.143 0 7.5-3.358 7.5-7.5s-3.357-7.5-7.5-7.5h-5.113v-25.415h5.113c4.143 0 7.5-3.358 7.5-7.5s-3.357-7.5-7.5-7.5h-5.113v-25.414h5.113c4.143 0 7.5-3.358 7.5-7.5s-3.357-7.5-7.5-7.5h-5.113v-25.414h5.113c4.143 0 7.5-3.358 7.5-7.5s-3.357-7.5-7.5-7.5h-5.113v-12.797c0-6.882-2.733-13.304-7.697-18.083zm8.824 312.344c15.571 9.266 25.245 26.278 25.245 44.397 0 28.433-23.062 51.566-51.408 51.566s-51.408-23.132-51.408-51.566c0-18.119 9.674-35.131 25.245-44.397 9.947-5.919 16.127-16.797 16.127-28.389v-36.002h20.072v36.002c0 11.592 6.18 22.47 16.127 28.389zm-36.199-79.392v-214.437c0-5.592 4.326-10.306 9.644-10.508.131-.005.261-.008.391-.008 2.599 0 5.049.988 6.938 2.806 2 1.925 3.101 4.509 3.101 7.277v214.87z"/><path d="m472.69 160.081h-21.018l9.115-9.115c2.929-2.929 2.929-7.677 0-10.606-2.93-2.929-7.678-2.929-10.607 0l-19.722 19.722h-46.429l32.831-32.831h27.891c4.143 0 7.5-3.358 7.5-7.5s-3.357-7.5-7.5-7.5h-12.891l14.863-14.863c2.929-2.929 2.929-7.677 0-10.606-2.93-2.929-7.678-2.929-10.607 0l-14.862 14.862v-12.891c0-4.142-3.357-7.5-7.5-7.5s-7.5 3.358-7.5 7.5v27.891l-32.087 32.087v-44.944l19.722-19.721c2.93-2.929 2.93-7.678.001-10.607-2.929-2.928-7.678-2.929-10.606 0l-9.116 9.116v-21.019c0-4.142-3.357-7.5-7.5-7.5s-7.5 3.358-7.5 7.5v21.019l-9.115-9.115c-2.93-2.929-7.678-2.929-10.607 0s-2.929 7.677 0 10.606l19.723 19.723v45.379l-30.698-30.698v-27.892c0-4.142-3.357-7.5-7.5-7.5s-7.5 3.358-7.5 7.5v12.891l-15.944-15.944c-2.93-2.929-7.678-2.929-10.607 0s-2.929 7.677 0 10.606l15.945 15.945h-12.895c-4.143 0-7.5 3.358-7.5 7.5s3.357 7.5 7.5 7.5h27.891l31.005 31.005h-43.413l-19.722-19.722c-2.93-2.929-7.678-2.929-10.607 0s-2.929 7.677 0 10.606l9.115 9.115h-22.548c-4.143 0-7.5 3.358-7.5 7.5s3.357 7.5 7.5 7.5h22.549l-9.116 9.116c-2.929 2.929-2.929 7.677 0 10.606 1.465 1.465 3.385 2.197 5.304 2.197s3.839-.732 5.304-2.197l19.722-19.722h42.362l-29.955 29.955h-27.891c-4.143 0-7.5 3.358-7.5 7.5s3.357 7.5 7.5 7.5h12.891l-15.945 15.945c-2.929 2.929-2.929 7.677 0 10.606 1.465 1.465 3.385 2.197 5.304 2.197s3.839-.732 5.304-2.197l15.944-15.944v12.891c0 4.142 3.357 7.5 7.5 7.5s7.5-3.358 7.5-7.5v-27.891l30.698-30.698v43.848l-19.723 19.723c-2.929 2.929-2.929 7.677 0 10.606 1.465 1.465 3.385 2.197 5.304 2.197s3.839-.732 5.304-2.197l9.115-9.115v22.549c0 4.142 3.357 7.5 7.5 7.5s7.5-3.358 7.5-7.5v-22.549l9.116 9.116c1.464 1.464 3.384 2.197 5.303 2.197s3.839-.732 5.304-2.197c2.929-2.929 2.929-7.678-.001-10.607l-19.722-19.721v-43.414l32.087 32.087v27.891c0 4.142 3.357 7.5 7.5 7.5s7.5-3.358 7.5-7.5v-12.891l14.862 14.862c1.465 1.465 3.385 2.197 5.304 2.197s3.839-.732 5.304-2.197c2.929-2.929 2.929-7.677 0-10.606l-14.863-14.863h12.891c4.143 0 7.5-3.358 7.5-7.5s-3.357-7.5-7.5-7.5h-27.891l-31.78-31.78h45.378l19.722 19.722c1.465 1.465 3.385 2.197 5.304 2.197s3.839-.732 5.304-2.197c2.929-2.929 2.929-7.677 0-10.606l-9.116-9.116h21.018c4.143 0 7.5-3.358 7.5-7.5s-3.357-7.499-7.5-7.499z"/></g></g></svg>