<svg height="512" viewBox="0 0 58 52" width="512" xmlns="http://www.w3.org/2000/svg"><g id="Page-1" fill="none" fill-rule="evenodd"><g id="068---Lan-Party" fill-rule="nonzero"><path id="Shape" d="m19 12h-10v17h-4v-17c0-2.209139 1.790861-4 4-4h10z" fill="#2980ba"/><path id="Shape" d="m53 29v-17c0-2.209139-1.790861-4-4-4h-11v4h11v17z" fill="#2980ba"/><path id="Rectangle-path" d="m11 42h4v8h-4z" fill="#285680"/><path id="Rectangle-path" d="m43 42h4v8h-4z" fill="#285680"/><rect id="Rectangle-path" fill="#b0d3f0" height="17" rx="2" width="26" y="27"/><path id="Shape" d="m4 34c-.4043959-.0000863-.76893405-.2437275-.92367798-.6173454-.15474393-.373618-.06922994-.8036603.21667798-1.0896546l2-2c.39237889-.3789722 1.01608478-.3735524 1.40181858.0121814.38573379.3857338.39115363 1.0094397.01218142 1.4018186l-2 2c-.18749273.1875494-.44180519.2929434-.707.293z" fill="#fff"/><path id="Shape" d="m4 39c-.4043959-.0000863-.76893405-.2437275-.92367798-.6173454-.15474393-.373618-.06922994-.8036603.21667798-1.0896546l7-7c.3923789-.3789722 1.0160848-.3735524 1.4018186.0121814s.3911536 1.0094397.0121814 1.4018186l-7 7c-.18749273.1875494-.44180519.2929434-.707.293z" fill="#fff"/><path id="Shape" d="m20 51c0 .5522847-.4477153 1-1 1h-12c-.55228475 0-1-.4477153-1-1 0-1.6568542 1.34314575-3 3-3h8c1.6568542 0 3 1.3431458 3 3z" fill="#4482c3"/><rect id="Rectangle-path" fill="#b0d3f0" height="17" rx="2" width="26" x="32" y="27"/><path id="Shape" d="m36 34c-.4043959-.0000863-.7689341-.2437275-.923678-.6173454-.1547439-.373618-.0692299-.8036603.216678-1.0896546l2-2c.3923789-.3789722 1.0160848-.3735524 1.4018186.0121814s.3911536 1.0094397.0121814 1.4018186l-2 2c-.1874927.1875494-.4418052.2929434-.707.293z" fill="#fff"/><path id="Shape" d="m36 39c-.4043959-.0000863-.7689341-.2437275-.923678-.6173454-.1547439-.373618-.0692299-.8036603.216678-1.0896546l7-7c.3923789-.3789722 1.0160848-.3735524 1.4018186.0121814s.3911536 1.0094397.0121814 1.4018186l-7 7c-.1874927.1875494-.4418052.2929434-.707.293z" fill="#fff"/><path id="Shape" d="m52 51c0 .5522847-.4477153 1-1 1h-12c-.5522847 0-1-.4477153-1-1 0-1.6568542 1.3431458-3 3-3h8c1.6568542 0 3 1.3431458 3 3z" fill="#4482c3"/><rect id="Rectangle-path" fill="#3b97d3" height="22" rx="2" width="24" x="17"/><path id="Shape" d="m37 9v5c0 .5522847-.4477153 1-1 1h-3v2c0 .5522847-.4477153 1-1 1h-6c-.5522847 0-1-.4477153-1-1v-2h-3c-.5522847 0-1-.4477153-1-1v-5z" fill="#285680"/><path id="Shape" d="m37 5v4h-16v-4c0-.55228475.4477153-1 1-1h14c.5522847 0 1 .44771525 1 1z" fill="#f3d55b"/><g fill="#b19046"><path id="Rectangle-path" d="m24 4h2v5h-2z"/><path id="Rectangle-path" d="m28 4h2v5h-2z"/><path id="Rectangle-path" d="m32 4h2v5h-2z"/></g></g></g></svg>